<svg width="24" height="24" fill="none" xmlns="http://www.w3.org/2000/svg"><path fill-rule="evenodd" clip-rule="evenodd" d="M13.564 1.04a.75.75 0 0 1 .683-.096 14.498 14.498 0 0 1 8.859 8.86.75.75 0 0 1-.707.998h-4.623a.75.75 0 0 1-.73-.578c-.404-1.712-1.509-2.816-3.22-3.22a.75.75 0 0 1-.578-.73V1.651a.75.75 0 0 1 .316-.612Zm-2.54 2.362a9.524 9.524 0 1 0 9.525 9.525.75.75 0 0 0-.75-.75h-3.948a.75.75 0 0 0-.75.75 4.076 4.076 0 1 1-4.077-4.076.75.75 0 0 0 .75-.75V4.152a.75.75 0 0 0-.75-.75Z" fill="#6E7480"/></svg>