<svg width="24" height="24" fill="none" xmlns="http://www.w3.org/2000/svg"><path fill-rule="evenodd" clip-rule="evenodd" d="M3.248 2.498a.75.75 0 0 1 .75.75v16.753h16.753a.75.75 0 0 1 0 1.5H3.248a.75.75 0 0 1-.75-.75V3.248a.75.75 0 0 1 .75-.75ZM10.055 12a1.945 1.945 0 1 0 0-3.889 1.945 1.945 0 0 0 0 3.89ZM20.75 5.68a2.431 2.431 0 1 1-4.862 0 2.431 2.431 0 0 1 4.862 0ZM7.624 17.834a1.459 1.459 0 1 0 0-2.917 1.459 1.459 0 0 0 0 2.917Zm10.21-3.403a1.459 1.459 0 1 1-2.917 0 1.459 1.459 0 0 1 2.917 0Z" fill="#6E7480"/></svg>