<svg width="24" height="24" fill="none" xmlns="http://www.w3.org/2000/svg"><path fill-rule="evenodd" clip-rule="evenodd" d="M20.127 1c-.762 0-1.492.303-2.031.841l-8.572 8.574a.734.734 0 0 0-.215.518v3.026c0 .405.328.734.733.734h3.026a.734.734 0 0 0 .518-.215l7.9-7.9.003-.004.003-.003.667-.666A2.873 2.873 0 0 0 20.127 1Zm.995 3.867-.151.151-1.989-1.988.151-.151a1.406 1.406 0 1 1 1.989 1.988Zm-1.189 1.189-1.988-1.989-6.72 6.72 1.989 1.989 6.72-6.72ZM2.765 9.635a1.765 1.765 0 1 1 0 3.53 1.765 1.765 0 0 1 0-3.53Zm.69 1.765a.69.69 0 1 0-1.38 0 .69.69 0 0 0 1.38 0Zm9.144 8.07a1.765 1.765 0 1 1 0 3.53 1.765 1.765 0 0 1 0-3.53Zm.69 1.765a.69.69 0 1 0-1.38 0 .69.69 0 0 0 1.38 0ZM10.99 19.58c-.21.21-.55.21-.76 0l-5.816-5.81a.538.538 0 0 1 .76-.76l5.815 5.81c.21.21.21.55 0 .76Z" fill="#6E7480"/></svg>