<svg width="24" height="24" fill="none" xmlns="http://www.w3.org/2000/svg"><path fill-rule="evenodd" clip-rule="evenodd" d="M6.116 4.116A1.25 1.25 0 0 1 7 3.75h6.25V7A1.75 1.75 0 0 0 15 8.75h3.25v2.186H5.75V5c0-.332.132-.65.366-.884Zm-1.866 6.82V5A2.75 2.75 0 0 1 7 2.25h7c.203 0 .387.08.522.212l.008.008 5 5c.136.135.22.323.22.53v2.936H22a1 1 0 0 1 1 1v5a1 1 0 0 1-1 1h-2.25V19A2.75 2.75 0 0 1 17 21.75H7A2.75 2.75 0 0 1 4.25 19v-1.064H2a1 1 0 0 1-1-1v-5a1 1 0 0 1 1-1h2.25Zm1.5 7V19A1.25 1.25 0 0 0 7 20.25h10A1.25 1.25 0 0 0 18.25 19v-1.064H5.75ZM14.75 7V4.81l2.44 2.44H15a.25.25 0 0 1-.25-.25Zm-9.701 9.88c.032.033.074.05.125.05h.585a.16.16 0 0 0 .118-.05.164.164 0 0 0 .049-.12v-3.049l.975 1.88c.023.043.05.08.083.113a.248.248 0 0 0 .153.042h.286c.06 0 .109-.014.146-.042a.418.418 0 0 0 .09-.113l.975-1.88v3.05a.18.18 0 0 0 .042.12.17.17 0 0 0 .125.049h.585a.169.169 0 0 0 .174-.17v-4.584a.173.173 0 0 0-.049-.127.168.168 0 0 0-.125-.049h-.543c-.065 0-.114.019-.146.056a.349.349 0 0 0-.063.078l-1.357 2.535-1.344-2.535a.349.349 0 0 0-.063-.078C5.838 12.02 5.79 12 5.724 12h-.55a.168.168 0 0 0-.125.05.173.173 0 0 0-.049.126v4.585c0 .047.016.086.049.12Zm5.782 0a.16.16 0 0 0 .118.05h.662c.05 0 .09-.017.118-.05a.164.164 0 0 0 .049-.12v-1.647h1.037c.362 0 .678-.057.947-.17a1.35 1.35 0 0 0 .627-.506c.148-.23.223-.521.223-.874 0-.347-.075-.636-.223-.866a1.326 1.326 0 0 0-.627-.52 2.353 2.353 0 0 0-.947-.177H10.95a.16.16 0 0 0-.118.05.173.173 0 0 0-.049.126v4.585c0 .047.017.086.05.12Zm1.95-2.549h-1.017v-1.55h1.017c.287 0 .498.073.633.219.135.14.202.329.202.563 0 .254-.072.446-.216.578-.144.127-.35.19-.62.19ZM17.084 17c-.325 0-.605-.04-.842-.12a1.91 1.91 0 0 1-.592-.31 1.453 1.453 0 0 1-.348-.422 1.08 1.08 0 0 1-.125-.458.12.12 0 0 1 .042-.098.165.165 0 0 1 .111-.043h.627c.046 0 .085.01.118.029.032.018.06.056.084.112a.633.633 0 0 0 .201.303c.098.075.21.13.334.162.126.028.258.042.397.042.279 0 .5-.066.662-.197.167-.136.25-.329.25-.578 0-.248-.076-.427-.23-.535-.152-.112-.366-.169-.64-.169h-.717a.185.185 0 0 1-.125-.042.173.173 0 0 1-.049-.127v-.295a.24.24 0 0 1 .028-.12.511.511 0 0 1 .07-.092l1.246-1.232h-1.992a.169.169 0 0 1-.125-.05.18.18 0 0 1-.042-.12v-.464a.19.19 0 0 1 .042-.127.169.169 0 0 1 .125-.049h2.987c.051 0 .093.016.126.05a.173.173 0 0 1 .048.126v.423c0 .042-.009.08-.027.112a.4.4 0 0 1-.063.085l-1.205 1.253.084.007c.283.024.534.09.752.198.223.103.394.255.515.457.125.202.188.456.188.76 0 .32-.084.595-.25.825a1.561 1.561 0 0 1-.676.52 2.511 2.511 0 0 1-.989.184Z" fill="#6E7480"/></svg>