<svg width="24" height="24" fill="none" xmlns="http://www.w3.org/2000/svg"><path fill-rule="evenodd" clip-rule="evenodd" d="M7 3.75A1.25 1.25 0 0 0 5.75 5v5.436h-1.5V5A2.75 2.75 0 0 1 7 2.25h7c.203 0 .387.08.522.212l.008.008 5 5c.136.135.22.323.22.53v2.436h-1.5V8.75H15A1.75 1.75 0 0 1 13.25 7V3.75H7ZM14.75 7V4.81l2.44 2.44H15a.25.25 0 0 1-.25-.25Zm5 11.436V19A2.75 2.75 0 0 1 17 21.75H7A2.75 2.75 0 0 1 4.25 19v-.564h1.5V19A1.25 1.25 0 0 0 7 20.25h10A1.25 1.25 0 0 0 18.25 19v-.564h1.5ZM1 11.936a1 1 0 0 1 1-1h20a1 1 0 0 1 1 1v5a1 1 0 0 1-1 1H2a1 1 0 0 1-1-1v-5Zm7.508 3.263c-.037.028-.06.072-.07.133a.77.77 0 0 1-.315.511c-.088.07-.2.128-.336.175a1.612 1.612 0 0 1-.476.063 1.24 1.24 0 0 1-.476-.084 1.042 1.042 0 0 1-.343-.224 1.045 1.045 0 0 1-.21-.329 1.526 1.526 0 0 1-.084-.42 11.65 11.65 0 0 1 0-1.176 1.51 1.51 0 0 1 .084-.413c.052-.13.122-.243.21-.336a1.04 1.04 0 0 1 .343-.224 1.24 1.24 0 0 1 .476-.084c.182 0 .34.023.476.07.136.042.248.098.336.168a.84.84 0 0 1 .21.238.77.77 0 0 1 .098.273.21.21 0 0 0 .077.14.236.236 0 0 0 .133.042h.567a.196.196 0 0 0 .133-.049.16.16 0 0 0 .056-.14 1.728 1.728 0 0 0-.147-.567 1.443 1.443 0 0 0-.37-.525 1.971 1.971 0 0 0-.638-.378 2.616 2.616 0 0 0-.93-.147 2.31 2.31 0 0 0-.855.147 1.787 1.787 0 0 0-1.036 1.008c-.093.238-.15.497-.168.777a11.65 11.65 0 0 0 0 1.176c.019.28.075.539.168.777.098.238.234.443.406.616.173.168.383.301.63.399.248.093.532.14.854.14.364 0 .675-.049.931-.147.257-.098.47-.224.637-.378a1.46 1.46 0 0 0 .371-.518c.084-.191.133-.383.147-.574a.143.143 0 0 0-.056-.133.181.181 0 0 0-.133-.056h-.567a.213.213 0 0 0-.133.049Zm4.351-3.157a2.478 2.478 0 0 0-.826-.126c-.26 0-.506.037-.735.112a1.84 1.84 0 0 0-.58.294 1.383 1.383 0 0 0-.386.455c-.093.177-.14.371-.14.581 0 .21.028.392.084.546.056.15.14.28.252.392.117.112.262.208.434.287a4 4 0 0 0 .616.196c.257.065.483.119.68.161.195.042.359.086.49.133a.784.784 0 0 1 .3.168.34.34 0 0 1 .098.252c0 .107-.03.198-.09.273a.81.81 0 0 1-.239.182 1.353 1.353 0 0 1-.343.105c-.13.019-.266.028-.406.028-.177 0-.326-.014-.448-.042a1.245 1.245 0 0 1-.294-.119.652.652 0 0 1-.189-.161 1.353 1.353 0 0 1-.119-.182.317.317 0 0 0-.105-.126.328.328 0 0 0-.182-.042h-.49a.206.206 0 0 0-.14.056.15.15 0 0 0-.049.133c.014.205.077.392.19.56.111.168.258.313.44.434.187.117.4.208.637.273.238.06.488.091.75.091.312 0 .594-.037.846-.112a2.07 2.07 0 0 0 .637-.301 1.27 1.27 0 0 0 .539-1.05c0-.191-.032-.362-.098-.511-.06-.15-.156-.28-.287-.392a1.54 1.54 0 0 0-.497-.294 4.164 4.164 0 0 0-.72-.217 28.567 28.567 0 0 1-.645-.147 2.657 2.657 0 0 1-.42-.133.596.596 0 0 1-.224-.175.51.51 0 0 1-.063-.266c0-.089.024-.168.07-.238a.57.57 0 0 1 .19-.175.919.919 0 0 1 .286-.112c.112-.028.23-.042.35-.042.28 0 .49.044.63.133a.876.876 0 0 1 .322.301.582.582 0 0 0 .105.126.328.328 0 0 0 .182.042h.49a.196.196 0 0 0 .133-.049.16.16 0 0 0 .056-.14 1.019 1.019 0 0 0-.14-.427 1.3 1.3 0 0 0-.357-.42 2.043 2.043 0 0 0-.595-.315Zm3.774 3.458 1.176-3.339a.37.37 0 0 1 .07-.112c.037-.042.09-.063.16-.063h.533c.051 0 .095.019.133.056a.181.181 0 0 1 .056.133v.028a.193.193 0 0 1-.014.042l-1.568 4.403a.548.548 0 0 1-.098.182c-.038.037-.094.056-.168.056h-.56c-.075 0-.13-.019-.168-.056a.55.55 0 0 1-.098-.182l-1.568-4.403a.2.2 0 0 1-.014-.042v-.028a.18.18 0 0 1 .056-.133.182.182 0 0 1 .133-.056h.532c.07 0 .121.021.154.063a.32.32 0 0 1 .077.112l1.176 3.339Z" fill="#6E7480"/></svg>