<svg width="24" height="24" fill="none" xmlns="http://www.w3.org/2000/svg"><path fill-rule="evenodd" clip-rule="evenodd" d="M7 3.75A1.25 1.25 0 0 0 5.75 5v5.436h-1.5V5A2.75 2.75 0 0 1 7 2.25h7c.203 0 .387.08.522.212l.008.008 5 5c.136.135.22.323.22.53v2.436h-1.5V8.75H15A1.75 1.75 0 0 1 13.25 7V3.75H7ZM14.75 7V4.81l2.44 2.44H15a.25.25 0 0 1-.25-.25Zm5 11.436V19A2.75 2.75 0 0 1 17 21.75H7A2.75 2.75 0 0 1 4.25 19v-.564h1.5V19A1.25 1.25 0 0 0 7 20.25h10A1.25 1.25 0 0 0 18.25 19v-.564h1.5ZM1 11.936a1 1 0 0 1 1-1h20a1 1 0 0 1 1 1v5a1 1 0 0 1-1 1H2a1 1 0 0 1-1-1v-5Zm8.724.25c.28 0 .525.037.737.113.213.075.39.168.532.28.141.113.248.238.318.376a.91.91 0 0 1 .125.381.143.143 0 0 1-.05.125.175.175 0 0 1-.118.044h-.438a.293.293 0 0 1-.162-.038.513.513 0 0 1-.094-.112.783.783 0 0 0-.288-.269c-.125-.08-.312-.119-.562-.119a1.29 1.29 0 0 0-.313.038.825.825 0 0 0-.256.1.51.51 0 0 0-.169.156.374.374 0 0 0-.062.213.46.46 0 0 0 .056.237c.042.058.109.11.2.156.096.042.221.081.375.119.154.037.346.081.575.131.25.054.465.119.644.194.183.07.331.158.444.262.116.1.202.217.256.35.058.134.087.286.087.457 0 .187-.041.362-.125.525a1.238 1.238 0 0 1-.356.412 1.85 1.85 0 0 1-.569.269c-.225.067-.477.1-.756.1-.233 0-.456-.027-.669-.081a2.131 2.131 0 0 1-.568-.244 1.397 1.397 0 0 1-.394-.388 1.01 1.01 0 0 1-.169-.5.134.134 0 0 1 .044-.118.184.184 0 0 1 .125-.05h.437c.071 0 .125.012.163.037a.283.283 0 0 1 .094.113c.029.054.064.108.106.162a.58.58 0 0 0 .169.144c.07.042.158.077.262.106.109.025.242.038.4.038.125 0 .246-.009.363-.025a1.21 1.21 0 0 0 .306-.094.717.717 0 0 0 .212-.162.374.374 0 0 0 .082-.244.305.305 0 0 0-.088-.225.702.702 0 0 0-.269-.15 3.533 3.533 0 0 0-.437-.119 16.441 16.441 0 0 1-.606-.144 3.568 3.568 0 0 1-.55-.175 1.392 1.392 0 0 1-.388-.256.972.972 0 0 1-.225-.35 1.43 1.43 0 0 1-.075-.488c0-.187.042-.36.125-.518a1.23 1.23 0 0 1 .344-.406c.146-.113.319-.2.519-.263a2.1 2.1 0 0 1 .656-.1Zm-3.414.844H5.153a.162.162 0 0 1-.12-.05.162.162 0 0 1-.05-.119v-.444c0-.046.018-.085.05-.118a.162.162 0 0 1 .12-.05h1.832c.046 0 .085.016.118.05.034.033.05.072.05.118v2.644c0 .537-.15.944-.45 1.219-.3.27-.729.406-1.287.406a2.48 2.48 0 0 1-.769-.106 1.595 1.595 0 0 1-.531-.3 1.242 1.242 0 0 1-.313-.438 1.636 1.636 0 0 1-.125-.537.134.134 0 0 1 .044-.119.183.183 0 0 1 .125-.05h.506c.034 0 .067.01.1.031.038.021.06.05.07.088a.901.901 0 0 0 .087.243c.041.08.098.15.168.213a.902.902 0 0 0 .263.144c.104.033.23.05.375.05.287 0 .508-.075.662-.225.155-.15.232-.369.232-.656V13.03Zm6.073.194a2.24 2.24 0 0 0-.131.656c-.005.079-.009.166-.013.262v.594c.004.096.008.183.013.262.012.234.056.455.13.663.08.204.195.383.345.537.15.15.337.27.562.357.225.087.492.131.8.131.304 0 .569-.044.794-.131.23-.088.419-.206.569-.357.15-.154.262-.333.337-.537.08-.208.125-.43.138-.662.004-.08.006-.167.006-.263a6.715 6.715 0 0 0 0-.594c0-.096-.002-.183-.006-.262a2.133 2.133 0 0 0-.138-.663 1.584 1.584 0 0 0-.344-.537 1.562 1.562 0 0 0-.562-.363 2.185 2.185 0 0 0-.794-.131 2.13 2.13 0 0 0-.8.137 1.56 1.56 0 0 0-.562.363c-.15.15-.265.33-.344.537Zm7.333 3.4a.226.226 0 0 1-.163-.057 1.175 1.175 0 0 1-.08-.087l-1.75-2.6v2.575a.162.162 0 0 1-.05.119.162.162 0 0 1-.12.05h-.506a.162.162 0 0 1-.119-.05.162.162 0 0 1-.05-.12v-4.037c0-.046.017-.085.05-.118a.162.162 0 0 1 .12-.05h.437c.07 0 .125.018.162.056.038.037.065.066.082.087l1.75 2.6v-2.575c0-.046.016-.085.05-.118a.162.162 0 0 1 .118-.05h.507c.045 0 .085.016.118.05.034.033.05.072.05.118v4.038a.162.162 0 0 1-.05.119.162.162 0 0 1-.118.05h-.438Zm-4.927-3.407c.18.163.277.394.294.694a10.225 10.225 0 0 1 0 1.056c-.017.3-.115.531-.294.694-.175.162-.408.244-.7.244s-.527-.082-.706-.244c-.175-.162-.27-.394-.288-.694a10.225 10.225 0 0 1 0-1.056c.017-.3.113-.531.288-.694.18-.166.415-.25.706-.25.292 0 .525.084.7.25Z" fill="#6E7480"/></svg>