<svg width="24" height="24" fill="none" xmlns="http://www.w3.org/2000/svg"><path fill-rule="evenodd" clip-rule="evenodd" d="M7 3.75A1.25 1.25 0 0 0 5.75 5v5.436h-1.5V5A2.75 2.75 0 0 1 7 2.25h7c.203 0 .387.08.522.212l.008.008 5 5c.136.135.22.323.22.53v2.436h-1.5V8.75H15A1.75 1.75 0 0 1 13.25 7V3.75H7ZM14.75 7V4.81l2.44 2.44H15a.25.25 0 0 1-.25-.25Zm5 11.436V19A2.75 2.75 0 0 1 17 21.75H7A2.75 2.75 0 0 1 4.25 19v-.564h1.5V19A1.25 1.25 0 0 0 7 20.25h10A1.25 1.25 0 0 0 18.25 19v-.564h1.5ZM1 11.936a1 1 0 0 1 1-1h20a1 1 0 0 1 1 1v5a1 1 0 0 1-1 1H2a1 1 0 0 1-1-1v-5Zm3.927 1.142a2.51 2.51 0 0 0-.147.735l-.014.294v.665l.014.294c.014.261.063.509.147.742.09.229.217.43.385.602.168.168.378.301.63.399.252.098.551.147.896.147.341 0 .637-.049.89-.147a1.79 1.79 0 0 0 .636-.399c.168-.173.294-.373.378-.602.09-.233.14-.48.154-.742a5.64 5.64 0 0 0 .007-.294 7.585 7.585 0 0 0 0-.665 5.64 5.64 0 0 0-.007-.294 2.387 2.387 0 0 0-.154-.742 1.773 1.773 0 0 0-.385-.602 1.748 1.748 0 0 0-.63-.406 2.447 2.447 0 0 0-.889-.147c-.345 0-.644.051-.896.154a1.748 1.748 0 0 0-.63.406 1.687 1.687 0 0 0-.385.602Zm7.542-1.036a2.478 2.478 0 0 0-.826-.126 2.35 2.35 0 0 0-.736.112 1.84 1.84 0 0 0-.58.294 1.383 1.383 0 0 0-.386.455c-.093.177-.14.371-.14.581 0 .21.028.392.084.546.056.15.14.28.252.392.117.112.262.208.434.287.178.075.383.14.617.196.256.065.482.119.678.161.197.042.36.086.49.133a.787.787 0 0 1 .302.168c.065.065.098.15.098.252a.42.42 0 0 1-.091.273.819.819 0 0 1-.238.182 1.346 1.346 0 0 1-.343.105 2.823 2.823 0 0 1-.406.028c-.178 0-.327-.014-.449-.042a1.24 1.24 0 0 1-.293-.119.648.648 0 0 1-.19-.161 1.337 1.337 0 0 1-.119-.182.317.317 0 0 0-.104-.126.328.328 0 0 0-.182-.042h-.49a.206.206 0 0 0-.14.056.15.15 0 0 0-.05.133c.014.205.077.392.19.56.111.168.258.313.44.434.187.117.4.208.637.273.238.06.488.091.75.091.312 0 .595-.037.846-.112a2.07 2.07 0 0 0 .638-.301 1.27 1.27 0 0 0 .539-1.05c0-.191-.033-.362-.099-.511-.06-.15-.156-.28-.287-.392a1.54 1.54 0 0 0-.496-.294 4.173 4.173 0 0 0-.722-.217 28.441 28.441 0 0 1-.643-.147 2.647 2.647 0 0 1-.42-.133.595.595 0 0 1-.225-.175.51.51 0 0 1-.063-.266c0-.089.024-.168.07-.238a.569.569 0 0 1 .19-.175.92.92 0 0 1 .287-.112c.112-.028.228-.042.35-.042.28 0 .49.044.63.133a.877.877 0 0 1 .322.301.576.576 0 0 0 .104.126.328.328 0 0 0 .183.042h.49a.195.195 0 0 0 .133-.049.16.16 0 0 0 .055-.14 1.02 1.02 0 0 0-.14-.427 1.303 1.303 0 0 0-.357-.42 2.043 2.043 0 0 0-.595-.315Zm4.469 2.443 1.33-2.31.09-.112c.047-.051.117-.077.21-.077h.476c.052 0 .096.019.133.056a.181.181 0 0 1 .056.133v4.522a.181.181 0 0 1-.056.133.182.182 0 0 1-.133.056h-.567a.182.182 0 0 1-.133-.056.182.182 0 0 1-.056-.133V13.96l-.91 1.575a.69.69 0 0 1-.098.119.233.233 0 0 1-.16.056h-.364a.234.234 0 0 1-.162-.056.695.695 0 0 1-.098-.119l-.91-1.575v2.737a.181.181 0 0 1-.056.133.182.182 0 0 1-.132.056h-.567a.182.182 0 0 1-.133-.056.182.182 0 0 1-.056-.133v-4.522a.18.18 0 0 1 .056-.133.182.182 0 0 1 .133-.056h.476c.093 0 .16.026.202.077.047.051.08.089.098.112l1.33 2.31Zm-9.316-1.414c.201.182.31.441.33.777a11.876 11.876 0 0 1-.001 1.183c-.018.336-.128.595-.329.777-.196.182-.457.273-.784.273-.326 0-.59-.091-.79-.273-.197-.182-.304-.441-.323-.777a11.62 11.62 0 0 1 0-1.183c.02-.336.126-.595.322-.777.201-.187.465-.28.791-.28.327 0 .588.093.784.28Z" fill="#6E7480"/></svg>