<svg width="24" height="24" fill="none" xmlns="http://www.w3.org/2000/svg"><path fill-rule="evenodd" clip-rule="evenodd" d="M7 3.75A1.25 1.25 0 0 0 5.75 5v5.436h-1.5V5A2.75 2.75 0 0 1 7 2.25h7c.203 0 .387.08.522.212l.008.008 5 5c.136.135.22.323.22.53v2.436h-1.5V8.75H15A1.75 1.75 0 0 1 13.25 7V3.75H7ZM14.75 7V4.81l2.44 2.44H15a.25.25 0 0 1-.25-.25Zm5 11.436V19A2.75 2.75 0 0 1 17 21.75H7A2.75 2.75 0 0 1 4.25 19v-.564h1.5V19A1.25 1.25 0 0 0 7 20.25h10A1.25 1.25 0 0 0 18.25 19v-.564h1.5ZM1 11.936a1 1 0 0 1 1-1h20a1 1 0 0 1 1 1v5a1 1 0 0 1-1 1H2a1 1 0 0 1-1-1v-5Zm7.496 4.887c.042.042.102.063.182.063h.49a.182.182 0 0 0 .133-.056.182.182 0 0 0 .056-.133v-4.522a.182.182 0 0 0-.056-.133.181.181 0 0 0-.133-.056H8.6a.181.181 0 0 0-.133.056.182.182 0 0 0-.056.133v2.884l-1.96-2.912a1.305 1.305 0 0 0-.091-.098c-.042-.042-.103-.063-.182-.063h-.49a.181.181 0 0 0-.133.056.182.182 0 0 0-.056.133v4.522a.18.18 0 0 0 .056.133.182.182 0 0 0 .133.056h.567a.182.182 0 0 0 .133-.056.182.182 0 0 0 .056-.133v-2.884l1.96 2.912c.018.023.049.056.09.098Zm5.488-.756a.182.182 0 0 0-.133-.056h-2.317v-1.162h2.107a.182.182 0 0 0 .133-.056.182.182 0 0 0 .056-.133v-.497a.182.182 0 0 0-.056-.133.182.182 0 0 0-.133-.056h-2.107v-1.113h2.261a.182.182 0 0 0 .133-.056.182.182 0 0 0 .056-.133v-.497a.182.182 0 0 0-.056-.133.182.182 0 0 0-.133-.056h-3.017a.181.181 0 0 0-.133.056.181.181 0 0 0-.056.133v4.522c0 .051.019.096.056.133a.182.182 0 0 0 .133.056h3.073a.182.182 0 0 0 .133-.056.182.182 0 0 0 .056-.133V16.2a.182.182 0 0 0-.056-.133Zm4.327-4.081c.052 0 .096.019.133.056a.182.182 0 0 1 .056.133v.497a.182.182 0 0 1-.056.133.182.182 0 0 1-.133.056h-1.26v3.836a.182.182 0 0 1-.056.133.182.182 0 0 1-.133.056h-.567a.182.182 0 0 1-.133-.056.182.182 0 0 1-.056-.133v-3.836h-1.26a.182.182 0 0 1-.133-.056.182.182 0 0 1-.056-.133v-.497c0-.051.019-.096.056-.133a.181.181 0 0 1 .133-.056h3.465Z" fill="#6E7480"/></svg>