<svg width="24" height="24" fill="none" xmlns="http://www.w3.org/2000/svg"><path fill-rule="evenodd" clip-rule="evenodd" d="M12 2.25a.75.75 0 0 1 .75.75v1.286a7.752 7.752 0 0 1 6.964 6.964H21a.75.75 0 0 1 0 1.5h-1.286a7.752 7.752 0 0 1-6.964 6.964V21a.75.75 0 0 1-1.5 0v-1.286a7.752 7.752 0 0 1-6.964-6.964H3a.75.75 0 0 1 0-1.5h1.286a7.752 7.752 0 0 1 6.964-6.964V3a.75.75 0 0 1 .75-.75ZM5.75 12a6.25 6.25 0 1 0 12.5 0 6.25 6.25 0 0 0-12.5 0ZM12 10.5a1.5 1.5 0 1 0 0 3 1.5 1.5 0 0 0 0-3Z" fill="#6E7480"/></svg>