<svg width="24" height="24" fill="none" xmlns="http://www.w3.org/2000/svg"><path fill-rule="evenodd" clip-rule="evenodd" d="M16 3.25a.75.75 0 0 0 0 1.5h2.19l-3.72 3.72a.75.75 0 1 0 1.06 1.06l3.72-3.72V8a.75.75 0 1 0 1.5 0V4a.746.746 0 0 0-.444-.685A.748.748 0 0 0 20 3.25h-4ZM4.75 16a.75.75 0 0 0-1.5 0v4a.748.748 0 0 0 .75.75h4a.75.75 0 0 0 0-1.5H5.81l3.72-3.72a.75.75 0 0 0-1.06-1.06l-3.72 3.72V16ZM20 15.25a.75.75 0 0 1 .75.75v4a.747.747 0 0 1-.75.75h-4a.75.75 0 0 1 0-1.5h2.19l-3.72-3.72a.75.75 0 0 1 1.06-1.06l3.72 3.72V16a.75.75 0 0 1 .75-.75ZM3.307 3.713A.748.748 0 0 0 3.25 4v4a.75.75 0 0 0 1.5 0V5.81l3.72 3.72a.75.75 0 0 0 1.06-1.06L5.81 4.75H8a.75.75 0 0 0 0-1.5H4a.748.748 0 0 0-.529.218l-.001.002-.002.001a.748.748 0 0 0-.161.242Z" fill="#6E7480"/></svg>