<svg width="24" height="24" fill="none" xmlns="http://www.w3.org/2000/svg"><path fill-rule="evenodd" clip-rule="evenodd" d="M4.5 6.25a.75.75 0 0 0 0 1.5H5a.75.75 0 0 0 0-1.5h-.5Zm4 0a.75.75 0 0 0 0 1.5h11a.75.75 0 0 0 0-1.5h-11Zm0 5a.75.75 0 0 0 0 1.5h11a.75.75 0 0 0 0-1.5h-11ZM7.75 17a.75.75 0 0 1 .75-.75h11a.75.75 0 0 1 0 1.5h-11a.75.75 0 0 1-.75-.75Zm-4-5a.75.75 0 0 1 .75-.75H5a.75.75 0 0 1 0 1.5h-.5a.75.75 0 0 1-.75-.75Zm.75 4.25a.75.75 0 0 0 0 1.5H5a.75.75 0 0 0 0-1.5h-.5Z" fill="#6E7480"/></svg>