<svg width="24" height="24" fill="none" xmlns="http://www.w3.org/2000/svg"><path fill-rule="evenodd" clip-rule="evenodd" d="M12.75 3a.75.75 0 0 0-1.5 0v3a.75.75 0 0 0 1.5 0V3Zm6.18 3.13a.75.75 0 0 0-1.06-1.06l-2.15 2.15a.75.75 0 0 0 1.06 1.06l2.15-2.15ZM17.25 12a.75.75 0 0 1 .75-.75h3a.75.75 0 0 1 0 1.5h-3a.75.75 0 0 1-.75-.75Zm-.47 3.72a.75.75 0 1 0-1.06 1.06l2.15 2.15a.75.75 0 1 0 1.06-1.06l-2.15-2.15ZM12 17.25a.75.75 0 0 1 .75.75v3a.75.75 0 0 1-1.5 0v-3a.75.75 0 0 1 .75-.75Zm-3.72-.47a.75.75 0 1 0-1.06-1.06l-2.15 2.15a.75.75 0 1 0 1.06 1.06l2.15-2.15ZM2.25 12a.75.75 0 0 1 .75-.75h3a.75.75 0 0 1 0 1.5H3a.75.75 0 0 1-.75-.75Zm3.88-6.93a.75.75 0 1 0-1.06 1.06l2.15 2.15a.75.75 0 0 0 1.06-1.06L6.13 5.07Z" fill="#6E7480"/></svg>