<svg width="24" height="24" fill="none" xmlns="http://www.w3.org/2000/svg"><path fill-rule="evenodd" clip-rule="evenodd" d="M12.391 2.258a9.93 9.93 0 0 0-.782 0 .752.752 0 0 0-.297.016C6.248 2.627 2.25 6.847 2.25 12c0 5.154 3.998 9.373 9.062 9.726a.76.76 0 0 0 .297.016 9.97 9.97 0 0 0 .782 0c.1.015.2.009.297-.016 5.064-.353 9.062-4.572 9.062-9.726 0-5.153-3.998-9.373-9.062-9.726a.752.752 0 0 0-.297-.016Zm-.469 1.492a8.45 8.45 0 0 1 .156 0 16.249 16.249 0 0 1 1.811 4.5h-3.778a16.252 16.252 0 0 1 1.811-4.5Zm-2.093 6h4.342a16.257 16.257 0 0 1 0 4.5H9.83a16.249 16.249 0 0 1 0-4.5Zm-1.514 4.5a17.75 17.75 0 0 1 0-4.5H4.061A8.256 8.256 0 0 0 3.75 12c0 .78.108 1.535.31 2.25h4.255Zm-3.665 1.5h3.923c.32 1.482.83 2.92 1.518 4.278A8.266 8.266 0 0 1 4.65 15.75Zm5.46 0h3.78a16.247 16.247 0 0 1-1.812 4.5 6.76 6.76 0 0 1-.156 0 16.25 16.25 0 0 1-1.811-4.5Zm5.317 0c-.32 1.482-.83 2.92-1.518 4.278a8.266 8.266 0 0 0 5.441-4.278h-3.923Zm4.512-1.5A8.26 8.26 0 0 0 20.25 12a8.26 8.26 0 0 0-.31-2.25h-4.255a17.737 17.737 0 0 1 0 4.5h4.254ZM10.091 3.972A17.75 17.75 0 0 0 8.573 8.25H4.65a8.266 8.266 0 0 1 5.441-4.278Zm5.336 4.278h3.923a8.266 8.266 0 0 0-5.442-4.278 17.746 17.746 0 0 1 1.52 4.278Z" fill="#6E7480"/></svg>