<svg width="24" height="24" fill="none" xmlns="http://www.w3.org/2000/svg"><path fill-rule="evenodd" clip-rule="evenodd" d="M4.5 5.5a2.75 2.75 0 0 1 5.5 0v.12l11.631-1.86a.75.75 0 0 1 .869.74v3a.75.75 0 0 1-.631.74L10 10.14v7.61h.25a.75.75 0 0 1 .75.75v2a.75.75 0 0 1-.75.75h-6a.75.75 0 0 1-.75-.75v-2a.75.75 0 0 1 .75-.75h.25V5.5ZM6 17.75V5.5a1.25 1.25 0 1 1 2.5 0v12.25H6Zm7.74-9.728 2.903-.464.66-1.587-2.901.464-.661 1.587ZM21 6.86l-3.197.512.662-1.587L21 5.38v1.48Zm-8.42 1.348.661-1.587L10 7.14v1.48l2.58-.412Zm-5.308.541a.75.75 0 1 0 0-1.498.75.75 0 0 0 0 1.498Z" fill="#6E7480"/></svg>