<svg width="24" height="24" fill="none" xmlns="http://www.w3.org/2000/svg"><path fill-rule="evenodd" clip-rule="evenodd" d="M2.374 4.641a.75.75 0 0 0 .206 1.486l3.337-.462L8.81 16.46a3.251 3.251 0 1 0 4.79 3.027l8.676-2.325a.75.75 0 0 0-.388-1.449l-8.562 2.294a3.253 3.253 0 0 0-3.068-1.935L7.26 4.88a.755.755 0 0 0-.043-.118.75.75 0 0 0-.85-.672l-3.993.552Zm7.93.975a.75.75 0 0 0-.53.919l1.294 4.83 1.294 4.829a.75.75 0 0 0 .918.53l5.796-1.553a.75.75 0 0 0 .53-.918l-1.294-4.83a.75.75 0 0 0-.918-.53l-1.208.323-1.1-4.105a.75.75 0 0 0-.918-.53l-3.864 1.035Zm4.433 3.989-.905-3.381-2.415.647.906 3.38 2.414-.646ZM12.711 11.7l.906 3.381 4.346-1.164-.905-3.381-1.208.323-3.14.841ZM9.9 17.63a1.75 1.75 0 1 0 .906 3.38 1.75 1.75 0 0 0-.906-3.38Z" fill="#6E7480"/></svg>