<svg width="24" height="24" fill="none" xmlns="http://www.w3.org/2000/svg"><path fill-rule="evenodd" clip-rule="evenodd" d="M12.237 3.95a.271.271 0 0 0-.474 0L3.286 19.207c-.1.181.03.403.237.403h16.954a.271.271 0 0 0 .238-.403L12.237 3.95Zm-1.785-.73c.675-1.214 2.422-1.214 3.097 0l8.477 15.26a1.771 1.771 0 0 1-1.549 2.631H3.523a1.771 1.771 0 0 1-1.549-2.631l8.478-15.26ZM12 8.75a.75.75 0 0 1 .75.75v5a.75.75 0 0 1-1.5 0v-5a.75.75 0 0 1 .75-.75Zm0 7.778a.75.75 0 1 0 0 1.5h.01a.75.75 0 0 0 0-1.5H12Z" fill="#6E7480"/></svg>