<svg width="24" height="24" fill="none" xmlns="http://www.w3.org/2000/svg"><path fill-rule="evenodd" clip-rule="evenodd" d="M12.22 5.158a.75.75 0 0 1 .75-.75h2.44a.75.75 0 0 1 .736.894l-.88 4.509 1.884 2.07a4.165 4.165 0 1 1-1.114 1.005l-1.592-1.75-4.564 4.777a.75.75 0 0 1-.542.232h-.57a4.167 4.167 0 1 1-2.584-4.598l1.18-1.74v-.971h-.226a.75.75 0 1 1 0-1.5H9.09a.75.75 0 0 1 0 1.5h-.226v.451h4.975l.66-3.379H12.97a.75.75 0 0 1-.75-.75ZM5.308 12.84a2.665 2.665 0 1 0 1.924 3.305h-2.75a.75.75 0 0 1-.621-1.171l1.447-2.134Zm1.905 1.805H5.896l.709-1.045c.276.293.487.65.608 1.045Zm1.543 0a4.16 4.16 0 0 0-1.296-2.306l1.052-1.552h4.19l-3.685 3.858h-.26ZM18.781 15.9l-1.71-1.878a2.665 2.665 0 1 0 1.117-1l1.702 1.868a.75.75 0 0 1-1.109 1.01Z" fill="#6E7480"/></svg>