<svg width="24" height="24" fill="none" xmlns="http://www.w3.org/2000/svg"><path fill-rule="evenodd" clip-rule="evenodd" d="M10.065 6.034A3.737 3.737 0 0 1 11.5 5.75h.125a.755.755 0 0 0 .125-.01c.04.006.082.01.125.01H12c.578 0 1.127.115 1.627.322a.75.75 0 1 0 .574-1.385A5.735 5.735 0 0 0 12 4.25h-.125a.755.755 0 0 0-.125.01.755.755 0 0 0-.125-.01H11.5c-.71 0-1.39.142-2.01.399a.75.75 0 0 0 .575 1.385Zm-2.03 2.03a.75.75 0 0 0-1.386-.574 5.23 5.23 0 0 0-.347 1.267 5.305 5.305 0 0 0-1.764.398.75.75 0 0 0 .574 1.385 3.81 3.81 0 0 1 1.465-.29h.106a.753.753 0 0 0 .105-.007c.035.005.07.007.106.007H7a.75.75 0 0 0 .75-.75c0-.51.101-.994.284-1.435Zm9.278-.265a.75.75 0 0 0-1.385.574c.207.5.322 1.05.322 1.627v.25c0 .088.015.172.043.25a.747.747 0 0 0-.043.25V11c0 .414.336.75.75.75h.302c.108 0 .21-.023.302-.063.093.04.195.063.302.063h.302c.414 0 .807.082 1.164.23a.75.75 0 1 0 .575-1.385 4.53 4.53 0 0 0-1.739-.345h-.302a.754.754 0 0 0-.156.016V10c0-.778-.155-1.522-.437-2.201ZM2.635 11.632a.75.75 0 0 1 .405.98 3.81 3.81 0 0 0-.29 1.465c0 .431.086.841.24 1.214a.75.75 0 1 1-1.385.575 4.661 4.661 0 0 1-.355-1.79c0-.72.144-1.41.405-2.038a.75.75 0 0 1 .98-.406Zm1.094 5.783a.75.75 0 0 1 .98-.405c.373.154.782.24 1.214.24h.2c.069 0 .136.01.2.027a.752.752 0 0 1 .2-.027h1.734a.75.75 0 0 1 0 1.5H6.522a.752.752 0 0 1-.2-.027.752.752 0 0 1-.2.027h-.199a4.662 4.662 0 0 1-1.789-.355.75.75 0 0 1-.405-.98Zm6.847.585a.75.75 0 0 1 .75-.75h3.07a.75.75 0 0 1 0 1.5h-3.07a.75.75 0 0 1-.75-.75Zm6.14 0a.75.75 0 0 1 .75-.75H19c.306 0 .597-.06.861-.17a.75.75 0 1 1 .575 1.385A3.743 3.743 0 0 1 19 18.75h-1.535a.75.75 0 0 1-.75-.75Zm4.709-5.352a.75.75 0 0 1 .98.405 4.53 4.53 0 0 1 .345 1.739v.052c0 .017 0 .035-.002.052a.75.75 0 0 1 .002.052V15c0 .507-.101.992-.285 1.436a.75.75 0 0 1-1.385-.575c.11-.264.17-.555.17-.861v-.052c0-.018 0-.035.002-.052a.746.746 0 0 1-.002-.052v-.052a3.03 3.03 0 0 0-.23-1.164.75.75 0 0 1 .405-.98Z" fill="#6E7480"/></svg>