<svg width="24" height="24" fill="none" xmlns="http://www.w3.org/2000/svg"><path fill-rule="evenodd" clip-rule="evenodd" d="M22.53 2.53a.75.75 0 0 0-1.06-1.06l-20 20a.75.75 0 1 0 1.06 1.06l20-20ZM15 6.141l.061-.03-1.159 1.158L9.75 5.193v6.229l-1.5 1.5V5.193l-4.5 2.25v9.979l-1.5 1.5V6.979a.75.75 0 0 1 .415-.67L8.65 3.315a.747.747 0 0 1 .698 0L15 6.141Zm-.75 12.625-4.125-2.063-1.118 1.119 5.644 2.822a.746.746 0 0 0 .698 0l5.986-2.994a.75.75 0 0 0 .415-.67V5.078l-1.5 1.5v9.938l-4.5 2.25v-7.688l-1.5 1.5v6.188Z" fill="#6E7480"/></svg>