<svg width="24" height="24" fill="none" xmlns="http://www.w3.org/2000/svg"><path fill-rule="evenodd" clip-rule="evenodd" d="M12 21c2.215 0 4.244-.8 5.812-2.128L12 13.061l-5.812 5.811A8.964 8.964 0 0 0 12 21Zm-6.872-3.188L10.939 12 5.128 6.188A8.964 8.964 0 0 0 3 12c0 2.215.8 4.244 2.128 5.812ZM12 10.939 6.188 5.128A8.964 8.964 0 0 1 12 3c2.215 0 4.244.8 5.812 2.128L12 10.939ZM13.06 12l5.812-5.812A8.964 8.964 0 0 1 21 12c0 2.215-.8 4.244-2.128 5.812L13.061 12ZM12 23c6.075 0 11-4.925 11-11S18.075 1 12 1 1 5.925 1 12s4.925 11 11 11Z" fill="#6E7480"/></svg>