<svg width="24" height="24" fill="none" xmlns="http://www.w3.org/2000/svg"><path fill-rule="evenodd" clip-rule="evenodd" d="M2.254 5.924a.751.751 0 0 0-.004.09v12.973a.746.746 0 0 0 .371.66.745.745 0 0 0 .765-.004 8.25 8.25 0 0 1 8.228 0 .746.746 0 0 0 .772 0 8.25 8.25 0 0 1 8.228 0 .746.746 0 0 0 .765.004.744.744 0 0 0 .371-.66V6.014a.746.746 0 0 0-.387-.671A9.75 9.75 0 0 0 12 5.145a9.75 9.75 0 0 0-9.362.198.75.75 0 0 0-.384.581Zm17.996.521a8.25 8.25 0 0 0-7.5 0v11.349a9.75 9.75 0 0 1 7.5 0V6.445Zm-9 0v11.349a9.75 9.75 0 0 0-7.5 0V6.445a8.25 8.25 0 0 1 7.5 0Z" fill="#6E7480"/></svg>