<svg width="24" height="24" fill="none" xmlns="http://www.w3.org/2000/svg"><path fill-rule="evenodd" clip-rule="evenodd" d="M13.043 6.938a2.083 2.083 0 1 0 0-4.166 2.083 2.083 0 0 0 0 4.166Zm-1.224.314a.75.75 0 0 1 .712.198l3 3 2.956.985a.75.75 0 0 1-.474 1.423l-3.125-1.042a.75.75 0 0 1-.293-.181l-2.094-2.094-.733 4.394 3.325 2.85a.75.75 0 0 1 .251.446l.521 3.125a.75.75 0 0 1-1.48.246l-.475-2.856-3.44-2.947a.75.75 0 0 1-.251-.693l.854-5.121-2.776.694-1.922 2.883a.75.75 0 1 1-1.248-.832L7.21 8.605a.75.75 0 0 1 .442-.311l4.167-1.042Zm-1.302 9.51a.75.75 0 0 0-1.2-.9L6.192 20.03a.75.75 0 1 0 1.2.9l3.125-4.167Z" fill="#6E7480"/></svg>