<svg width="24" height="24" fill="none" xmlns="http://www.w3.org/2000/svg"><path fill-rule="evenodd" clip-rule="evenodd" d="M2.5 4.5a.75.75 0 0 1 .75-.75h3.5a.75.75 0 0 1 .75.75v15a.75.75 0 0 1-.75.75h-3.5a.75.75 0 0 1-.75-.75v-15Zm1.5.75v13.5h2V5.25H4Zm5.5-.75a.75.75 0 0 1 .75-.75h3.5a.75.75 0 0 1 .75.75v15a.75.75 0 0 1-.75.75h-3.5a.75.75 0 0 1-.75-.75v-15Zm1.5.75v13.5h2V5.25h-2Zm6.25-1.5a.75.75 0 0 0-.75.75v15c0 .414.336.75.75.75h3.5a.75.75 0 0 0 .75-.75v-15a.75.75 0 0 0-.75-.75h-3.5Zm.75 15V5.25h2v13.5h-2Z" fill="#6E7480"/></svg>