<svg width="24" height="24" fill="none" xmlns="http://www.w3.org/2000/svg"><path fill-rule="evenodd" clip-rule="evenodd" d="M12 4.75A3.25 3.25 0 0 0 8.75 8v1.25h6.5V8A3.25 3.25 0 0 0 12 4.75ZM7.25 8v1.25H7A2.75 2.75 0 0 0 4.25 12v6A2.75 2.75 0 0 0 7 20.75h10A2.75 2.75 0 0 0 19.75 18v-6A2.75 2.75 0 0 0 17 9.25h-.25V8a4.75 4.75 0 1 0-9.5 0ZM7 10.75h10c.69 0 1.25.56 1.25 1.25v6c0 .69-.56 1.25-1.25 1.25H7c-.69 0-1.25-.56-1.25-1.25v-6c0-.69.56-1.25 1.25-1.25Zm5 6a1.75 1.75 0 1 0 0-3.5 1.75 1.75 0 0 0 0 3.5Z" fill="#6E7480"/></svg>