<svg width="24" height="24" fill="none" xmlns="http://www.w3.org/2000/svg"><path fill-rule="evenodd" clip-rule="evenodd" d="M17.532 3.714a.75.75 0 0 1 .53.919l-.776 2.898a.75.75 0 0 1-1.45-.389l.777-2.897a.75.75 0 0 1 .919-.53ZM1.25 7A.75.75 0 0 1 2 6.25h7.5a.75.75 0 0 1 .586.281l3.774 4.719h.64A2.75 2.75 0 0 1 17.25 14v4a.75.75 0 0 1-.75.75h-1.354a2.751 2.751 0 0 1-5.292 0H2a.75.75 0 0 1 0-1.5h7.854a2.751 2.751 0 0 1 5.293 0h.603V14a1.25 1.25 0 0 0-1.25-1.25H2a.75.75 0 0 1 0-1.5h4.75v-3.5H2A.75.75 0 0 1 1.25 7Zm7 .75v3.5h3.69l-2.8-3.5h-.89Zm4.25 9a1.25 1.25 0 1 0 0 2.5 1.25 1.25 0 0 0 0-2.5Zm5.186-7.464a.75.75 0 0 0 .75 1.299l3.464-2a.75.75 0 0 0-.75-1.3l-3.464 2Zm2.069 2.523a.75.75 0 1 0-.388 1.449l2.897.776a.75.75 0 0 0 .389-1.449l-2.898-.776Z" fill="#6E7480"/></svg>