<svg width="24" height="24" fill="none" xmlns="http://www.w3.org/2000/svg"><path fill-rule="evenodd" clip-rule="evenodd" d="M5.409 6.409A2.25 2.25 0 0 1 7 5.75h10A2.25 2.25 0 0 1 19.25 8v6A2.25 2.25 0 0 1 17 16.25H8a.75.75 0 0 0-.53.22l-2.72 2.72V8c0-.597.237-1.169.659-1.591ZM7 4.25A3.75 3.75 0 0 0 3.25 8v13a.75.75 0 0 0 1.28.53l3.78-3.78H17A3.75 3.75 0 0 0 20.75 14V8A3.75 3.75 0 0 0 17 4.25H7ZM12.75 11a.75.75 0 0 0-1.5 0v.01a.75.75 0 0 0 1.5 0V11ZM8 10.25a.75.75 0 0 1 .75.75v.01a.75.75 0 0 1-1.5 0V11a.75.75 0 0 1 .75-.75Zm8.75.75a.75.75 0 0 0-1.5 0v.01a.75.75 0 0 0 1.5 0V11Z" fill="#6E7480"/></svg>