<svg width="24" height="24" fill="none" xmlns="http://www.w3.org/2000/svg"><path d="M21.5 2.5h-19v19h19v-19Z" stroke="#6E7480" stroke-width="1.5"/><path d="M10.764 15.062a.86.86 0 0 0-.86.86v1.719c0 .475.385.86.86.86h6.877a.86.86 0 0 0 .86-.86v-6.877a.86.86 0 0 0-.86-.86h-1.72a.86.86 0 0 0-.859.86v3.868a.43.43 0 0 1-.43.43h-3.868Z" fill="#6E7480"/><rect x="5.5" y="5.5" width="8.598" height="8.598" rx="1" fill="#6E7480"/><rect x="20" y="1" width="3" height="3" rx=".5" fill="#6E7480"/><rect x="20" y="20" width="3" height="3" rx=".5" fill="#6E7480"/><rect x="1" y="20" width="3" height="3" rx=".5" fill="#6E7480"/><rect x="1" y="1" width="3" height="3" rx=".5" fill="#6E7480"/></svg>