<svg width="24" height="24" fill="none" xmlns="http://www.w3.org/2000/svg"><path d="M22.53 3.22a.75.75 0 0 1 0 1.06l-16.5 16.5a.75.75 0 0 1-1.06-1.06l16.5-16.5a.75.75 0 0 1 1.06 0Z" fill="#6E7480"/><path fill-rule="evenodd" clip-rule="evenodd" d="M3.81 6.398a.75.75 0 0 0-1.085.67v6.918a.75.75 0 0 0 1.085.671l2.543-1.27v1.268c0 .414.335.75.75.75h1.121l1.5-1.5H7.853V7.15h8.626l1.5-1.5H7.103a.75.75 0 0 0-.75.75v1.27L3.81 6.399Zm.415 6.375v-4.49l1.958.98v2.532l-1.958.978Z" fill="#6E7480"/><path d="M13.124 15.405h-.657l1.5-1.5h5.807V8.097l1.5-1.5v8.058a.75.75 0 0 1-.75.75h-5.808a19.771 19.771 0 0 0-.601 1.908c-.165.642-.256 1.166-.256 1.469 0 .344.088.814.425 1.192.32.36.982.764 2.4.764a.75.75 0 0 1 0 1.5c-1.71 0-2.836-.498-3.52-1.266-.668-.75-.805-1.633-.805-2.19 0-.505.133-1.184.303-1.843.13-.506.292-1.038.462-1.534Z" fill="#6E7480"/></svg>