<svg width="24" height="24" fill="none" xmlns="http://www.w3.org/2000/svg"><path d="M4.385 5A1.392 1.392 0 0 0 3 6.4v11.2A1.392 1.392 0 0 0 4.385 19h15.23A1.393 1.393 0 0 0 21 17.6V6.4A1.394 1.394 0 0 0 19.615 5H4.385Zm13.616 2.1a1.4 1.4 0 1 1-1.282.866 1.393 1.393 0 0 1 1.282-.866ZM7.846 9.6a1.66 1.66 0 0 1 1.184.5l2.258 2.283.712.717.8.809a.741.741 0 0 0 1.056 0 .764.764 0 0 0 0-1.072l-.8-.805.526-.532a1.661 1.661 0 0 1 2.369 0l3.469 3v3H4.58v-5.8l2.082-1.6a1.66 1.66 0 0 1 1.184-.5Z" fill="#6E7480"/></svg>