<svg width="24" height="24" fill="none" xmlns="http://www.w3.org/2000/svg"><path fill-rule="evenodd" clip-rule="evenodd" d="M7.008 4.16a.75.75 0 0 1 .248-.043h14.237a.75.75 0 0 1 .248.042 1.846 1.846 0 0 1 .922 2.768.75.75 0 0 1-.068.087l-5.279 5.808v7.377a.75.75 0 0 1-1.2.6l-4.38-3.287a.75.75 0 0 1-.3-.6v-4.086L6.153 7.014a.75.75 0 0 1-.068-.087 1.845 1.845 0 0 1 .923-2.768Zm5.697 7.832a.748.748 0 0 1 .231.541v4.005l2.88 2.16V12.58a.748.748 0 0 1 .193-.551l5.428-5.97a.345.345 0 0 0-.11-.442H7.421a.345.345 0 0 0-.11.441l5.394 5.934Zm-7.455-.743A.75.75 0 0 1 6 12v2.75h2.75a.75.75 0 0 1 0 1.5H6V19a.75.75 0 0 1-1.5 0v-2.75H1.75a.75.75 0 0 1 0-1.5H4.5V12a.75.75 0 0 1 .75-.75Z" fill="#6E7480"/></svg>