<svg width="24" height="24" fill="none" xmlns="http://www.w3.org/2000/svg"><path fill-rule="evenodd" clip-rule="evenodd" d="M7.972 4.23a7.25 7.25 0 0 1 11.139 7.442c-.257 1.293-1.01 2.341-1.921 3.607l-.13.18-4.201 5.192a1.25 1.25 0 0 1-1.717 0L6.94 15.46l-.13-.18c-.91-1.267-1.664-2.315-1.92-3.608A7.25 7.25 0 0 1 7.971 4.23ZM12 1.508a8.75 8.75 0 0 0-8.582 10.457c.323 1.624 1.261 2.925 2.126 4.124a123.443 123.443 0 0 1 .216.297l4.244 5.243.053.06a2.75 2.75 0 0 0 3.887 0 .757.757 0 0 0 .053-.06l4.243-5.243a140.262 140.262 0 0 1 .216-.298c.865-1.198 1.803-2.499 2.126-4.123A8.75 8.75 0 0 0 12 1.508Zm-2.25 8.75a2.25 2.25 0 1 1 4.5 0 2.25 2.25 0 0 1-4.5 0ZM12 6.508a3.75 3.75 0 1 0 0 7.5 3.75 3.75 0 0 0 0-7.5Z" fill="#6E7480"/></svg>