<svg width="24" height="24" fill="none" xmlns="http://www.w3.org/2000/svg"><path fill-rule="evenodd" clip-rule="evenodd" d="M12 5.85c-2.747 0-5.166 1.482-6.843 2.872A19.325 19.325 0 0 0 2.6 11.295l-.146.184-.04.05-.01.015-.003.005-.002.002a.75.75 0 0 0 0 .897l.6-.448c-.6.448-.6.449-.6.45h.002l.003.005.01.014a5.805 5.805 0 0 0 .186.235 19.331 19.331 0 0 0 2.557 2.573C6.834 16.667 9.253 18.15 12 18.15c2.746 0 5.166-1.483 6.842-2.873a19.324 19.324 0 0 0 2.557-2.573 11.7 11.7 0 0 0 .173-.217l.013-.018.01-.014.004-.005.002-.001a.75.75 0 0 0 0-.898L21 12l.6-.45v-.001l-.004-.005-.011-.014c-.01-.012-.022-.03-.04-.051a16.746 16.746 0 0 0-.695-.825 19.317 19.317 0 0 0-2.008-1.932C17.166 7.332 14.746 5.85 12 5.85ZM21 12l.6.449-.6-.45ZM3 12l-.6-.45c-.001 0-.001.001.6.45Zm1.265.342a16.505 16.505 0 0 1-.3-.342 17.829 17.829 0 0 1 2.15-2.123C7.695 8.567 9.775 7.35 12 7.35c2.224 0 4.305 1.217 5.885 2.527A17.83 17.83 0 0 1 20.035 12a17.843 17.843 0 0 1-2.15 2.123c-1.58 1.31-3.661 2.527-5.885 2.527-2.224 0-4.305-1.218-5.885-2.528a17.843 17.843 0 0 1-1.85-1.78ZM12 9a3 3 0 1 0 0 6 3 3 0 0 0 0-6Z" fill="#6E7480"/></svg>