<svg width="24" height="24" fill="none" xmlns="http://www.w3.org/2000/svg"><path fill-rule="evenodd" clip-rule="evenodd" d="M6.47 2.47a.75.75 0 0 1 1.06 0L12 6.94l1.97-1.97 1.5-1.5a3.578 3.578 0 1 1 5.06 5.06l-1.498 1.5h-.002v.002L17.06 12l4.47 4.47a.75.75 0 0 1 0 1.06l-4 4a.75.75 0 0 1-1.06 0l-2.5-2.5L12 17.06l-4.47 4.47a.75.75 0 0 1-.53.22H3a.75.75 0 0 1-.75-.75v-4a.75.75 0 0 1 .22-.53L6.94 12l-1.97-1.97-2.5-2.5a.75.75 0 0 1 0-1.06l4-4ZM13.06 16l1.44 1.44.97-.97a.75.75 0 1 1 1.06 1.06l-.97.97L17 19.94 19.94 17 16 13.06 13.06 16Zm2.41-4.53 1.97-1.97-2.94-2.94-1.968 1.969-.002.001-.001.002-3.997 3.997-.002.001-.001.002L4.03 17.03l2.94 2.94 4.5-4.5 4-4ZM10.94 8 8 10.94 6.56 9.5l.97-.97a.75.75 0 0 0-1.06-1.06l-.97.97L4.06 7 7 4.06 10.94 8Zm7.56.44L15.56 5.5l.97-.97a2.079 2.079 0 0 1 2.94 2.94l-.97.97Z" fill="#6E7480"/></svg>