<svg width="24" height="24" fill="none" xmlns="http://www.w3.org/2000/svg"><path fill-rule="evenodd" clip-rule="evenodd" d="M20.753 3.954a.724.724 0 0 0-1.048-.648l-5.47 2.734L8.78 3.312a.721.721 0 0 0-.674 0l-5.78 2.89a.724.724 0 0 0-.4.648v12.551a.724.724 0 0 0 1.048.648l5.469-2.735 1.967.984a8.905 8.905 0 0 1 0-1.619l-1.243-.622V5.125l4.345 2.173v3.669a6.38 6.38 0 0 1 1.448-.793V7.298l4.344-2.173v5.049c.514.199 1 .466 1.449.793V3.954ZM3.374 18.23V7.298l4.345-2.173v10.932L3.374 18.23Zm13.816-6.997a.81.81 0 0 1 .81.81v4.522l1.137-1.137a.81.81 0 0 1 1.145 1.145l-2.519 2.52a.81.81 0 0 1-1.145 0l-2.52-2.52a.81.81 0 0 1 1.146-1.145l1.137 1.137v-4.523a.81.81 0 0 1 .81-.81Zm-4.228 7.287a.81.81 0 0 0-1.62 0v1.26a2.07 2.07 0 0 0 2.07 2.069h7.557a2.069 2.069 0 0 0 2.07-2.07V18.52a.81.81 0 0 0-1.62 0v1.26a.45.45 0 0 1-.45.45h-7.557a.45.45 0 0 1-.45-.45v-1.26Z" fill="#6E7480"/></svg>