<svg width="24" height="24" fill="none" xmlns="http://www.w3.org/2000/svg"><path fill-rule="evenodd" clip-rule="evenodd" d="M7.868 3.807 10.53 6.47c.14.14.22.33.22.53v3a.75.75 0 0 1-.75.75H7a.75.75 0 0 1-.53-.22L3.807 7.868a5.25 5.25 0 0 0 7.37 5.955.75.75 0 0 1 .853.146l6 6a1.371 1.371 0 1 0 1.94-1.939l-6-6a.75.75 0 0 1-.147-.853 5.25 5.25 0 0 0-5.955-7.37Zm-1.691-.984a6.75 6.75 0 0 1 9.212 8.505l5.641 5.642a2.871 2.871 0 1 1-4.06 4.06l-5.642-5.64a6.75 6.75 0 0 1-8.505-9.213.75.75 0 0 1 1.207-.207l3.28 3.28h1.94V7.31L5.97 4.03a.75.75 0 0 1 .207-1.207Z" fill="#6E7480"/></svg>