<svg width="24" height="24" fill="none" xmlns="http://www.w3.org/2000/svg"><path fill-rule="evenodd" clip-rule="evenodd" d="M5 2.25a.75.75 0 0 0-.75.75v12c0 .414.336.75.75.75h14a.75.75 0 0 0 .75-.75V3a.75.75 0 0 0-.75-.75H5Zm.75 12V3.75h12.5v10.5H5.75Zm8.403-7.533c-.382-.325-.918-.487-1.609-.487h-2.293a.222.222 0 0 0-.162.068.222.222 0 0 0-.069.163v5.526c0 .063.023.117.069.163a.22.22 0 0 0 .162.068h.694a.222.222 0 0 0 .162-.068.222.222 0 0 0 .069-.163V10.08h1.368c.69 0 1.227-.166 1.609-.497.382-.33.573-.81.573-1.437s-.191-1.104-.573-1.429ZM12.502 9.01h-1.327V7.3h1.327c.325 0 .584.063.778.188.194.12.291.34.291.659 0 .32-.097.545-.29.676-.195.125-.454.188-.78.188Zm2.928 7.59c.207 0 .395.084.53.22L18.14 19a.75.75 0 0 1-1.06 1.06l-.9-.9v3.19a.75.75 0 0 1-1.5 0v-3.19l-.9.9A.75.75 0 0 1 12.72 19l2.18-2.18a.747.747 0 0 1 .53-.22Zm-6.33.22a.747.747 0 0 0-1.06 0L5.86 19a.75.75 0 0 0 1.06 1.06l.9-.9v3.19a.75.75 0 0 0 1.5 0v-3.19l.9.9A.75.75 0 0 0 11.28 19L9.1 16.82Z" fill="#6E7480"/></svg>