<svg width="24" height="24" fill="none" xmlns="http://www.w3.org/2000/svg"><path fill-rule="evenodd" clip-rule="evenodd" d="M2 3v18a1 1 0 0 0 1 1h18a1 1 0 0 0 1-1V3a1 1 0 0 0-1-1H3a1 1 0 0 0-1 1Zm13.59 4.396c-.702-.597-1.687-.896-2.954-.896H8.424a.408.408 0 0 0-.298.126.408.408 0 0 0-.126.298v10.152c0 .115.042.215.126.298a.408.408 0 0 0 .298.126h1.273a.408.408 0 0 0 .299-.126.408.408 0 0 0 .125-.298V13.57h2.515c1.267 0 2.252-.303 2.954-.911.702-.608 1.053-1.488 1.053-2.64 0-1.152-.351-2.027-1.053-2.624Zm-3.033 4.211h-2.436V8.464h2.436c.597 0 1.074.116 1.43.346.356.22.534.623.534 1.21s-.178 1-.534 1.241c-.356.23-.833.346-1.43.346Z" fill="#6E7480"/></svg>