<svg width="24" height="24" fill="none" xmlns="http://www.w3.org/2000/svg"><path fill-rule="evenodd" clip-rule="evenodd" d="M7.75 9.5a3.75 3.75 0 0 1 3.75-3.75h.5A4.25 4.25 0 0 1 16.25 10v1c0 .414.336.75.75.75h1.208a3.042 3.042 0 0 1 3.042 3.042V15A2.25 2.25 0 0 1 19 17.25H5.923a3.173 3.173 0 0 1-3.173-3.173 3.827 3.827 0 0 1 3.827-3.827H7a.75.75 0 0 0 .75-.75Zm-1.448-.743A5.251 5.251 0 0 1 11.5 4.25h.5A5.75 5.75 0 0 1 17.75 10v.25h.458a4.542 4.542 0 0 1 4.542 4.542V15A3.75 3.75 0 0 1 19 18.75H5.923a4.673 4.673 0 0 1-4.673-4.673 5.327 5.327 0 0 1 5.052-5.32Zm8.312 2.173a.75.75 0 1 0-1.228-.86l-2.988 4.268L8.53 12.47a.75.75 0 0 0-1.06 1.06l2.289 2.29a1 1 0 0 0 1.526-.134l3.33-4.756Z" fill="#6E7480"/></svg>