<svg width="24" height="24" fill="none" xmlns="http://www.w3.org/2000/svg"><path fill-rule="evenodd" clip-rule="evenodd" d="M15.03 3.47a.75.75 0 0 0-1.09 1.03l-3.355 3.355-3.848 1.443a.75.75 0 0 0-.267.172l-1.5 1.5a.75.75 0 0 0 0 1.06L7.94 15l-3.97 3.97a.75.75 0 1 0 1.06 1.06L9 16.06l2.97 2.97a.75.75 0 0 0 1.06 0l1.5-1.5a.748.748 0 0 0 .172-.267l1.443-3.848 3.356-3.355a.75.75 0 0 0 1.03-1.09l-.5-.5-4.5-4.5-.5-.5ZM15 5.56l-3.47 3.47a.75.75 0 0 1-.267.172l-3.848 1.443-.854.855 2.97 2.97 2.969 2.97.855-.856 1.443-3.847a.748.748 0 0 1 .172-.267L18.44 9 15 5.56Z" fill="#6E7480"/></svg>