<svg width="24" height="24" fill="none" xmlns="http://www.w3.org/2000/svg"><path fill-rule="evenodd" clip-rule="evenodd" d="M1.75 9.5a6.75 6.75 0 1 1 13.5 0 6.75 6.75 0 0 1-13.5 0ZM8.5 1.25a8.25 8.25 0 1 0 1.084 16.43 7.25 7.25 0 1 0 7.073-9.428A8.252 8.252 0 0 0 8.5 1.25Zm8.246 8.505A8.209 8.209 0 0 1 15.973 13h2.631c.059 0 .107.019.144.056a.195.195 0 0 1 .056.144v.64a.185.185 0 0 1-.056.136.195.195 0 0 1-.144.056h-2.312l-.12 1.176c.107-.07.237-.13.392-.184.16-.059.381-.088.664-.088.256 0 .499.043.728.128.235.08.443.2.624.36.181.16.323.352.424.576.107.219.16.47.16.752 0 .384-.09.723-.272 1.016-.181.288-.44.515-.776.68-.336.16-.736.24-1.2.24-.48 0-.883-.077-1.208-.232a1.816 1.816 0 0 1-.744-.608 1.537 1.537 0 0 1-.264-.8.163.163 0 0 1 .168-.168h.904c.064 0 .115.016.152.048a.247.247 0 0 1 .096.112c.053.144.123.261.208.352.09.09.195.157.312.2.117.043.243.064.376.064.17 0 .328-.035.472-.104a.864.864 0 0 0 .344-.32.96.96 0 0 0 .128-.512c0-.176-.04-.33-.12-.464a.826.826 0 0 0-.336-.312 1.044 1.044 0 0 0-.488-.112c-.139 0-.253.016-.344.048a.76.76 0 0 0-.216.12 6.337 6.337 0 0 0-.16.12.282.282 0 0 1-.16.048h-.888a.191.191 0 0 1-.128-.048.191.191 0 0 1-.048-.128l.16-1.585a8.268 8.268 0 0 1-4.079 2.94 5.75 5.75 0 1 0 5.693-7.592ZM9.533 12.6c.277.107.608.16.992.16.379 0 .704-.053.976-.16a1.84 1.84 0 0 0 1.088-1.136c.09-.261.144-.539.16-.832.005-.144.008-.304.008-.48a9.308 9.308 0 0 0 0-.544c0-.181-.003-.347-.008-.496a2.761 2.761 0 0 0-.168-.824 1.882 1.882 0 0 0-.408-.672 1.847 1.847 0 0 0-.68-.448A2.535 2.535 0 0 0 10.525 7c-.373 0-.699.056-.976.168a1.846 1.846 0 0 0-.68.448 1.98 1.98 0 0 0-.416.672c-.09.256-.141.53-.152.824l-.016.496v.544c.005.176.01.336.016.48.016.293.067.57.152.832.09.256.224.483.4.68.181.192.408.344.68.456Zm1.672-1.184c-.144.203-.37.304-.68.304-.31 0-.536-.101-.68-.304-.144-.203-.221-.477-.232-.824l-.016-.48v-.496c.005-.165.01-.32.016-.464.01-.33.085-.6.224-.808.144-.208.373-.315.688-.32.31.005.536.112.68.32.144.208.221.477.232.808.005.144.008.299.008.464.005.165.005.33 0 .496 0 .165-.003.325-.008.48-.01.347-.088.621-.232.824ZM5.93 12.624c.043.037.09.056.144.056h.88a.185.185 0 0 0 .136-.056.195.195 0 0 0 .056-.144v-5.2a.195.195 0 0 0-.056-.144.185.185 0 0 0-.136-.056h-.848a.327.327 0 0 0-.104.016.252.252 0 0 0-.088.04L4.09 8.544a.196.196 0 0 0-.088.128.227.227 0 0 0 .04.152l.4.52c.037.048.08.077.128.088a.181.181 0 0 0 .152-.04l1.152-.888v3.976c0 .059.019.107.056.144Z" fill="#6E7480"/></svg>