<svg width="24" height="24" fill="none" xmlns="http://www.w3.org/2000/svg"><path fill-rule="evenodd" clip-rule="evenodd" d="M6.116 4.116A1.25 1.25 0 0 1 7 3.75h6.293a.747.747 0 0 0-.043.25v3A1.75 1.75 0 0 0 15 8.75h3a.749.749 0 0 0 .25-.043V19A1.25 1.25 0 0 1 17 20.25H7A1.25 1.25 0 0 1 5.75 19V5c0-.332.132-.65.366-.884ZM17.19 7.25l-2.44-2.44V7a.25.25 0 0 0 .25.25h2.19ZM7 2.25A2.75 2.75 0 0 0 4.25 5v14A2.75 2.75 0 0 0 7 21.75h10A2.75 2.75 0 0 0 19.75 19V8a.75.75 0 0 0-.22-.53l-5-5a.75.75 0 0 0-.53-.22H7ZM15 19a2 2 0 1 0 0-4 2 2 0 0 0 0 4ZM7.25 7A.75.75 0 0 1 8 6.25h2a.75.75 0 0 1 0 1.5H8A.75.75 0 0 1 7.25 7ZM8 10.85a.75.75 0 0 0 0 1.5h8a.75.75 0 0 0 0-1.5H8ZM7.25 17a.75.75 0 0 1 .75-.75h2.3a.75.75 0 0 1 0 1.5H8a.75.75 0 0 1-.75-.75Z" fill="#6E7480"/></svg>