<svg width="24" height="24" fill="none" xmlns="http://www.w3.org/2000/svg"><path fill-rule="evenodd" clip-rule="evenodd" d="M5.571 3.75c-.151 0-.345.075-.521.3-.18.227-.3.568-.3.95v15.25h9.5V5c0-.382-.12-.723-.3-.95-.176-.225-.37-.3-.521-.3H5.57Zm10.179 3.5V5c0-.679-.21-1.356-.62-1.878-.414-.526-1.02-.872-1.701-.872H5.57c-.682 0-1.287.346-1.7.872-.41.522-.621 1.2-.621 1.878v15.25H3a.75.75 0 0 0 0 1.5h18a.75.75 0 0 0 0-1.5h-.25V9.444c0-.59-.244-1.152-.67-1.561a2.28 2.28 0 0 0-1.58-.633h-2.75Zm0 1.5v11.5h3.5V9.444a.668.668 0 0 0-.21-.48.78.78 0 0 0-.54-.214h-2.75ZM6.25 8A.75.75 0 0 1 7 7.25h1a.75.75 0 0 1 0 1.5H7A.75.75 0 0 1 6.25 8ZM7 11.25a.75.75 0 0 0 0 1.5h1a.75.75 0 0 0 0-1.5H7ZM6.25 16a.75.75 0 0 1 .75-.75h1a.75.75 0 0 1 0 1.5H7a.75.75 0 0 1-.75-.75ZM11 7.25a.75.75 0 0 0 0 1.5h1a.75.75 0 0 0 0-1.5h-1ZM10.25 12a.75.75 0 0 1 .75-.75h1a.75.75 0 0 1 0 1.5h-1a.75.75 0 0 1-.75-.75Zm6.75-.75a.75.75 0 0 0 0 1.5h1a.75.75 0 0 0 0-1.5h-1ZM10.25 16a.75.75 0 0 1 .75-.75h1a.75.75 0 0 1 0 1.5h-1a.75.75 0 0 1-.75-.75Zm6.75-.75a.75.75 0 0 0 0 1.5h1a.75.75 0 0 0 0-1.5h-1Z" fill="#6E7480"/></svg>