<svg width="24" height="24" fill="none" xmlns="http://www.w3.org/2000/svg"><path fill-rule="evenodd" clip-rule="evenodd" d="M8.5 4.32a4.25 4.25 0 0 0-2.75 1.01v7.19a5.75 5.75 0 0 1 6.775.944 4.25 4.25 0 0 0 5.725.205V6.48a5.75 5.75 0 0 1-6.775-.944A4.25 4.25 0 0 0 8.5 4.32Zm10.261-.032a.747.747 0 0 0-.286.176 4.25 4.25 0 0 1-5.95 0 5.75 5.75 0 0 0-8.05 0A.747.747 0 0 0 4.25 5v16a.75.75 0 0 0 1.5 0v-6.67a4.25 4.25 0 0 1 5.725.205 5.75 5.75 0 0 0 8.088-.04.746.746 0 0 0 .187-.495V5a.749.749 0 0 0-.989-.712Z" fill="#6E7480"/></svg>