<svg width="24" height="24" fill="none" xmlns="http://www.w3.org/2000/svg"><path fill-rule="evenodd" clip-rule="evenodd" d="M12 5a2 2 0 1 0 0-4 2 2 0 0 0 0 4ZM4 9c.293 0 .572-.063.823-.177l6.427 3.616v6.206a2 2 0 1 0 1.5 0V12.44l6.427-3.616a2 2 0 1 0-1.053-1.129L12 11.14 5.876 7.694A2 2 0 1 0 4 9Zm16 9.5a2 2 0 1 0 0-4 2 2 0 0 0 0 4Zm-16 0a2 2 0 1 0 0-4 2 2 0 0 0 0 4ZM14.934 3.629a2.99 2.99 0 0 1-.671 1.34l2.803 1.402a2.99 2.99 0 0 1 .671-1.34l-2.803-1.402Zm4.316 9.966v-3.69a3.005 3.005 0 0 0 1.5 0v3.69a3.005 3.005 0 0 0-1.5 0ZM17.1 17.27l-2.654 1.492c.291.41.482.894.537 1.42l2.853-1.605a2.997 2.997 0 0 1-.736-1.307Zm-10.2 0 2.653 1.492c-.29.41-.481.894-.536 1.42l-2.853-1.605c.347-.361.604-.809.736-1.307Zm-3.65-3.677V9.905a3.005 3.005 0 0 0 1.5 0v3.69a3.005 3.005 0 0 0-1.5 0ZM9.737 4.97 6.934 6.372a2.99 2.99 0 0 0-.671-1.342l2.803-1.4c.108.506.343.965.671 1.34Z" fill="#6E7480"/></svg>