<svg width="24" height="24" fill="none" xmlns="http://www.w3.org/2000/svg"><path fill-rule="evenodd" clip-rule="evenodd" d="M12 3.75a8.25 8.25 0 1 0 0 16.5 8.25 8.25 0 0 0 0-16.5ZM2.25 12c0-5.385 4.365-9.75 9.75-9.75s9.75 4.365 9.75 9.75-4.365 9.75-9.75 9.75S2.25 17.385 2.25 12Zm8.336-5.431a3.35 3.35 0 1 1 2.682 6.131l-.02.008a.75.75 0 0 0-.5.75.75.75 0 0 1-1.497.085 2.25 2.25 0 0 1 1.489-2.246 1.85 1.85 0 1 0-2.143-2.844.75.75 0 0 1-1.194-.906 3.35 3.35 0 0 1 1.183-.978ZM12.75 17a.75.75 0 0 0-1.5 0v.01a.75.75 0 0 0 1.5 0V17Z" fill="#6E7480"/></svg>