<svg width="24" height="24" fill="none" xmlns="http://www.w3.org/2000/svg"><path fill-rule="evenodd" clip-rule="evenodd" d="m2.53 22.53 20-20a.75.75 0 0 0-1.06-1.06l-20 20a.75.75 0 1 0 1.06 1.06ZM19.525 2H17.14a.75.75 0 0 0-.75.75v2.386L19.525 2ZM9.73 16.745l4.542-4.542a.75.75 0 0 1 .061.301l-.04 8.749a.75.75 0 0 1-.75.746h-3.084a.75.75 0 0 1-.75-.753l.021-4.501ZM7.612 6.86v7.053l-4.584 4.583V6.86a.75.75 0 0 1 .75-.75h3.084a.75.75 0 0 1 .75.75ZM4.475 22l3.137-3.137v2.387a.75.75 0 0 1-.75.75H4.475ZM20.972 5.502l-4.583 4.584v11.163c0 .414.336.75.75.75h3.083a.75.75 0 0 0 .75-.75V5.502Z" fill="#6E7480"/></svg>