<svg width="24" height="24" fill="none" xmlns="http://www.w3.org/2000/svg"><path fill-rule="evenodd" clip-rule="evenodd" d="M1 5.5A.75.75 0 0 0 1 7h1.75v3.5H1A.75.75 0 0 0 1 12h8.5a1.25 1.25 0 0 1 1.25 1.25v3.25h-.604a2.751 2.751 0 0 0-5.292 0H1A.75.75 0 0 0 1 18h3.854a2.751 2.751 0 0 0 5.292 0H11.5a.75.75 0 0 0 .75-.75v-4A2.75 2.75 0 0 0 9.5 10.5h-.64L5.086 5.781A.75.75 0 0 0 4.5 5.5H1Zm3.25 5V7.138L6.94 10.5H4.25Zm2 6.75a1.25 1.25 0 1 1 2.5 0 1.25 1.25 0 0 1-2.5 0Zm13.97-3.72a.75.75 0 1 1 1.06-1.06l2.25 2.25a.75.75 0 0 1 0 1.06l-2.25 2.25a.75.75 0 1 1-1.06-1.06l.97-.97H17a.75.75 0 0 1 0-1.5h4.19l-.97-.97Zm-3.44-6.5a.75.75 0 0 0-1.06-1.06l-2.25 2.25a.75.75 0 0 0 0 1.06l2.25 2.25a.75.75 0 1 0 1.06-1.06l-.97-.97H20A.75.75 0 0 0 20 8h-4.19l.97-.97Z" fill="#6E7480"/></svg>