<svg width="24" height="24" fill="none" xmlns="http://www.w3.org/2000/svg"><path fill-rule="evenodd" clip-rule="evenodd" d="M16.75 5a1.25 1.25 0 1 1 2.5 0 1.25 1.25 0 0 1-2.5 0ZM18 2.25a2.75 2.75 0 1 0 0 5.5 2.75 2.75 0 0 0 0-5.5Zm-9.5 3.5a2.75 2.75 0 1 0 0 5.5h8a4.25 4.25 0 0 1 0 8.5H11a.75.75 0 0 1 0-1.5h5.5a2.75 2.75 0 1 0 0-5.5h-8a4.25 4.25 0 0 1 0-8.5H13a.75.75 0 0 1 0 1.5H8.5Zm-2.5 12a1.25 1.25 0 1 0 0 2.5 1.25 1.25 0 0 0 0-2.5ZM3.25 19a2.75 2.75 0 1 1 5.5 0 2.75 2.75 0 0 1-5.5 0Z" fill="#6E7480"/></svg>