<svg width="24" height="24" fill="none" xmlns="http://www.w3.org/2000/svg"><path fill-rule="evenodd" clip-rule="evenodd" d="M2.25 2.25h2.607a.75.75 0 1 1 0 1.5H3.75v1.107a.75.75 0 1 1-1.5 0V2.25ZM6.893 3a.75.75 0 0 1 .75-.75h3.714a.75.75 0 1 1 0 1.5H7.643a.75.75 0 0 1-.75-.75Zm6.5 0a.75.75 0 0 1 .75-.75h2.607v3.321a.75.75 0 0 1-1.5 0V3.75h-1.107a.75.75 0 0 1-.75-.75ZM3 6.893a.75.75 0 0 1 .75.75v3.714a.75.75 0 1 1-1.5 0V7.643a.75.75 0 0 1 .75-.75Zm13 1.786a.75.75 0 0 1 .75.75V12a.75.75 0 0 1-1.5 0V9.429a.75.75 0 0 1 .75-.75ZM3 13.393a.75.75 0 0 1 .75.75v1.107h1.821a.75.75 0 0 1 0 1.5H2.25v-2.607a.75.75 0 0 1 .75-.75ZM8.679 16a.75.75 0 0 1 .75-.75H12a.75.75 0 0 1 0 1.5H9.429a.75.75 0 0 1-.75-.75Z" fill="#6E7480"/><path d="m15 15 7 2.333-3.111 1.556L17.333 22 15 15Z" stroke="#6E7480" stroke-width="1.5" stroke-linecap="round" stroke-linejoin="round"/></svg>