<svg width="24" height="24" fill="none" xmlns="http://www.w3.org/2000/svg"><path fill-rule="evenodd" clip-rule="evenodd" d="m7.69 7.067.518.791a.75.75 0 1 1-1.256.822l-.483-.74a8.49 8.49 0 0 0-2.229 2.997l1.15.5a.75.75 0 1 1-.599 1.376l-1.032-.449c-.27 1.174-.262 2.371-.253 3.76v.076H7.38a.75.75 0 0 1 0 1.5H2.76a.75.75 0 0 1-.75-.75c0-.262-.002-.524-.004-.786-.015-1.682-.03-3.378.562-5.075a9.99 9.99 0 0 1 18.863 0c.592 1.697.577 3.393.563 5.075a68.62 68.62 0 0 0-.005.785.75.75 0 0 1-.75.75h-4.62a.75.75 0 1 1 0-1.5h3.873v-.075c.01-1.392.02-2.591-.254-3.768l-.7.296a.75.75 0 1 1-.585-1.381l.803-.34a8.489 8.489 0 0 0-2.25-3.011l-.56.784a.75.75 0 0 1-1.22-.87l.557-.783a8.49 8.49 0 0 0-3.533-1.126v.923a.75.75 0 0 1-1.5 0v-.923a8.49 8.49 0 0 0-3.56 1.142Zm9.658 3.403a.75.75 0 0 1 .096 1.056L14.02 15.63a2.502 2.502 0 1 1-1.21-.891l.01-.013 3.472-4.16a.75.75 0 0 1 1.056-.095Zm-4.346 6.636a1.002 1.002 0 1 1-2.005 0 1.002 1.002 0 0 1 2.005 0Z" fill="#6E7480"/></svg>