<svg width="24" height="24" fill="none" xmlns="http://www.w3.org/2000/svg"><path fill-rule="evenodd" clip-rule="evenodd" d="M2 5.25a.75.75 0 0 0-.75.75v12c0 .414.336.75.75.75h20a.75.75 0 0 0 .75-.75V6a.75.75 0 0 0-.75-.75H2Zm.75 12V6.75h18.5v10.5H2.75ZM9.057 15a.208.208 0 0 1-.153-.063.208.208 0 0 1-.063-.153v-.459a.61.61 0 0 1 .036-.189.59.59 0 0 1 .189-.234l1.422-1.413c.396-.312.714-.576.954-.792.246-.222.423-.423.531-.603.114-.186.171-.369.171-.549 0-.27-.075-.489-.225-.657-.144-.168-.375-.252-.693-.252a.983.983 0 0 0-.531.135.935.935 0 0 0-.342.342 1.545 1.545 0 0 0-.162.477c-.012.078-.045.132-.099.162a.33.33 0 0 1-.162.045h-.801a.183.183 0 0 1-.135-.054.173.173 0 0 1-.054-.126c.006-.258.06-.507.162-.747.102-.246.249-.462.441-.648a2.21 2.21 0 0 1 .72-.459c.282-.114.6-.171.954-.171.498 0 .909.084 1.233.252.33.168.576.396.738.684.168.288.252.612.252.972 0 .282-.054.543-.162.783a2.674 2.674 0 0 1-.468.684c-.204.216-.45.438-.738.666l-1.278 1.296h2.565a.19.19 0 0 1 .153.063.19.19 0 0 1 .063.153v.639c0 .06-.021.111-.063.153a.19.19 0 0 1-.153.063H9.057Zm-2.726-.063a.227.227 0 0 1-.054-.153v-4.662l-1.368 1.053a.24.24 0 0 1-.162.045.253.253 0 0 1-.144-.099l-.378-.486a.255.255 0 0 1-.045-.171.22.22 0 0 1 .099-.144l2.016-1.557a.23.23 0 0 1 .108-.054.713.713 0 0 1 .117-.009h.792c.06 0 .111.021.153.063a.208.208 0 0 1 .063.153v5.868c0 .06-.021.111-.063.153a.208.208 0 0 1-.153.063h-.819a.22.22 0 0 1-.162-.063Zm9.657 0c.306.102.67.153 1.09.153.48 0 .905-.078 1.277-.234.372-.156.663-.378.873-.666a1.73 1.73 0 0 0 .324-1.053c0-.39-.08-.714-.243-.972a1.475 1.475 0 0 0-.666-.585 2.695 2.695 0 0 0-.972-.252l-.108-.009 1.557-1.602a.508.508 0 0 0 .081-.108.285.285 0 0 0 .036-.144v-.54a.22.22 0 0 0-.063-.162.22.22 0 0 0-.162-.063h-3.86a.22.22 0 0 0-.163.063.24.24 0 0 0-.054.162v.594c0 .06.018.111.054.153a.22.22 0 0 0 .162.063h2.574l-1.61 1.575a.66.66 0 0 0-.09.117.304.304 0 0 0-.037.153v.378c0 .066.021.12.063.162a.24.24 0 0 0 .162.054h.927c.354 0 .63.072.828.216.198.138.297.366.297.684 0 .318-.108.564-.324.738-.21.168-.495.252-.855.252a2.36 2.36 0 0 1-.513-.054 1.202 1.202 0 0 1-.432-.207.81.81 0 0 1-.26-.387.285.285 0 0 0-.109-.144.304.304 0 0 0-.153-.036h-.81a.215.215 0 0 0-.144.054.155.155 0 0 0-.054.126c.006.192.06.387.162.585.102.192.252.372.45.54.204.162.46.294.765.396Z" fill="#6E7480"/></svg>