<svg width="24" height="24" fill="none" xmlns="http://www.w3.org/2000/svg"><path fill-rule="evenodd" clip-rule="evenodd" d="M4.607 1.361a.75.75 0 0 1 1.032.246L7.419 4.5h8.831V2a.75.75 0 0 1 1.159-.629l5 3.25a.75.75 0 0 1-.047 1.286l-5 2.75A.75.75 0 0 1 16.25 8V6h-3.5v7.25H17a.75.75 0 0 1 .75.75v8a.75.75 0 0 1-.75.75H7a.75.75 0 0 1-.75-.75v-8a.75.75 0 0 1 .75-.75h4.25V6H7.382L5.607 8.441a.75.75 0 0 1-1.213-.882l1.704-2.344-1.737-2.822a.75.75 0 0 1 .246-1.032ZM17.75 3.382v3.35l2.791-1.535-2.79-1.815Zm-10 11.368v6.5h8.5v-6.5h-8.5Zm2.789 3.033a6.399 6.399 0 0 0-.011.2v.534c.004.085.007.152.011.2.007.085.024.166.05.244a.553.553 0 0 0 .122.206.63.63 0 0 0 .211.144c.085.034.191.05.317.05s.23-.015.311-.044a.724.724 0 0 0 .2-.106.466.466 0 0 0 .117-.144c.03-.052.052-.1.066-.145.019-.059.04-.1.062-.122.022-.026.064-.039.127-.039h.728c.033 0 .061.013.083.04.026.021.04.05.04.082-.004.19-.05.367-.14.534a1.364 1.364 0 0 1-.366.433 1.9 1.9 0 0 1-.55.294c-.208.07-.434.106-.678.106-.267 0-.506-.039-.717-.117a1.682 1.682 0 0 1-.533-.327 1.46 1.46 0 0 1-.344-.478 1.74 1.74 0 0 1-.134-.584 10.06 10.06 0 0 1 0-.988 1.533 1.533 0 0 1 .472-1.061c.149-.137.328-.245.54-.323.21-.081.45-.122.716-.122.244 0 .47.037.678.111.21.07.394.167.55.29.155.121.278.266.366.432.09.167.136.345.14.534a.122.122 0 0 1-.04.089.113.113 0 0 1-.083.033h-.728c-.063 0-.105-.011-.127-.033a.374.374 0 0 1-.062-.128.815.815 0 0 0-.066-.145.411.411 0 0 0-.117-.139.642.642 0 0 0-.2-.11.924.924 0 0 0-.311-.045.796.796 0 0 0-.317.056.553.553 0 0 0-.333.345 1.018 1.018 0 0 0-.05.243Zm4.213-.836c0-.041-.001-.075-.003-.1a.591.591 0 0 0-.198-.42.64.64 0 0 0-.219-.128.777.777 0 0 0-.283-.049c-.104 0-.2.016-.285.049a.674.674 0 0 0-.219.129.582.582 0 0 0-.195.419 1.578 1.578 0 0 0 0 .198.589.589 0 0 0 .198.422c.06.053.132.095.216.126.086.03.18.046.286.046a.815.815 0 0 0 .282-.046.667.667 0 0 0 .219-.126.614.614 0 0 0 .198-.422c.002-.026.003-.058.003-.098Zm-.87.24a.224.224 0 0 1-.07-.155.673.673 0 0 1 0-.175.215.215 0 0 1 .07-.152.244.244 0 0 1 .168-.056c.068 0 .123.019.164.056a.21.21 0 0 1 .072.152.673.673 0 0 1 0 .175.22.22 0 0 1-.072.154.241.241 0 0 1-.165.054.251.251 0 0 1-.167-.054Z" fill="#6E7480"/></svg>