<svg width="24" height="24" fill="none" xmlns="http://www.w3.org/2000/svg"><path fill-rule="evenodd" clip-rule="evenodd" d="M3.53 2.47a.75.75 0 0 0-1.06 1.06l4.72 4.72H5a.75.75 0 0 0 0 1.5h4A.748.748 0 0 0 9.75 9V5a.75.75 0 0 0-1.5 0v2.19L3.53 2.47ZM5 15.75a.75.75 0 0 1 0-1.5h4c.206 0 .393.083.529.218l.001.002.002.001A.747.747 0 0 1 9.75 15v4a.75.75 0 0 1-1.5 0v-2.19l-4.72 4.72a.75.75 0 0 1-1.06-1.06l4.72-4.72H5ZM14.25 5a.75.75 0 0 1 1.5 0v2.19l4.72-4.72a.75.75 0 1 1 1.06 1.06l-4.72 4.72H19a.75.75 0 0 1 0 1.5h-4a.748.748 0 0 1-.529-.218l-.001-.002-.002-.001A.748.748 0 0 1 14.25 9V5Zm.75 9.25h4a.75.75 0 0 1 0 1.5h-2.19l4.72 4.72a.75.75 0 1 1-1.06 1.06l-4.72-4.72V19a.75.75 0 0 1-1.5 0v-4a.747.747 0 0 1 .75-.75Z" fill="#6E7480"/></svg>