<svg width="24" height="24" fill="none" xmlns="http://www.w3.org/2000/svg"><path fill-rule="evenodd" clip-rule="evenodd" d="M12 2.25a.75.75 0 0 1 .75.75v1.354a2.751 2.751 0 0 1 1.063 4.714l1.379 4.134a.75.75 0 0 1-1.423.474l-1.321-3.962a2.771 2.771 0 0 1-.895 0L9.51 15.842c.792.265 1.63.408 2.49.408 3.106 0 5.925-1.87 7.334-4.595a.75.75 0 1 1 1.332.69 10.157 10.157 0 0 1-4.316 4.332l1.362 4.086a.75.75 0 0 1-1.423.474l-1.324-3.972a9.33 9.33 0 0 1-5.93 0l-1.323 3.972a.75.75 0 0 1-1.423-.474l1.361-4.084a10.14 10.14 0 0 1-4.316-4.335.75.75 0 1 1 1.333-.688 8.636 8.636 0 0 0 3.464 3.579l2.056-6.167a2.751 2.751 0 0 1 1.063-4.714V3a.75.75 0 0 1 .75-.75Zm0 3.5a1.25 1.25 0 1 0 0 2.5 1.25 1.25 0 0 0 0-2.5Z" fill="#6E7480"/></svg>