<svg width="24" height="24" fill="none" xmlns="http://www.w3.org/2000/svg"><path fill-rule="evenodd" clip-rule="evenodd" d="M21.394 3.341a.75.75 0 0 1 .356.638v13a.75.75 0 0 1-.415.671l-5.986 2.994a.746.746 0 0 1-.698 0L9 17.818 3.335 20.65a.75.75 0 0 1-1.085-.67v-13a.75.75 0 0 1 .415-.671L8.65 3.315a.747.747 0 0 1 .698 0L15 6.141l5.665-2.832a.75.75 0 0 1 .73.032ZM15.75 18.767l4.5-2.25V5.193l-4.5 2.25v11.323Zm-1.5-11.323v11.323l-4.5-2.25V5.193l4.5 2.25Zm-10.5 0v11.323l4.5-2.25V5.193l-4.5 2.25Z" fill="#6E7480"/></svg>