<svg width="24" height="24" fill="none" xmlns="http://www.w3.org/2000/svg"><path fill-rule="evenodd" clip-rule="evenodd" d="M9.745 8.294a5.594 5.594 0 0 1 2.117-1.882h3.277a5.594 5.594 0 0 1 3.05 4.706v2.701c0 .03.001.06.005.09a4.38 4.38 0 0 0 .688 1.879h-2.634a.707.707 0 0 0-.058 0h-5.38a.712.712 0 0 0-.058 0H10c0 .306 0 .48.002.654.004.232.011.463.03 1.002a3.469 3.469 0 1 0 6.937 0v-.156h3.782a.75.75 0 0 0 .37-1.403 2.875 2.875 0 0 1-1.433-2.114v-2.706a7.094 7.094 0 0 0-3.67-5.885 2.562 2.562 0 0 0-5.034 0 7.094 7.094 0 0 0-3.671 5.92v.9h1.5v-.882a5.594 5.594 0 0 1 .932-2.824Zm3.004-3.383a1.063 1.063 0 0 1 1.503 0l.001.001h-1.505l.001-.001Zm-1.218 12.377v.156a1.97 1.97 0 0 0 3.938 0v-.156h-3.938ZM5.25 12a.75.75 0 0 0-1.5 0v2.75H1a.75.75 0 0 0 0 1.5h2.75V19a.75.75 0 0 0 1.5 0v-2.75H8a.75.75 0 0 0 0-1.5H5.25V12Z" fill="#6E7480"/></svg>