<svg width="24" height="24" fill="none" xmlns="http://www.w3.org/2000/svg"><path fill-rule="evenodd" clip-rule="evenodd" d="M9.75 5c0-.69.56-1.25 1.25-1.25h2a1.25 1.25 0 1 1 0 2.5h-2c-.69 0-1.25-.56-1.25-1.25Zm-1.396-.75a2.751 2.751 0 0 1 2.646-2h2a2.75 2.75 0 0 1 2.646 2H17A2.75 2.75 0 0 1 19.75 7v12A2.75 2.75 0 0 1 17 21.75H7A2.75 2.75 0 0 1 4.25 19V7A2.75 2.75 0 0 1 7 4.25h1.354Zm7.293 1.5H17A1.25 1.25 0 0 1 18.25 7v12A1.25 1.25 0 0 1 17 20.25H7A1.25 1.25 0 0 1 5.75 19V7A1.25 1.25 0 0 1 7 5.75h1.354a2.751 2.751 0 0 0 2.646 2h2a2.75 2.75 0 0 0 2.646-2ZM7.25 12a.75.75 0 0 1 .75-.75h.01a.75.75 0 0 1 0 1.5H8a.75.75 0 0 1-.75-.75Zm3.75-.75a.75.75 0 0 0 0 1.5h5a.75.75 0 0 0 0-1.5h-5ZM7.25 16a.75.75 0 0 1 .75-.75h.01a.75.75 0 0 1 0 1.5H8a.75.75 0 0 1-.75-.75Zm3.75-.75a.75.75 0 0 0 0 1.5h5a.75.75 0 0 0 0-1.5h-5Z" fill="#6E7480"/></svg>