<svg width="24" height="24" fill="none" xmlns="http://www.w3.org/2000/svg"><path fill-rule="evenodd" clip-rule="evenodd" d="M6 5.25a.75.75 0 0 1 .75.75v1.25h10.5V6a.75.75 0 0 1 1.5 0v1.25H21a.75.75 0 0 1 .75.75v6a.75.75 0 0 1-.75.75h-2.25V20a.75.75 0 0 1-1.5 0v-5.25H6.75V20a.75.75 0 0 1-1.5 0v-5.25H3a.75.75 0 0 1-.75-.75V8A.75.75 0 0 1 3 7.25h2.25V6A.75.75 0 0 1 6 5.25Zm12 3.5H3.75v4.5h16.5v-4.5H18ZM7.25 17a.75.75 0 0 1 .75-.75h8a.75.75 0 0 1 0 1.5H8a.75.75 0 0 1-.75-.75Zm6.28-6.47a.75.75 0 1 0-1.06-1.06l-2 2a.75.75 0 1 0 1.06 1.06l2-2Zm-5-1.06a.75.75 0 0 1 0 1.06l-2 2a.75.75 0 0 1-1.06-1.06l2-2a.75.75 0 0 1 1.06 0Zm10 1.06a.75.75 0 1 0-1.06-1.06l-2 2a.75.75 0 1 0 1.06 1.06l2-2Z" fill="#6E7480"/></svg>