<svg width="24" height="24" fill="none" xmlns="http://www.w3.org/2000/svg"><path fill-rule="evenodd" clip-rule="evenodd" d="M4.195 6.091a1.2 1.2 0 1 0 0-2.4 1.2 1.2 0 0 0 0 2.4Zm10.94 0a1.2 1.2 0 1 0 0-2.4 1.2 1.2 0 0 0 0 2.4Zm6.87-.2a1.2 1.2 0 1 1-2.4 0 1.2 1.2 0 0 1 2.4 0Zm-12.34 2a2 2 0 1 0 0-4 2 2 0 0 0 0 4Zm3.871 3.11a1.2 1.2 0 1 1-2.4 0 1.2 1.2 0 0 1 2.4 0Zm-8.34 3.2a1.2 1.2 0 1 0 0-2.4 1.2 1.2 0 0 0 0 2.4ZM20.533 12a1.999 1.999 0 1 1-3.998 0 1.999 1.999 0 0 1 3.998 0ZM4.195 20.308a1.2 1.2 0 1 0 0-2.4 1.2 1.2 0 0 0 0 2.4Zm15.81-2.2a1.2 1.2 0 1 1-2.4 0 1.2 1.2 0 0 1 2.4 0ZM10.5 21a2.5 2.5 0 1 0 0-5 2.5 2.5 0 0 0 0 5Z" fill="#6E7480"/></svg>