<svg width="24" height="24" fill="none" xmlns="http://www.w3.org/2000/svg"><path fill-rule="evenodd" clip-rule="evenodd" d="M14.944 4.822a1.076 1.076 0 1 1 1.522 1.522 1.076 1.076 0 0 1-1.522-1.522Zm2.583-1.06a2.576 2.576 0 1 0-3.644 3.643 2.576 2.576 0 0 0 3.644-3.644ZM7.056 11.238a1.076 1.076 0 1 0-1.522 1.523 1.076 1.076 0 0 0 1.522-1.523Zm-2.583-1.06a2.576 2.576 0 1 1 3.644 3.643 2.576 2.576 0 0 1-3.644-3.643Zm11.993 7.478a1.076 1.076 0 1 0-1.522 1.522 1.076 1.076 0 0 0 1.522-1.522Zm-2.583-1.06a2.576 2.576 0 1 1 3.644 3.643 2.576 2.576 0 0 1-3.644-3.644Z" fill="#6E7480"/></svg>