<svg width="24" height="24" fill="none" xmlns="http://www.w3.org/2000/svg"><path fill-rule="evenodd" clip-rule="evenodd" d="M9.652.97a.75.75 0 0 0-1.06 0L6.47 3.09a.75.75 0 0 0 .061 1.115l.616.494H2.248a.75.75 0 0 0-.75.75V16.2c0 .414.336.75.75.75h16.175c.526 0 1.52-.074 2.407-.605.948-.569 1.673-1.602 1.673-3.283 0-.388-.128-.796-.288-1.17a9.048 9.048 0 0 0-.66-1.222c-.531-.844-1.24-1.766-1.968-2.616a25.593 25.593 0 0 0-2.148-2.238 8.91 8.91 0 0 0-.909-.736 3.033 3.033 0 0 0-.418-.245 1.3 1.3 0 0 0-.544-.135h-4.471l.615-.494a.75.75 0 0 0 .061-1.115L9.653.97Zm-.53 3.39-1-.8 1-1 .999 1-1 .8Zm-6.124 7.476V9.579h3.257v2.257H2.998Zm4.757 0V9.579h3.258v2.257H7.755Zm4.758 0V9.579h6.393a19.915 19.915 0 0 1 1.38 1.89c.08.127.153.25.22.367h-7.993Zm-.75-3.757h5.832a20.669 20.669 0 0 0-1.162-1.151 7.46 7.46 0 0 0-.748-.61 1.705 1.705 0 0 0-.196-.118H2.998v1.879h8.765Zm3.69-1.895.006.002a.041.041 0 0 1-.006-.002Zm-3.69 7.152h9.23c-.066.984-.493 1.458-.934 1.722-.54.324-1.21.392-1.636.392H2.998v-2.114h8.765Zm1.902 3.864c0 .478-.234.901-.595 1.16h2.143a1.425 1.425 0 0 1-.596-1.16h2.854c0 .478-.235.901-.596 1.16h3.45a.75.75 0 0 1 0 1.5H2.249a.75.75 0 0 1 0-1.5h9.159a1.425 1.425 0 0 1-.596-1.16h2.854Z" fill="#6E7480"/></svg>