<svg width="24" height="24" fill="none" xmlns="http://www.w3.org/2000/svg"><path fill-rule="evenodd" clip-rule="evenodd" d="M8.91 6.35H3.224A.225.225 0 0 0 3 6.575v3.15h5.91V6.35Zm.75-1.5h7.216c1.589 0 3.037.884 4.058 2.313 1.018 1.426 1.567 3.32 1.567 5.263V17.3a.75.75 0 0 1-.75.75h-1.318a2.701 2.701 0 0 1-5.164 0H8.732a2.701 2.701 0 0 1-5.165 0H2.25a.75.75 0 0 1-.75-.75V6.575A1.725 1.725 0 0 1 3.224 4.85H9.66Zm.75 1.5v3.375h5.608l-.724-3.375H10.41Zm5.93 4.875H2.998v5.326h.544a2.701 2.701 0 0 1 5.213 0h6.489a2.701 2.701 0 0 1 5.212 0H21v-3.375h-3.638a.75.75 0 0 1-.733-.593l-.29-1.358Zm4.63.45h-3L16.828 6.35h.048c.997 0 2.03.554 2.837 1.685.688.964 1.137 2.247 1.256 3.64ZM4.95 17.26a1.2 1.2 0 1 1 2.4 0 1.2 1.2 0 0 1-2.4 0Zm12.901-1.2a1.2 1.2 0 1 0 0 2.4 1.2 1.2 0 0 0 0-2.4Z" fill="#6E7480"/></svg>