<svg width="24" height="24" fill="none" xmlns="http://www.w3.org/2000/svg"><path fill-rule="evenodd" clip-rule="evenodd" d="M7.61 2.573a.75.75 0 0 1 .615-.321h1.85a.75.75 0 0 1 .603.304l3.7 4.997a.75.75 0 0 1-.603 1.197h-3.7a.75.75 0 0 1-.704-.49l-1.85-4.998a.75.75 0 0 1 .088-.689Zm2.465 12.677a.75.75 0 0 0-.704.49l-1.85 4.997a.75.75 0 0 0 .704 1.01h1.85a.75.75 0 0 0 .603-.303l3.7-4.998a.75.75 0 0 0-.603-1.196h-3.7ZM3.35 7.5a.75.75 0 0 0-.697 1.028L4.042 12l-1.389 3.47a.75.75 0 0 0 .697 1.03h2a.75.75 0 0 0 .53-.22l1.78-1.78H18.9a2.5 2.5 0 0 0 0-5H7.66L5.88 7.72a.75.75 0 0 0-.53-.22h-2Z" fill="#6E7480"/></svg>