<svg width="24" height="24" fill="none" xmlns="http://www.w3.org/2000/svg"><path fill-rule="evenodd" clip-rule="evenodd" d="M12.407 5.733c0-.405.329-.733.734-.733h5.703c.225 0 .437.103.576.279l3.422 4.335c.102.13.158.29.158.454v6.165a.733.733 0 0 1-.733.733H20.72v-.059a3.002 3.002 0 1 0-6.002.059H9.017v-.059a3.002 3.002 0 1 0-6.002.059H1.733A.733.733 0 0 1 1 16.233v-3.15c0-.405.328-.733.733-.733h10.674V5.733Zm5.115.734.762 4.237h3.25v-.381l-3.045-3.856h-.967ZM6.016 19.105a2.252 2.252 0 1 0 0-4.503 2.252 2.252 0 0 0 0 4.503Zm11.704 0a2.252 2.252 0 1 0 0-4.503 2.252 2.252 0 0 0 0 4.503Z" fill="#6E7480"/></svg>