<svg width="24" height="24" fill="none" xmlns="http://www.w3.org/2000/svg"><path fill-rule="evenodd" clip-rule="evenodd" d="M4.5 5.375a.75.75 0 0 0-.696.471l-2 5a.75.75 0 0 0-.054.279v5c0 .414.336.75.75.75h1.26a2.751 2.751 0 1 1 5.48 0h5.021a2.751 2.751 0 1 1 5.48 0H21.5a.75.75 0 0 0 .75-.75v-3a2.75 2.75 0 0 0-2.75-2.75h-1.64l-3.774-4.719a.75.75 0 0 0-.586-.281h-9Zm8.64 1.5 2.8 3.5h-3.69v-3.5h.89Zm-2.39 0v3.5H3.608l1.4-3.5h5.742ZM6.5 18.625a2 2 0 1 0 0-4 2 2 0 0 0 0 4Zm12.5-2a2 2 0 1 1-4 0 2 2 0 0 1 4 0Z" fill="#6E7480"/></svg>