<svg width="24" height="24" fill="none" xmlns="http://www.w3.org/2000/svg"><path fill-rule="evenodd" clip-rule="evenodd" d="M9.652.97a.75.75 0 0 0-1.06 0L6.47 3.09a.75.75 0 0 0 0 1.06l.548.549h-4.77a.75.75 0 0 0-.75.75V16.2c0 .414.336.75.75.75h16.175c.526 0 1.52-.074 2.407-.605.948-.569 1.673-1.602 1.673-3.283 0-.388-.128-.796-.288-1.17a9.06 9.06 0 0 0-.66-1.222c-.531-.844-1.24-1.766-1.968-2.616a25.593 25.593 0 0 0-2.148-2.238 8.91 8.91 0 0 0-.909-.736 3.034 3.034 0 0 0-.418-.245 1.3 1.3 0 0 0-.544-.135h-4.343l.548-.548a.75.75 0 0 0 0-1.061L9.653.97Zm.53 2.651-1.06 1.061-1.06-1.06 1.06-1.061 1.06 1.06Zm-7.184 8.215V8.579h3.257v3.257H2.998Zm4.757 0V8.579h3.258v3.257H7.755Zm4.758 0V8.579h5.54c.132.147.264.298.395.451.698.815 1.358 1.677 1.838 2.44.08.126.153.248.22.366h-7.993ZM17.47 17.2c0 .478-.235.901-.596 1.16h3.45a.75.75 0 0 1 0 1.5H2.249a.75.75 0 1 1 0-1.5h9.159a1.425 1.425 0 0 1-.596-1.16h2.854c0 .478-.234.901-.595 1.16h2.143a1.425 1.425 0 0 1-.596-1.16h2.854Z" fill="#6E7480"/></svg>