<svg width="24" height="24" fill="none" xmlns="http://www.w3.org/2000/svg"><path fill-rule="evenodd" clip-rule="evenodd" d="M3.342 5a.75.75 0 0 0-.75.75v6.046a4.5 4.5 0 0 1 6.34 5.864h3.282a3 3 0 0 1 5.831-1.367v-1.536h2.648l1.64 1.64a.75.75 0 0 0 1.061-1.06l-1.64-1.64V11.6a.75.75 0 0 0-1.5 0v1.657h-2.209V11.33a1.68 1.68 0 0 0-1.68-1.68h-4.376l-1.662-4.178A.75.75 0 0 0 9.63 5H3.342Zm5.78 1.5 1.253 3.151H8.49L7.238 6.5h1.884Zm-.469 9.161a3.751 3.751 0 1 1-7.503 0 3.751 3.751 0 0 1 7.503 0Zm8.77 1.502a2.25 2.25 0 1 1-4.5 0 2.25 2.25 0 0 1 4.5 0Z" fill="#6E7480"/></svg>