<svg xmlns="http://www.w3.org/2000/svg" xmlns:xlink="http://www.w3.org/1999/xlink">
  <symbol id="icon-chevron-solid-right" viewBox="0 0 24 24" fill="currentColor">
    <path d="M14.909 12a.409.409 0 0 1-.12.29l-4.09 4.09a.41.41 0 0 1-.699-.29V7.91a.41.41 0 0 1 .699-.29l4.09 4.09a.409.409 0 0 1 .12.29Z"/>
  </symbol>
  <symbol id="icon-chevron-solid-down" viewBox="0 0 24 24" fill="currentColor">
    <path d="M12 15.109a.409.409 0 0 1-.29-.12L7.62 10.9a.41.41 0 0 1 .289-.699h8.181a.41.41 0 0 1 .29.699l-4.09 4.09a.409.409 0 0 1-.29.12Z"/>
  </symbol>
  <symbol id="icon-double-chevron-left" viewBox="0 0 24 24" fill="currentColor">
    <path fill-rule="evenodd" clip-rule="evenodd" d="M11.28 8.53a.75.75 0 0 0-1.06-1.06l-4 4a.75.75 0 0 0 0 1.06l4 4a.75.75 0 1 0 1.06-1.06L7.81 12l3.47-3.47Zm6 0a.75.75 0 0 0-1.06-1.06l-4 4a.75.75 0 0 0 0 1.06l4 4a.75.75 0 1 0 1.06-1.06L13.81 12l3.47-3.47Z"/>
  </symbol>
  <symbol id="icon-double-chevron-right" viewBox="0 0 24 24" fill="currentColor">
    <path fill-rule="evenodd" clip-rule="evenodd" d="M7.78 7.47a.75.75 0 0 0-1.06 1.06L10.19 12l-3.47 3.47a.75.75 0 1 0 1.06 1.06l4-4a.75.75 0 0 0 0-1.06l-4-4Zm6 0a.75.75 0 1 0-1.06 1.06L16.19 12l-3.47 3.47a.75.75 0 1 0 1.06 1.06l4-4a.75.75 0 0 0 0-1.06l-4-4Z"/>
  </symbol>
  <symbol id="icon-double-chevron-up" viewBox="0 0 24 24" fill="currentColor">
    <path fill-rule="evenodd" clip-rule="evenodd" d="M12.53 6.22a.75.75 0 0 0-1.06 0l-4 4a.75.75 0 1 0 1.06 1.06L12 7.81l3.47 3.47a.75.75 0 1 0 1.06-1.06l-4-4Zm0 6a.75.75 0 0 0-1.06 0l-4 4a.75.75 0 1 0 1.06 1.06L12 13.81l3.47 3.47a.75.75 0 1 0 1.06-1.06l-4-4Z"/>
  </symbol>
  <symbol id="icon-chevron-left" viewBox="0 0 24 24" fill="currentColor">
    <path fill-rule="evenodd" clip-rule="evenodd" d="M14.78 5.22a.75.75 0 0 1 0 1.06l-5.47 5.47 5.47 5.47a.75.75 0 1 1-1.06 1.06l-6-6a.75.75 0 0 1 0-1.06l6-6a.75.75 0 0 1 1.06 0Z"/>
  </symbol>
  <symbol id="icon-chevron-right" viewBox="0 0 24 24" fill="currentColor">
    <path fill-rule="evenodd" clip-rule="evenodd" d="M9.22 18.28a.75.75 0 0 1 0-1.06l5.47-5.47-5.47-5.47a.75.75 0 0 1 1.06-1.06l6 6a.75.75 0 0 1 0 1.06l-6 6a.75.75 0 0 1-1.06 0Z"/>
  </symbol>
  <symbol id="icon-chevron-down" viewBox="0 0 24 24" fill="currentColor">
    <path fill-rule="evenodd" clip-rule="evenodd" d="M5.47 9.22a.75.75 0 0 1 1.06 0L12 14.69l5.47-5.47a.75.75 0 1 1 1.06 1.06l-6 6a.75.75 0 0 1-1.06 0l-6-6a.75.75 0 0 1 0-1.06Z"/>
  </symbol>
  <symbol id="icon-list" viewBox="0 0 24 24" fill="currentColor">
    <path fill-rule="evenodd" clip-rule="evenodd" d="M4.5 6.25a.75.75 0 0 0 0 1.5H5a.75.75 0 0 0 0-1.5h-.5Zm4 0a.75.75 0 0 0 0 1.5h11a.75.75 0 0 0 0-1.5h-11Zm0 5a.75.75 0 0 0 0 1.5h11a.75.75 0 0 0 0-1.5h-11ZM7.75 17a.75.75 0 0 1 .75-.75h11a.75.75 0 0 1 0 1.5h-11a.75.75 0 0 1-.75-.75Zm-4-5a.75.75 0 0 1 .75-.75H5a.75.75 0 0 1 0 1.5h-.5a.75.75 0 0 1-.75-.75Zm.75 4.25a.75.75 0 0 0 0 1.5H5a.75.75 0 0 0 0-1.5h-.5Z" />
  </symbol>
  <symbol id="icon-sync-done" viewBox="0 0 24 24" fill="currentColor">
    <path fill-rule="evenodd" clip-rule="evenodd" d="M7.75 9.5a3.75 3.75 0 0 1 3.75-3.75h.5A4.25 4.25 0 0 1 16.25 10v1c0 .414.336.75.75.75h1.208a3.042 3.042 0 0 1 3.042 3.042V15A2.25 2.25 0 0 1 19 17.25H5.923a3.173 3.173 0 0 1-3.173-3.173 3.827 3.827 0 0 1 3.827-3.827H7a.75.75 0 0 0 .75-.75Zm-1.448-.743A5.251 5.251 0 0 1 11.5 4.25h.5A5.75 5.75 0 0 1 17.75 10v.25h.458a4.542 4.542 0 0 1 4.542 4.542V15A3.75 3.75 0 0 1 19 18.75H5.923a4.673 4.673 0 0 1-4.673-4.673 5.327 5.327 0 0 1 5.052-5.32Zm8.312 2.173a.75.75 0 1 0-1.228-.86l-2.988 4.268L8.53 12.47a.75.75 0 0 0-1.06 1.06l2.289 2.29a1 1 0 0 0 1.526-.134l3.33-4.756Z" />
  </symbol>
  <symbol id="icon-notification" viewBox="0 0 24 24" fill="currentColor">
    <path fill-rule="evenodd" clip-rule="evenodd" d="M11.116 4.116A1.25 1.25 0 0 1 13 4.25h-2c.035-.047.074-.092.116-.134ZM7.792 7.861a6.25 6.25 0 0 1 2.382-2.111h3.653a6.25 6.25 0 0 1 3.423 5.268V14c0 .03.002.06.006.09a4.75 4.75 0 0 0 .828 2.16H5.916l.065-.096a4.75 4.75 0 0 0 .764-2.064.75.75 0 0 0 .005-.09v-2.982a6.25 6.25 0 0 1 1.042-3.157Zm.458 9.889H4a.75.75 0 0 1-.37-1.403 3.25 3.25 0 0 0 1.62-2.395v-2.987a7.75 7.75 0 0 1 4.043-6.447 2.75 2.75 0 0 1 5.415 0A7.75 7.75 0 0 1 18.75 11v2.952a3.25 3.25 0 0 0 1.62 2.395.75.75 0 0 1-.37 1.403h-4.25V18a3.75 3.75 0 0 1-7.5 0v-.25Zm6 0V18a2.25 2.25 0 0 1-4.5 0v-.25h4.5Z" />
  </symbol>
  <symbol id="icon-user-avatar" viewBox="0 0 24 24" fill="currentColor">
    <path fill-rule="evenodd" clip-rule="evenodd" d="M12 22c5.523 0 10-4.477 10-10S17.523 2 12 2 2 6.477 2 12s4.477 10 10 10Zm3.333-14.444A3.329 3.329 0 0 0 12 4.222a3.329 3.329 0 0 0-3.333 3.334A3.329 3.329 0 0 0 12 10.889a3.329 3.329 0 0 0 3.333-3.333ZM8.217 19.049a8 8 0 0 0 10.45-2.627C18.633 14.212 14.21 13 12 13c-2.222 0-6.633 1.211-6.667 3.422a8 8 0 0 0 2.884 2.627Z" />
  </symbol>
  <symbol id="icon-download" viewBox="0 0 24 24" fill="currentColor">
    <path fill-rule="evenodd" clip-rule="evenodd" d="M12.75 5a.75.75 0 0 0-1.5 0v8.69l-3.095-3.095a.75.75 0 1 0-1.06 1.06l4.375 4.375a.746.746 0 0 0 1.06 0l4.375-4.375a.75.75 0 0 0-1.06-1.06l-3.095 3.094V5ZM5 14.75a.75.75 0 0 1 .75.75v1.75a1 1 0 0 0 1 1h10.5a1 1 0 0 0 1-1V15.5a.75.75 0 0 1 1.5 0v1.75a2.5 2.5 0 0 1-2.5 2.5H6.75a2.5 2.5 0 0 1-2.5-2.5V15.5a.75.75 0 0 1 .75-.75Z"/>
  </symbol>
  <symbol id="icon-date-calendar" viewBox="0 0 24 24" fill="currentColor">
    <path fill-rule="evenodd" clip-rule="evenodd" d="M8.75 3a.75.75 0 0 0-1.5 0v1.25H6A2.75 2.75 0 0 0 3.25 7v12A2.75 2.75 0 0 0 6 21.75h12A2.75 2.75 0 0 0 20.75 19V7A2.75 2.75 0 0 0 18 4.25h-1.25V3a.75.75 0 0 0-1.5 0v1.25h-6.5V3ZM6 5.75h1.25V7a.75.75 0 0 0 1.5 0V5.75h6.5V7a.75.75 0 0 0 1.5 0V5.75H18c.69 0 1.25.56 1.25 1.25v3.25H4.75V7c0-.69.56-1.25 1.25-1.25Zm-1.25 6h14.5V19c0 .69-.56 1.25-1.25 1.25H6c-.69 0-1.25-.56-1.25-1.25v-7.25ZM7.25 15a.75.75 0 0 1 .75-.75h2a.75.75 0 0 1 .75.75v2a.75.75 0 0 1-.75.75H8a.75.75 0 0 1-.75-.75v-2Z"/>
  </symbol>
  <symbol id="icon-search" viewBox="0 0 24 24" fill="currentColor">
    <path fill-rule="evenodd" clip-rule="evenodd" d="M4.75 10.222a5.472 5.472 0 1 1 10.944 0 5.472 5.472 0 0 1-10.944 0Zm5.472-6.972a6.972 6.972 0 1 0 4.372 12.404l4.876 4.876a.75.75 0 1 0 1.06-1.06l-4.876-4.876A6.972 6.972 0 0 0 10.222 3.25Z"/>
  </symbol>
  <symbol id="icon-arrow-back" viewBox="0 0 24 24" fill="currentColor">
    <path fill-rule="evenodd" clip-rule="evenodd" d="M9.53 6.53a.75.75 0 0 0-1.06-1.06l-5.996 5.995a.767.767 0 0 0-.158.228.747.747 0 0 0 .154.837l6 6a.75.75 0 0 0 1.06-1.06l-4.72-4.72H21a.75.75 0 0 0 0-1.5H4.81l4.72-4.72Z"/>
  </symbol>
  <symbol id="icon-folder-layer" viewBox="0 0 24 24" fill="currentColor">
    <path fill-rule="evenodd" clip-rule="evenodd" d="M12.336 5.83a.75.75 0 0 0-.671 0l-8 4a.75.75 0 0 0 0 1.34l8 4a.75.75 0 0 0 .67 0l8-4a.75.75 0 0 0 0-1.34l-8-4ZM12 13.661 5.677 10.5 12 7.339l6.323 3.161L12 13.662Zm-7.664.167a.75.75 0 1 0-.671 1.342l8 4a.75.75 0 0 0 .67 0l8-4a.75.75 0 1 0-.67-1.342L12 17.661 4.336 13.83Z"/>
  </symbol>
  <symbol id="icon-layer-map" viewBox="0 0 24 24" fill="currentColor">
    <path fill-rule="evenodd" clip-rule="evenodd" d="M11.664 5.83a.75.75 0 0 1 .67 0l8 3.999a.75.75 0 0 1 0 1.341l-8 4a.75.75 0 0 1-.67 0l-8-4a.75.75 0 0 1 0-1.341l8-4Zm-7.328 7.999a.75.75 0 1 0-.67 1.342l7.998 4a.75.75 0 0 0 .671 0l8-4a.75.75 0 1 0-.671-1.342L12 17.661l-7.664-3.832Z"/>
  </symbol>
  <symbol id="icon-image" viewBox="0 0 24 24" fill="currentColor">
    <path d="M4.385 5A1.392 1.392 0 0 0 3 6.4v11.2A1.392 1.392 0 0 0 4.385 19h15.23A1.393 1.393 0 0 0 21 17.6V6.4A1.394 1.394 0 0 0 19.615 5H4.385Zm13.616 2.1a1.4 1.4 0 1 1-1.282.866 1.393 1.393 0 0 1 1.282-.866ZM7.846 9.6a1.66 1.66 0 0 1 1.184.5l2.258 2.283.712.717.8.809a.741.741 0 0 0 1.056 0 .764.764 0 0 0 0-1.072l-.8-.805.526-.532a1.661 1.661 0 0 1 2.369 0l3.469 3v3H4.58v-5.8l2.082-1.6a1.66 1.66 0 0 1 1.184-.5Z"/>
  </symbol>
  <symbol id="icon-2d" viewBox="0 0 24 24" fill="currentColor">
    <path d="M10.539 17.598a.3.3 0 0 1-.3.3H3.015a.3.3 0 0 1-.3-.3v-.918a.3.3 0 0 1 .078-.203l3.798-4.141c.56-.624.956-1.143 1.19-1.559.24-.42.36-.842.36-1.263 0-.554-.157-1.001-.471-1.342-.31-.341-.727-.512-1.255-.512-.629 0-1.116.192-1.463.576-.292.324-.461.749-.507 1.274a.321.321 0 0 1-.312.3H2.79a.285.285 0 0 1-.29-.3c.039-.59.195-1.126.47-1.61a3.354 3.354 0 0 1 1.382-1.327c.602-.314 1.295-.471 2.078-.471 1.13 0 2.02.285 2.67.855.655.565.982 1.348.982 2.35 0 .58-.165 1.19-.495 1.83-.325.634-.86 1.356-1.606 2.166l-2.846 3.045h5.103a.3.3 0 0 1 .3.3v.95Zm2.581.3a.3.3 0 0 1-.3-.3V6.562a.3.3 0 0 1 .3-.3h3.137c1.028 0 1.94.229 2.733.687a4.68 4.68 0 0 1 1.855 1.95c.437.842.655 1.806.655 2.893v.584c0 1.103-.221 2.072-.663 2.909a4.599 4.599 0 0 1-1.879 1.934c-.81.453-1.74.68-2.789.68H13.12Zm1.722-10.006v8.392h1.32c1.06 0 1.872-.33 2.437-.991.57-.666.86-1.62.871-2.861v-.648c0-1.263-.274-2.227-.823-2.893-.55-.666-1.346-1-2.39-1h-1.415Z"/>
  </symbol>
  <symbol id="icon-3d" viewBox="0 0 24 24" fill="currentColor">
    <path d="M5.257 11.414a.3.3 0 0 1 .3-.3h.598c.596-.006 1.068-.16 1.414-.464.351-.303.527-.742.527-1.317 0-.554-.147-.983-.44-1.286-.287-.309-.729-.463-1.325-.463-.522 0-.95.151-1.286.455a1.447 1.447 0 0 0-.48.875c-.026.164-.157.299-.323.299h-1.34a.28.28 0 0 1-.287-.3c.044-.48.197-.923.457-1.33.32-.49.762-.87 1.326-1.141.57-.277 1.206-.416 1.909-.416 1.16 0 2.07.293 2.731.879.666.58.998 1.39.998 2.428 0 .521-.167 1.014-.503 1.477-.33.458-.758.804-1.286 1.038.64.219 1.124.562 1.454 1.03.335.469.503 1.028.503 1.678 0 1.043-.36 1.874-1.078 2.491-.713.618-1.653.927-2.82.927-1.117 0-2.033-.299-2.746-.895-.64-.535-.993-1.228-1.06-2.08a.283.283 0 0 1 .29-.3h1.34c.166 0 .297.136.321.3.055.376.219.691.49.946.346.32.81.48 1.39.48.601 0 1.075-.16 1.421-.48.346-.32.52-.783.52-1.39 0-.612-.182-1.083-.544-1.413-.362-.33-.9-.495-1.613-.495h-.558a.3.3 0 0 1-.3-.3v-.933Zm7.87 6.4a.3.3 0 0 1-.3-.3V6.486a.3.3 0 0 1 .3-.3h3.134c1.028 0 1.938.229 2.731.687a4.675 4.675 0 0 1 1.853 1.949c.437.84.655 1.804.655 2.89v.584c0 1.102-.221 2.07-.663 2.906a4.595 4.595 0 0 1-1.877 1.933c-.809.453-1.738.679-2.787.679h-3.046Zm1.72-9.999v8.386h1.318c1.06 0 1.872-.33 2.436-.99.57-.666.86-1.62.87-2.86v-.647c0-1.261-.274-2.225-.822-2.89-.548-.666-1.344-.999-2.388-.999h-1.413Z"/>
  </symbol>
  <symbol id="icon-compass-north" viewBox="0 0 24 24" fill="currentColor">
    <path fill-rule="evenodd" clip-rule="evenodd" d="M12.674 2.416a.75.75 0 0 0-1.341 0l-4.625 9.249a.75.75 0 0 0 0 .67l4.625 9.25a.75.75 0 0 0 1.341 0l4.625-9.25a.75.75 0 0 0 0-.67l-4.625-9.25Zm-.67 17.157L8.217 12h7.573l-3.786 7.573Zm.83-8.472c.033.033.08.05.142.05h.38c.04 0 .075-.015.104-.044a.141.141 0 0 0 .044-.103V7.486a.141.141 0 0 0-.044-.103.141.141 0 0 0-.103-.044h-.441a.142.142 0 0 0-.104.044.141.141 0 0 0-.043.103V9.73l-1.525-2.264a1.016 1.016 0 0 0-.07-.077.196.196 0 0 0-.142-.049h-.381a.141.141 0 0 0-.104.044.141.141 0 0 0-.043.103v3.518c0 .04.014.074.043.103a.141.141 0 0 0 .104.043h.44c.04 0 .075-.014.104-.043a.142.142 0 0 0 .044-.103V8.76l1.524 2.265c.015.018.038.044.07.076Z"/>
  </symbol>
  <symbol id="icon-geometry-instruments" viewBox="0 0 24 24" fill="currentColor">
    <path fill-rule="evenodd" clip-rule="evenodd" d="M12 2.25a.75.75 0 0 1 .75.75v1.354a2.751 2.751 0 0 1 1.063 4.714l1.379 4.134a.75.75 0 0 1-1.423.474l-1.321-3.962a2.771 2.771 0 0 1-.895 0L9.51 15.842c.792.265 1.63.408 2.49.408 3.106 0 5.925-1.87 7.334-4.595a.75.75 0 1 1 1.332.69 10.157 10.157 0 0 1-4.316 4.332l1.362 4.086a.75.75 0 0 1-1.423.474l-1.324-3.972a9.33 9.33 0 0 1-5.93 0l-1.323 3.972a.75.75 0 0 1-1.423-.474l1.361-4.084a10.14 10.14 0 0 1-4.316-4.335.75.75 0 1 1 1.333-.688 8.636 8.636 0 0 0 3.464 3.579l2.056-6.167a2.751 2.751 0 0 1 1.063-4.714V3a.75.75 0 0 1 .75-.75Zm0 3.5a1.25 1.25 0 1 0 0 2.5 1.25 1.25 0 0 0 0-2.5Z"/>
  </symbol>
  <symbol id="icon-info" viewBox="0 0 24 24" fill="currentColor">
    <path fill-rule="evenodd" clip-rule="evenodd" d="M12 3.75a8.25 8.25 0 1 0 0 16.5 8.25 8.25 0 0 0 0-16.5ZM2.25 12c0-5.385 4.365-9.75 9.75-9.75s9.75 4.365 9.75 9.75-4.365 9.75-9.75 9.75S2.25 17.385 2.25 12Zm9-4a.75.75 0 0 1 .75-.75h.01a.75.75 0 0 1 0 1.5H12a.75.75 0 0 1-.75-.75Zm1.5 3a.75.75 0 0 0-1.5 0v5c0 .414.336.75.75.75h1a.75.75 0 0 0 0-1.5h-.25V11Z"/>
  </symbol>
  <symbol id="icon-route" viewBox="0 0 24 24" fill="currentColor">
    <path fill-rule="evenodd" clip-rule="evenodd" d="M16.75 5a1.25 1.25 0 1 1 2.5 0 1.25 1.25 0 0 1-2.5 0ZM18 2.25a2.75 2.75 0 1 0 0 5.5 2.75 2.75 0 0 0 0-5.5Zm-9.5 3.5a2.75 2.75 0 1 0 0 5.5h8a4.25 4.25 0 0 1 0 8.5H11a.75.75 0 0 1 0-1.5h5.5a2.75 2.75 0 1 0 0-5.5h-8a4.25 4.25 0 0 1 0-8.5H13a.75.75 0 0 1 0 1.5H8.5Zm-2.5 12a1.25 1.25 0 1 0 0 2.5 1.25 1.25 0 0 0 0-2.5ZM3.25 19a2.75 2.75 0 1 1 5.5 0 2.75 2.75 0 0 1-5.5 0Z"/>
  </symbol>
  <symbol id="icon-car-accident" viewBox="0 0 24 24" fill="currentColor">
    <path fill-rule="evenodd" clip-rule="evenodd" d="M17.532 3.715a.75.75 0 0 1 .53.919l-.776 2.898a.75.75 0 0 1-1.45-.389l.777-2.897a.75.75 0 0 1 .919-.53ZM1.25 7.001A.75.75 0 0 1 2 6.25h7.5a.75.75 0 0 1 .586.281l3.774 4.719h.64A2.75 2.75 0 0 1 17.25 14v4a.75.75 0 0 1-.75.75h-1.354a2.751 2.751 0 0 1-5.292 0H2a.75.75 0 0 1 0-1.5h7.854a2.751 2.751 0 0 1 5.293 0h.603V14a1.25 1.25 0 0 0-1.25-1.25H2a.75.75 0 0 1 0-1.5h4.75v-3.5H2A.75.75 0 0 1 1.25 7Zm7 .75v3.5h3.69l-2.8-3.5h-.89Zm4.25 9a1.25 1.25 0 1 0 0 2.5 1.25 1.25 0 0 0 0-2.5Zm5.186-7.464a.75.75 0 1 0 .75 1.299l3.464-2a.75.75 0 0 0-.75-1.3l-3.464 2Zm2.069 2.522a.75.75 0 0 0-.388 1.45l2.897.776a.75.75 0 0 0 .389-1.449l-2.898-.777Z"/>
  </symbol>
  <symbol id="icon-disabled-people" viewBox="0 0 24 24" fill="currentColor">
    <path fill-rule="evenodd" clip-rule="evenodd" d="M9.482 5.448a2.224 2.224 0 1 0 0-4.448 2.224 2.224 0 0 0 0 4.448Zm.002.361c.817 0 1.48.663 1.48 1.48v.917h2.377a1.48 1.48 0 1 1 0 2.96h-2.377v.275l4.164.595a1.48 1.48 0 0 1 1.177.945l1.969 5.252h.804a1.48 1.48 0 0 1 0 2.96h-1.83a1.48 1.48 0 0 1-1.385-.961l-2.022-5.39-4.566-.653a1.48 1.48 0 0 1-1.271-1.465V7.29c0-.817.663-1.48 1.48-1.48Zm-2.002 5.616a.192.192 0 0 0-.282-.173 6.25 6.25 0 1 0 8.068 9.123.197.197 0 0 0 .023-.183l-.479-1.276c-.065-.173-.318-.176-.402-.012a4.75 4.75 0 1 1-7.014-6.007.214.214 0 0 0 .086-.173v-1.299Z"/>
  </symbol>
  <symbol id="icon-bus-hollow" viewBox="0 0 24 24" fill="currentColor">
    <path fill-rule="evenodd" clip-rule="evenodd" d="M8.55 6.708H3.357v2.656H8.55V6.708Zm1.11-2.22h7.215c1.731 0 3.28.964 4.351 2.465 1.069 1.495 1.635 3.466 1.635 5.471V17.3a1.11 1.11 0 0 1-1.11 1.11h-1.065a3.061 3.061 0 0 1-5.673 0h-6.03a3.061 3.061 0 0 1-5.673 0H2.25a1.11 1.11 0 0 1-1.11-1.11V6.574a2.085 2.085 0 0 1 2.085-2.085H9.66Zm1.11 2.22v2.656h4.801l-.569-2.656H10.77Zm5.277 4.876H3.358v4.414a3.06 3.06 0 0 1 5.657.192h5.967a3.061 3.061 0 0 1 5.66-.186v-2.47h-3.28a1.11 1.11 0 0 1-1.085-.877l-.23-1.073Zm4.52-.27c-.158-1.183-.564-2.256-1.147-3.071-.64-.895-1.403-1.373-2.14-1.5l.98 4.571h2.308ZM17.85 18.1a.84.84 0 1 1 0-1.68.84.84 0 0 1 0 1.68Zm-12.542-.78v-.02l-.001-.064a.84.84 0 1 1 .002.084Z"/>
  </symbol>
  <symbol id="icon-car-hollow" viewBox="0 0 24 24" fill="currentColor">
    <path fill-rule="evenodd" clip-rule="evenodd" d="M4.304 5.721A.75.75 0 0 1 5 5.25h9a.75.75 0 0 1 .586.281l3.774 4.719H19A2.75 2.75 0 0 1 21.75 13v4a.75.75 0 0 1-.75.75h-1.354a2.751 2.751 0 0 1-5.293 0H9.646a2.751 2.751 0 0 1-5.292 0H3a.75.75 0 0 1-.75-.75v-6a.75.75 0 0 1 .054-.278l2-5Zm10.05 10.529a2.751 2.751 0 0 1 5.293 0h.603V13A1.25 1.25 0 0 0 19 11.75H3.75v4.5h.604a2.751 2.751 0 0 1 5.292 0h4.707Zm-10.246-6h7.142v-3.5H5.508l-1.4 3.5Zm8.642-3.5v3.5h3.69l-2.8-3.5h-.89Zm-5.75 9a1.25 1.25 0 1 0 0 2.5 1.25 1.25 0 0 0 0-2.5ZM15.75 17a1.25 1.25 0 1 1 2.5 0 1.25 1.25 0 0 1-2.5 0Z"/>
  </symbol>
  <symbol id="icon-work" viewBox="0 0 24 24" fill="currentColor">
    <path fill-rule="evenodd" clip-rule="evenodd" d="M12.125 7.876a1.688 1.688 0 1 0 0-3.376 1.688 1.688 0 0 0 0 3.376Zm2.07-.726a.75.75 0 0 0-.706.496l-1.692 4.717a.747.747 0 0 0 .018.55l-4.157 2.39a.752.752 0 0 0-.155.118L6.034 13.1a.75.75 0 0 0-1.223-.063l-4 5.085a.75.75 0 0 0 .59 1.213h7.215a.75.75 0 0 0 .634-1.15l-.964-1.525a.757.757 0 0 0 .12-.056l4.659-2.679a.75.75 0 0 0 .18-1.155l1.257-3.502 1.783 1.783-2.62 2.62a.75.75 0 0 0-.22.53v3.24a.75.75 0 0 0 1.5 0v-2.93l1.65-1.65v1.34c0 .199.08.39.22.53l3.24 3.24a.75.75 0 0 0 1.06-1.06l-3.02-3.02v-2.84a.75.75 0 0 0-.22-.53l-1.869-1.87h2.739l.177.177-.526.302a.75.75 0 0 0 .748 1.3l3.13-1.8a.75.75 0 1 0-.747-1.3l-1.258.723-.683-.683a.75.75 0 0 0-.53-.22h-4.86ZM2.945 17.834h4.31l-1.921-3.036-2.39 3.036Z"/>
  </symbol>
  <symbol id="icon-alert-triangle" viewBox="0 0 24 24" fill="currentColor">
    <path fill-rule="evenodd" clip-rule="evenodd" d="M12.236 3.948a.271.271 0 0 0-.474 0l-8.477 15.26c-.1.18.03.402.237.402h16.954a.271.271 0 0 0 .238-.403L12.236 3.948Zm-1.785-.728c.675-1.215 2.422-1.215 3.096 0l8.478 15.259a1.771 1.771 0 0 1-1.549 2.631H3.522a1.771 1.771 0 0 1-1.548-2.631l8.477-15.26Zm1.548 5.53a.75.75 0 0 1 .75.75v5a.75.75 0 0 1-1.5 0v-5a.75.75 0 0 1 .75-.75Zm0 7.777a.75.75 0 0 0 0 1.5h.011a.75.75 0 0 0 0-1.5H12Z"/>
  </symbol>
  <symbol id="icon-speed-intense" viewBox="0 0 24 24" fill="currentColor">
    <path fill-rule="evenodd" clip-rule="evenodd" d="m7.69 7.066.518.791a.75.75 0 1 1-1.255.822l-.483-.74a8.49 8.49 0 0 0-2.23 2.998l1.15.5a.75.75 0 1 1-.598 1.375l-1.032-.449c-.27 1.174-.262 2.371-.253 3.76v.075h3.874a.75.75 0 0 1 0 1.5H2.76a.75.75 0 0 1-.75-.75c0-.261-.002-.523-.004-.785-.015-1.682-.03-3.378.562-5.075a9.99 9.99 0 0 1 18.863 0c.592 1.697.577 3.393.563 5.075a68.62 68.62 0 0 0-.005.785.75.75 0 0 1-.75.75h-4.62a.75.75 0 1 1 0-1.5h3.873v-.075c.01-1.392.02-2.591-.254-3.768l-.7.296a.75.75 0 1 1-.585-1.381l.803-.34a8.49 8.49 0 0 0-2.25-3.011l-.56.784a.75.75 0 1 1-1.22-.87l.557-.783a8.49 8.49 0 0 0-3.533-1.126v.923a.75.75 0 0 1-1.5 0v-.923a8.49 8.49 0 0 0-3.56 1.142Zm9.66 3.403a.75.75 0 0 1 .095 1.056l-3.424 4.103a2.502 2.502 0 1 1-1.21-.891l.01-.013 3.472-4.16a.75.75 0 0 1 1.056-.095Zm-4.347 6.636a1.002 1.002 0 1 1-2.005 0 1.002 1.002 0 0 1 2.005 0Z"/>
  </symbol>
  <symbol id="icon-filter" viewBox="0 0 24 24" fill="currentColor">
    <path fill-rule="evenodd" clip-rule="evenodd" d="M4.571 4.25a.75.75 0 0 0-.248.042 1.893 1.893 0 0 0-.946 2.84c.02.03.043.06.068.087l5.522 6.074v4.277a.75.75 0 0 0 .3.6l4.57 3.43a.75.75 0 0 0 1.2-.6v-7.712l5.518-6.07a.75.75 0 0 0 .068-.086 1.893 1.893 0 0 0-.946-2.84.75.75 0 0 0-.249-.042H4.571Zm8.966 8.799a.748.748 0 0 1 .194-.553l5.667-6.234a.394.394 0 0 0-.132-.512H4.734a.393.393 0 0 0-.132.512l5.633 6.196a.748.748 0 0 1 .232.542v4.195l3.07 2.305v-6.451Z"/>
  </symbol>
  <symbol id="icon-columns" viewBox="0 0 24 24" fill="currentColor">
    <path fill-rule="evenodd" clip-rule="evenodd" d="M2.5 4.5a.75.75 0 0 1 .75-.75h3.5a.75.75 0 0 1 .75.75v15a.75.75 0 0 1-.75.75h-3.5a.75.75 0 0 1-.75-.75v-15Zm1.5.75v13.5h2V5.25H4Zm5.5-.75a.75.75 0 0 1 .75-.75h3.5a.75.75 0 0 1 .75.75v15a.75.75 0 0 1-.75.75h-3.5a.75.75 0 0 1-.75-.75v-15Zm1.5.75v13.5h2V5.25h-2Zm6.25-1.5a.75.75 0 0 0-.75.75v15c0 .414.336.75.75.75h3.5a.75.75 0 0 0 .75-.75v-15a.75.75 0 0 0-.75-.75h-3.5Zm.75 15V5.25h2v13.5h-2Z"/>
  </symbol>
  <symbol id="icon-close-delete" viewBox="0 0 24 24" fill="currentColor">
    <path d="M17.734 6.275a.907.907 0 0 0-1.283 0L12 10.717 7.55 6.266a.907.907 0 1 0-1.284 1.283L10.716 12l-4.45 4.45a.908.908 0 0 0 1.283 1.284L12 13.284l4.45 4.45a.907.907 0 1 0 1.284-1.283L13.284 12l4.45-4.45a.912.912 0 0 0 0-1.275Z"/>
  </symbol>
  <symbol id="icon-chart-pie" viewBox="0 0 24 24" fill="currentColor">
    <path fill-rule="evenodd" clip-rule="evenodd" d="M14.55 1.35a.75.75 0 0 0-.75.75v7.5c0 .415.336.75.75.75h7.5a.75.75 0 0 0 .75-.75 8.25 8.25 0 0 0-8.25-8.25Zm-3.627 2.053a9.524 9.524 0 1 0 9.524 9.524.75.75 0 0 0-.75-.75h-8.024V4.154a.75.75 0 0 0-.75-.75Z"/>
  </symbol>
  <symbol id="icon-chart-bar" viewBox="0 0 24 24" fill="currentColor">
    <path fill-rule="evenodd" clip-rule="evenodd" d="M20.222 2H17.14a.75.75 0 0 0-.75.75v18.5c0 .413.336.75.75.75h3.083a.75.75 0 0 0 .75-.75V2.75a.75.75 0 0 0-.75-.75ZM6.862 6.111H3.778a.75.75 0 0 0-.75.75V21.25c0 .414.336.75.75.75h3.084a.75.75 0 0 0 .75-.75V6.86a.75.75 0 0 0-.75-.75Zm6.68 5.139H10.46a.75.75 0 0 0-.75.75v9.25c0 .413.336.75.75.75h3.083a.75.75 0 0 0 .75-.75V12a.75.75 0 0 0-.75-.75Z"/>
  </symbol>
  <symbol id="icon-chart-line" viewBox="0 0 24 24" fill="currentColor">
    <path fill-rule="evenodd" clip-rule="evenodd" d="M21.677 3.323a.75.75 0 1 0-1.354-.645l-4.568 9.593-4.253-3.828a.75.75 0 0 0-1.173.222l-4 8a.75.75 0 0 0 1.342.67l3.56-7.119 4.267 3.842a.75.75 0 0 0 1.18-.235l5-10.5ZM3.75 3a.75.75 0 0 0-1.5 0v18c0 .414.336.75.75.75h18a.75.75 0 0 0 0-1.5H3.75V3Z"/>
  </symbol>
  <symbol id="icon-settings" viewBox="0 0 24 24" fill="currentColor">
    <path fill-rule="evenodd" clip-rule="evenodd" d="M12 8.25a3.75 3.75 0 1 0 0 7.5 3.75 3.75 0 0 0 0-7.5ZM9.75 12a2.25 2.25 0 1 1 4.5 0 2.25 2.25 0 0 1-4.5 0Z"/><path fill-rule="evenodd" clip-rule="evenodd" d="M14.404 4.14c-.611-2.52-4.196-2.52-4.808 0a.974.974 0 0 1-1.452.602c-2.216-1.349-4.75 1.186-3.402 3.4a.975.975 0 0 1-.602 1.454c-2.52.611-2.52 4.197 0 4.808a.974.974 0 0 1 .601 1.453c-1.348 2.215 1.187 4.75 3.401 3.4a.975.975 0 0 1 1.454.603c.611 2.52 4.197 2.52 4.808 0a.974.974 0 0 1 1.453-.601c2.215 1.348 4.75-1.187 3.4-3.401a.975.975 0 0 1 .603-1.454c2.52-.611 2.52-4.197 0-4.808a.974.974 0 0 1-.601-1.453c1.348-2.215-1.187-4.75-3.401-3.4a.975.975 0 0 1-1.454-.603Zm-3.35.354c.24-.992 1.652-.992 1.892 0a2.475 2.475 0 0 0 3.692 1.53c.872-.531 1.87.466 1.34 1.339a2.473 2.473 0 0 0 1.528 3.69c.991.241.992 1.652 0 1.893a2.475 2.475 0 0 0-1.53 3.692c.531.872-.466 1.87-1.339 1.34a2.474 2.474 0 0 0-3.69 1.528c-.241.991-1.652.992-1.893 0a2.475 2.475 0 0 0-3.692-1.53c-.872.531-1.87-.466-1.34-1.339a2.474 2.474 0 0 0-1.528-3.69c-.992-.241-.992-1.652 0-1.893a2.475 2.475 0 0 0 1.53-3.692c-.531-.872.466-1.87 1.339-1.34 1.43.873 3.295.1 3.69-1.528Z"/>
  </symbol>
  <symbol id="icon-add-plus" viewBox="0 0 24 24" fill="currentColor">
    <rect x="11" y="4" width="2" height="16" rx="1"/><rect x="20" y="11" width="2" height="16" rx="1" transform="rotate(90 20 11)"/>
  </symbol>
  <symbol id="icon-trash" viewBox="0 0 24 24" fill="currentColor">
    <path fill-rule="evenodd" clip-rule="evenodd" d="M10 3.95a.25.25 0 0 0-.25.25v1.25h4.5V4.2a.25.25 0 0 0-.25-.25h-4Zm5.75 1.5V4.2A1.75 1.75 0 0 0 14 2.45h-4A1.75 1.75 0 0 0 8.25 4.2v1.25H4a.75.75 0 0 0 0 1.5h.31l.94 11.283A2.75 2.75 0 0 0 8 20.949h8a2.75 2.75 0 0 0 2.75-2.716l.94-11.284H20a.75.75 0 0 0 0-1.5h-4.25ZM15 6.95H5.815l.932 11.187a.75.75 0 0 1 .003.062A1.25 1.25 0 0 0 8 19.45h8a1.25 1.25 0 0 0 1.25-1.25c0-.02 0-.041.003-.062l.932-11.188H15Zm-5 2.5a.75.75 0 0 1 .75.75v6a.75.75 0 0 1-1.5 0v-6a.75.75 0 0 1 .75-.75Zm4.75.75a.75.75 0 0 0-1.5 0v6a.75.75 0 0 0 1.5 0v-6Z"/>
  </symbol>
  <symbol id="icon-wind" viewBox="0 0 24 24" fill="currentColor">
    <path fill-rule="evenodd" clip-rule="evenodd" d="M13.022 2.293a3.25 3.25 0 1 1 .471 6.457H5a.75.75 0 1 1 0-1.5h8.514a1.75 1.75 0 1 0-1.638-2.268.75.75 0 1 1-1.432-.445 3.25 3.25 0 0 1 2.578-2.244Zm6.418 10.7a1.76 1.76 0 0 0-.926-.244H3a.75.75 0 0 1 0-1.5h15.493a3.25 3.25 0 1 1-3.05 4.213.75.75 0 1 1 1.433-.444 1.751 1.751 0 0 0 3.09.506 1.75 1.75 0 0 0-.526-2.53ZM9.514 16.75a1.75 1.75 0 1 1-1.638 2.268.75.75 0 0 0-1.432.445 3.25 3.25 0 1 0 3.05-4.213H4a.75.75 0 0 0 0 1.5h5.514Z"/>
  </symbol>
  <symbol id="icon-overpass" viewBox="0 0 24 24" fill="currentColor">
    <path fill-rule="evenodd" clip-rule="evenodd" d="M11.5 2h1v4h-1V2Zm0 5h1v3h-1V7Zm1 6h-1v3h1v-3Zm-1 4h1v4h-1v-4Zm-6.25-4.75H2a.75.75 0 0 1 0-1.5h20a.75.75 0 0 1 0 1.5h-3.25V14a.75.75 0 0 1-1.5 0v-1.75H6.75V14a.75.75 0 0 1-1.5 0v-1.75ZM15 2h-1l.632 8h1L15 2Zm.868 11h-1l.632 8h1l-.632-8ZM9 2h1l-.632 8h-1L9 2Zm-.868 11h1L8.5 21h-1l.632-8Z"/>
  </symbol>
  <symbol id="icon-clear-input" viewBox="0 0 24 24" fill="currentColor">
    <path fill-rule="evenodd" clip-rule="evenodd" d="M5.898 12a6.1 6.1 0 1 1 12.2 0 6.1 6.1 0 0 1-12.2 0Zm6.1-7.9a7.9 7.9 0 1 0 0 15.801 7.9 7.9 0 0 0 0-15.8ZM10.3 9.032a.9.9 0 1 0-1.272 1.272L10.726 12l-1.697 1.697a.9.9 0 0 0 1.272 1.273L12 13.273l1.698 1.697a.9.9 0 1 0 1.272-1.272L13.271 12l1.697-1.697a.9.9 0 0 0-1.272-1.272l-1.7 1.697-1.695-1.697Z"/>
  </symbol>
  <symbol id="icon-focus-zone" viewBox="0 0 24 24" fill="currentColor">
    <path fill-rule="evenodd" clip-rule="evenodd" d="M12 2.1a.9.9 0 0 1 .9.9v1.15a7.903 7.903 0 0 1 6.949 6.95h1.15a.9.9 0 1 1 0 1.8h-1.15a7.904 7.904 0 0 1-6.95 6.949v1.15a.9.9 0 1 1-1.8 0v-1.15a7.903 7.903 0 0 1-6.949-6.95H3a.9.9 0 1 1 0-1.8h1.15A7.903 7.903 0 0 1 11.1 4.15V3a.9.9 0 0 1 .9-.9ZM5.9 12a6.1 6.1 0 1 1 12.2 0 6.1 6.1 0 0 1-12.2 0Zm6.1-1.5a1.5 1.5 0 1 0 0 3 1.5 1.5 0 0 0 0-3Z"/>
  </symbol>
  <symbol id="icon-model-layer" viewBox="0 0 24 24" fill="currentColor">
    <path fill-rule="evenodd" clip-rule="evenodd" d="M12.378 2.063a.75.75 0 0 0-.741-.009l-8 4.426a.75.75 0 0 0-.387.656v9.239c0 .27.146.52.382.653l8 4.5a.75.75 0 0 0 .736 0l8-4.5a.75.75 0 0 0 .382-.653v-9a.75.75 0 0 0-.372-.648l-8-4.664ZM4.75 8.783v7.153l6.5 3.656V12.44l-6.5-3.657ZM12 11.14l6.6-3.713-6.61-3.854-6.776 3.75L12 11.138Zm7.25 4.796-6.5 3.656V12.44l6.5-3.657v7.154Z"/>
  </symbol>
  <symbol id="icon-node-layer" viewBox="0 0 24 24" fill="currentColor">
    <path fill-rule="evenodd" clip-rule="evenodd" d="M14.944 4.822a1.076 1.076 0 1 1 1.522 1.522 1.076 1.076 0 0 1-1.522-1.522Zm2.583-1.061a2.576 2.576 0 1 0-3.644 3.643 2.576 2.576 0 0 0 3.644-3.643ZM7.056 11.239a1.076 1.076 0 1 0-1.522 1.522 1.076 1.076 0 0 0 1.522-1.522Zm-2.583-1.06a2.576 2.576 0 1 1 3.644 3.643 2.576 2.576 0 0 1-3.644-3.644Zm11.993 7.477a1.076 1.076 0 1 0-1.522 1.522 1.076 1.076 0 0 0 1.522-1.522Zm-2.583-1.06a2.576 2.576 0 1 1 3.644 3.643 2.576 2.576 0 0 1-3.644-3.643Z"/>
  </symbol>
  <symbol id="icon-line-layer" viewBox="0 0 24 24" fill="currentColor">
    <path fill-rule="evenodd" clip-rule="evenodd" d="M18.611 4.489a.9.9 0 1 0 0 1.8.9.9 0 0 0 0-1.8Zm-2.4.9a2.4 2.4 0 1 1 4.8 0 2.4 2.4 0 0 1-4.8 0ZM5.39 17.71a.9.9 0 1 0 0 1.8.9.9 0 0 0 0-1.8Zm-2.4.9a2.4 2.4 0 1 1 4.8 0 2.4 2.4 0 0 1-4.8 0ZM16 9.001a.75.75 0 0 0-1.062-1.061l-6.997 7.003a.75.75 0 1 0 1.061 1.06L16.001 9Z"/>
  </symbol>
  <symbol id="icon-polygon-layer" viewBox="0 0 24 24" fill="currentColor">
    <path fill-rule="evenodd" clip-rule="evenodd" d="M17.711 5.389a.9.9 0 1 1 1.8 0 .9.9 0 0 1-1.8 0Zm.9-2.4a2.4 2.4 0 1 0 0 4.8 2.4 2.4 0 0 0 0-4.8ZM4.49 18.61a.9.9 0 1 1 1.8 0 .9.9 0 0 1-1.8 0Zm.9-2.4a2.4 2.4 0 1 0 0 4.8 2.4 2.4 0 0 0 0-4.8Zm13.222 1.5a.9.9 0 1 0 0 1.8.9.9 0 0 0 0-1.8Zm-2.4.9a2.4 2.4 0 1 1 4.8 0 2.4 2.4 0 0 1-4.8 0ZM4.49 5.39a.9.9 0 1 1 1.8 0 .9.9 0 0 1-1.8 0Zm.9-2.4a2.4 2.4 0 1 0 0 4.8 2.4 2.4 0 0 0 0-4.8Zm0 5.461a.75.75 0 0 1 .75.75v5.6a.75.75 0 0 1-1.5 0V9.2a.75.75 0 0 1 .75-.75ZM9.2 4.639a.75.75 0 0 0 0 1.5h5.6a.75.75 0 0 0 0-1.5H9.2ZM8.45 18.61a.75.75 0 0 1 .75-.75h5.6a.75.75 0 0 1 0 1.5H9.2a.75.75 0 0 1-.75-.75ZM19.361 9.2a.75.75 0 0 0-1.5 0v5.6a.75.75 0 0 0 1.5 0V9.2Z"/>
  </symbol>
  <symbol id="icon-drag" viewBox="0 0 24 24" fill="currentColor">
    <path fill-rule="evenodd" clip-rule="evenodd" d="M5 8.75a.75.75 0 0 0 0 1.5h14a.75.75 0 0 0 0-1.5H5Zm0 5a.75.75 0 0 0 0 1.5h14a.75.75 0 0 0 0-1.5H5Z"/>
  </symbol>
  <symbol id="icon-drag-1" viewBox="0 0 24 24" fill="currentColor">
    <path fill-rule="evenodd" clip-rule="evenodd" d="M5 6.75a.75.75 0 0 0 0 1.5h14a.75.75 0 0 0 0-1.5H5Zm0 5a.75.75 0 0 0 0 1.5h14a.75.75 0 0 0 0-1.5H5Z"/>
    <path d="M17.89 17.367v-1.73m-1.092 1.736-.008-1.737m-1.073.016.011 1.713m-1.626-3.847c.26-.089.773-.035.909.236.115.232.214.621.22.538.012-.184-.014-.583.074-.792a.578.578 0 0 1 .371-.345 1.13 1.13 0 0 1 .496-.028c.17.032.348.143.415.25.196.311.2.949.208.915.035-.136.038-.614.154-.792a.677.677 0 0 1 .372-.24c.159-.025.355-.034.522-.003.135.024.317.171.367.243.118.172.185.658.205.829.009.07.04-.197.159-.368.22-.32.998-.382 1.028.32.014.326.01.311.01.531 0 .258-.006.415-.021.602-.016.199-.063.652-.13.87a2.88 2.88 0 0 1-.354.693s-.582.625-.645.905c-.064.282-.043.284-.056.483-.012.2.066.462.066.462s-.434.051-.669.016c-.212-.03-.474-.42-.541-.538-.093-.165-.292-.133-.37-.012-.121.192-.384.535-.569.556-.362.043-1.113.015-1.7.01 0 0 .1-.505-.123-.679-.165-.13-.45-.392-.62-.53l-.45-.46c-.154-.18-.543-.465-.674-.992-.115-.469-.104-.698.02-.886A.814.814 0 0 1 13.24 15c.112-.021.374-.02.474.031.12.061.17.08.264.195.125.154.169.228.115.061-.04-.131-.174-.298-.235-.485-.059-.18-.217-.471-.205-.763.004-.11.055-.386.45-.521Z" fill="none" stroke="#000" stroke-width=".75" stroke-linecap="round" stroke-linejoin="round"/>
  </symbol>
  <symbol id="icon-selection-field" viewBox="0 0 24 24" fill="currentColor">
    <path fill-rule="evenodd" clip-rule="evenodd" d="M2.25 2.25h2.607a.75.75 0 1 1 0 1.5H3.75v1.107a.75.75 0 1 1-1.5 0V2.25ZM6.893 3a.75.75 0 0 1 .75-.75h3.714a.75.75 0 1 1 0 1.5H7.643a.75.75 0 0 1-.75-.75Zm6.5 0a.75.75 0 0 1 .75-.75h2.607v3.321a.75.75 0 0 1-1.5 0V3.75h-1.107a.75.75 0 0 1-.75-.75ZM3 6.893a.75.75 0 0 1 .75.75v3.714a.75.75 0 1 1-1.5 0V7.643a.75.75 0 0 1 .75-.75Zm13 1.786a.75.75 0 0 1 .75.75V12a.75.75 0 0 1-1.5 0V9.429a.75.75 0 0 1 .75-.75ZM3 13.393a.75.75 0 0 1 .75.75v1.107h1.821a.75.75 0 0 1 0 1.5H2.25v-2.607a.75.75 0 0 1 .75-.75ZM8.679 16a.75.75 0 0 1 .75-.75H12a.75.75 0 0 1 0 1.5H9.429a.75.75 0 0 1-.75-.75Zm5.791-1.53a.75.75 0 0 1 .767-.181l7 2.333a.75.75 0 0 1 .098 1.382l-2.887 1.444-1.444 2.887a.75.75 0 0 1-1.382-.098l-2.333-7a.75.75 0 0 1 .18-.767Zm1.716 1.716 1.286 3.86.746-1.492a.749.749 0 0 1 .335-.336l1.492-.746-3.86-1.286Z"/>
  </symbol>
  <symbol id="icon-epure-layer" viewBox="0 0 24 24" fill="currentColor">
    <path fill-rule="evenodd" clip-rule="evenodd" d="M12.085 4.08A.75.75 0 0 0 11.75 4h-8.5a.75.75 0 0 0-.375 1.4v13.2A.75.75 0 0 0 3.25 20h17.5a.75.75 0 0 0 .375-1.4V9.9a.75.75 0 0 0-.04-1.32l-9-4.5Zm8.29 5.821-2.75-1.375V18.5h2.75V9.901Zm-3.5-1.75V18.5h-2.75V6.776l2.75 1.375Zm-3.5-1.75L11.573 5.5h-.948v13h2.75V6.401Zm-3.5-.901v13h-2.75v-13h2.75Zm-3.5 0h-2.75v13h2.75v-13Z"/>
  </symbol>
  <symbol id="icon-ruler" viewBox="0 0 24 24" fill="currentColor">
    <path fill-rule="evenodd" clip-rule="evenodd" d="M17.531 2.47a.75.75 0 0 0-1.06 0l-2.495 2.494a1.218 1.218 0 0 0-.006.006l-.006.006-2.988 2.988a.278.278 0 0 0-.006.006l-.006.006-2.988 2.988-.006.006-.006.006-2.988 2.988-.006.006a1.215 1.215 0 0 0-.006.006L2.47 16.47a.75.75 0 0 0 0 1.061l4 4a.75.75 0 0 0 1.06 0l14.001-14a.75.75 0 0 0 0-1.061l-4-4ZM5.501 15.56 4.061 17 7 19.94 19.94 7 17 4.06 15.56 5.5l.97.969a.75.75 0 1 1-1.06 1.06l-.97-.97-1.94 1.94.97.97a.75.75 0 0 1-1.06 1.06l-.97-.969-1.94 1.94.97.97a.75.75 0 1 1-1.061 1.06l-.97-.97-1.94 1.94.97.97a.75.75 0 0 1-1.06 1.06l-.97-.97Z"/>
  </symbol>
  <symbol id="icon-edit" viewBox="0 0 24 24" fill="currentColor">
    <path fill-rule="evenodd" clip-rule="evenodd" d="M14.387 4.964a3.287 3.287 0 0 1 4.649 4.649l-.79.79-.004.004-.004.004-9.368 9.368a.75.75 0 0 1-.53.22H4.75a.75.75 0 0 1-.75-.75V15.66a.75.75 0 0 1 .22-.53L14.387 4.963Zm3.325 3.852.263-.264a1.787 1.787 0 1 0-2.527-2.527l-.264.263 2.528 2.528Zm-3.589-1.467 2.528 2.528-8.054 8.053-2.527-2.527 8.053-8.054Zm-8.622 8.622.004-.004-.004.026v-.022ZM8.03 18.5h-.022l.026-.005-.004.005Z"/>
  </symbol>
  <symbol id="icon-copy" viewBox="0 0 24 24" fill="currentColor">
    <path fill-rule="evenodd" clip-rule="evenodd" d="M6 2.75A2.75 2.75 0 0 0 3.25 5.5v9.2c0 .73.29 1.429.805 1.945a.75.75 0 0 0 1.061-1.061 1.25 1.25 0 0 1-.366-.884V5.5A1.25 1.25 0 0 1 6 4.25h8c.332 0 .65.132.884.366a.75.75 0 1 0 1.06-1.06A2.75 2.75 0 0 0 14 2.75H6ZM8.75 9.5c0-.69.56-1.25 1.25-1.25h8c.69 0 1.25.56 1.25 1.25v9.2c0 .69-.56 1.25-1.25 1.25h-8c-.69 0-1.25-.56-1.25-1.25V9.5ZM10 6.75A2.75 2.75 0 0 0 7.25 9.5v9.2A2.75 2.75 0 0 0 10 21.45h8a2.75 2.75 0 0 0 2.75-2.75V9.5A2.75 2.75 0 0 0 18 6.75h-8Zm4 4.1a.75.75 0 0 1 .75.75v1.75h1.75a.75.75 0 0 1 0 1.5h-1.75v1.75a.75.75 0 0 1-1.5 0v-1.75H11.5a.75.75 0 0 1 0-1.5h1.75V11.6a.75.75 0 0 1 .75-.75Z"/>
  </symbol>
  <symbol id="icon-return" viewBox="0 0 24 24" fill="currentColor">
    <path fill-rule="evenodd" clip-rule="evenodd" d="M8.53 5.53a.75.75 0 1 0-1.06-1.06L3.646 8.293a1 1 0 0 0 0 1.414L7.47 13.53a.75.75 0 0 0 1.06-1.06L5.81 9.75H16a3.25 3.25 0 0 1 0 6.5h-1a.75.75 0 0 0 0 1.5h1a4.75 4.75 0 0 0 0-9.5H5.81l2.72-2.72Z"/>
  </symbol>
</svg>