<svg width="24" height="24" fill="none" xmlns="http://www.w3.org/2000/svg"><path fill-rule="evenodd" clip-rule="evenodd" d="M22.052 3.628a.75.75 0 0 0-1.28-.53l-3.296 3.295-4.609-2.933a.75.75 0 0 0-.933.103l-6.492 6.492-2.265-1.887a.75.75 0 0 0-1.23.576v11.628c0 .414.336.75.75.75h18.605a.75.75 0 0 0 .75-.75V3.628Zm-1.5 6.27v-4.46l-2.44 2.441a.75.75 0 0 1-.934.103L12.57 5.049 6.018 11.6a.75.75 0 0 1-1.01.046l-1.56-1.3v4.628l1.994 1.663 6.492-6.493a.75.75 0 0 1 .933-.102l4.61 2.933 3.075-3.076Z" fill="#6E7480"/></svg>