<svg width="24" height="24" fill="none" xmlns="http://www.w3.org/2000/svg"><path fill-rule="evenodd" clip-rule="evenodd" d="M12.105 1.947a.75.75 0 0 0-.75.75V12.93c0 .414.336.75.75.75h10.232a.75.75 0 0 0 .75-.75c0-6.066-4.917-10.983-10.982-10.983ZM.913 12.93c0 .414.336.75.75.75h7.442a.75.75 0 0 0 .75-.75V5.488a.75.75 0 0 0-.75-.75A8.192 8.192 0 0 0 .913 12.93Zm17.523 3a.75.75 0 0 0-.75-.75h-5.581a.75.75 0 0 0-.75.75v5.581c0 .414.336.75.75.75a6.331 6.331 0 0 0 6.331-6.331ZM9.105 20.4a.75.75 0 0 0 .75-.75v-3.72a.75.75 0 0 0-.75-.75H5.384a.75.75 0 0 0-.75.75 4.47 4.47 0 0 0 4.47 4.47Z" fill="#6E7480"/></svg>