<svg width="24" height="24" fill="none" xmlns="http://www.w3.org/2000/svg"><path fill-rule="evenodd" clip-rule="evenodd" d="M12 2.25c.164 0 .315.052.438.141l9.992 6.995a.75.75 0 0 1 .281.852l-3.684 11a.75.75 0 0 1-.711.512H5.684a.75.75 0 0 1-.71-.512l-3.685-11a.75.75 0 0 1 .281-.852l9.993-6.995A.747.747 0 0 1 12 2.25Zm-4.5 18h9l-1.875-2.5h-5.25L7.5 20.25Zm.322-2.93L6.04 19.699l-2.92-8.717 2.704.854 1.971 5.42a.755.755 0 0 0 .027.065Zm2.678-1.07h3l-1.5-2-1.5 2Zm.265-2.854-1.87 2.494-1.268-3.484 3.138.99ZM3.831 9.634l7.42-5.194v2.678l-4.659 3.388-2.761-.872Zm8.92-5.194v2.678l4.657 3.388 2.761-.872L12.75 4.44Zm-4.38 6.627 2.88-2.094v3.004l-2.88-.91Zm4.38-2.094v3.004l2.879-.91-2.88-2.094Zm.484 4.423 1.606 2.142 1.405-3.092-3.011.95Zm2.632 3.51 2.094 2.792 2.92-8.716-2.71.856-2.304 5.068Z" fill="#6E7480"/></svg>