<svg width="24" height="25" fill="none" xmlns="http://www.w3.org/2000/svg"><path fill-rule="evenodd" clip-rule="evenodd" d="M6.116 4.515c.235-.239.552-.373.884-.373h6.25v3.313c0 .464.181.913.508 1.246A1.74 1.74 0 0 0 15 9.224h3.25v2.242H5.75v-6.05c0-.338.132-.662.366-.9ZM4.25 11.466v-6.05c0-.743.29-1.456.805-1.982A2.724 2.724 0 0 1 7 2.614h7c.199 0 .39.08.53.223l5 5.096c.141.144.22.338.22.54v2.993H22a1 1 0 0 1 1 1v5.135a1 1 0 0 1-1 1h-2.25v1.084a2.83 2.83 0 0 1-.805 1.982 2.724 2.724 0 0 1-1.945.821H7c-.73 0-1.429-.295-1.945-.82a2.83 2.83 0 0 1-.805-1.983v-1.084H2a1 1 0 0 1-1-1v-5.135a1 1 0 0 1 1-1h2.25Zm1.5 7.135v1.084c0 .338.132.662.366.901.235.239.552.373.884.373h10c.331 0 .65-.134.884-.373.234-.239.366-.563.366-.9V18.6H5.75Zm9-11.146V5.223l2.453 2.5H15a.24.24 0 0 1-.172-.073.28.28 0 0 1-.078-.195Zm2.119 10.192c-.436 0-.808-.076-1.116-.227a1.69 1.69 0 0 1-.71-.65 2.183 2.183 0 0 1-.27-1.027 28.19 28.19 0 0 1 0-1.317c.014-.391.104-.726.27-1.005.17-.278.41-.493.717-.644.313-.15.682-.226 1.109-.226.345 0 .648.047.909.141.26.09.476.208.646.354.176.142.306.295.391.46.09.165.138.319.142.46a.123.123 0 0 1-.035.106.154.154 0 0 1-.114.043h-.732a.174.174 0 0 1-.106-.028.25.25 0 0 1-.064-.085 1 1 0 0 0-.505-.538 1.234 1.234 0 0 0-.532-.1c-.322 0-.58.086-.775.255-.19.17-.291.451-.305.843-.014.41-.014.825 0 1.245.014.401.118.69.312.864.2.174.46.262.782.262.213 0 .402-.038.568-.113a.852.852 0 0 0 .398-.354c.1-.16.15-.366.15-.616v-.22h-.867a.164.164 0 0 1-.121-.05.172.172 0 0 1-.05-.127v-.375c0-.051.017-.094.05-.127a.165.165 0 0 1 .12-.05h1.698a.15.15 0 0 1 .121.05c.033.033.05.075.05.127v.744c0 .396-.088.738-.263 1.026a1.68 1.68 0 0 1-.739.665c-.317.156-.694.234-1.13.234Zm-10.661-.092c.232.061.476.092.732.092.397 0 .74-.073 1.03-.22a1.62 1.62 0 0 0 .682-.65c.166-.284.248-.621.248-1.013v-2.966a.172.172 0 0 0-.05-.127.174.174 0 0 0-.127-.05H5.476a.174.174 0 0 0-.128.05.178.178 0 0 0-.042.12v.496a.18.18 0 0 0 .042.12c.033.033.076.05.128.05h2.409v2.279c0 .344-.081.613-.242.807-.156.193-.384.29-.682.29-.161 0-.308-.024-.44-.07a.793.793 0 0 1-.32-.235.853.853 0 0 1-.164-.417.337.337 0 0 0-.078-.135c-.028-.033-.073-.05-.135-.05H5.15a.135.135 0 0 0-.106.05.144.144 0 0 0-.043.107 1.5 1.5 0 0 0 .163.686c.11.194.254.356.434.489.18.132.383.23.61.297Zm3.953-.029a.16.16 0 0 0 .12.05h.675a.15.15 0 0 0 .121-.05.164.164 0 0 0 .05-.12V15.75h1.058c.37 0 .692-.057.966-.17.275-.113.488-.283.64-.51.152-.23.227-.523.227-.877 0-.35-.075-.64-.227-.87a1.35 1.35 0 0 0-.64-.525 2.435 2.435 0 0 0-.966-.177h-1.904a.165.165 0 0 0-.12.05.172.172 0 0 0-.05.127v4.608a.16.16 0 0 0 .05.12Zm1.989-2.562h-1.037v-1.557h1.037c.293 0 .509.073.646.22.138.141.206.33.206.566 0 .255-.073.448-.22.58-.147.128-.357.191-.632.191Z" fill="#6E7480"/></svg>