<svg width="24" height="24" fill="none" xmlns="http://www.w3.org/2000/svg"><path fill-rule="evenodd" clip-rule="evenodd" d="M6.116 4.116A1.25 1.25 0 0 1 7 3.75h6.25V7A1.75 1.75 0 0 0 15 8.75h3.25v2.186H5.75V5c0-.332.132-.65.366-.884Zm-1.866 6.82V5A2.75 2.75 0 0 1 7 2.25h7c.203 0 .387.08.522.212l.008.008 5 5c.136.135.22.323.22.53v2.936H22a1 1 0 0 1 1 1v5a1 1 0 0 1-1 1h-2.25V19A2.75 2.75 0 0 1 17 21.75H7A2.75 2.75 0 0 1 4.25 19v-1.064H2a1 1 0 0 1-1-1v-5a1 1 0 0 1 1-1h2.25Zm1.5 7V19A1.25 1.25 0 0 0 7 20.25h10A1.25 1.25 0 0 0 18.25 19v-1.064H5.75ZM14.75 7V4.81l2.44 2.44H15a.25.25 0 0 1-.25-.25Zm-5.964 5.399C8.473 12.133 8.035 12 7.47 12H5.594a.182.182 0 0 0-.133.056.182.182 0 0 0-.056.133v4.522c0 .051.019.096.056.133a.182.182 0 0 0 .133.056h.567a.182.182 0 0 0 .133-.056.182.182 0 0 0 .056-.133V15.15h1.12c.565 0 1.003-.135 1.316-.406.313-.27.469-.663.469-1.176 0-.513-.156-.903-.469-1.169Zm4.187-.259a2.582 2.582 0 0 0-.896-.14h-1.729a.182.182 0 0 0-.133.056.181.181 0 0 0-.056.133v4.522c0 .051.019.096.056.133a.182.182 0 0 0 .133.056h1.764c.336 0 .628-.044.875-.133a1.72 1.72 0 0 0 .63-.392c.168-.168.297-.371.385-.609.094-.238.15-.504.168-.798.019-.345.019-.69 0-1.036a2.635 2.635 0 0 0-.168-.798 1.632 1.632 0 0 0-1.029-.994Zm5.433-.14c.051 0 .096.019.133.056a.182.182 0 0 1 .056.133v.497a.182.182 0 0 1-.056.133.182.182 0 0 1-.133.056h-2.233v1.358h2.093c.051 0 .096.019.133.056a.182.182 0 0 1 .056.133v.497a.182.182 0 0 1-.056.133.182.182 0 0 1-.133.056h-2.093v1.603a.182.182 0 0 1-.056.133.182.182 0 0 1-.133.056h-.567a.182.182 0 0 1-.133-.056.182.182 0 0 1-.056-.133v-4.522c0-.051.019-.096.056-.133a.182.182 0 0 1 .133-.056h2.989ZM6.35 14.275h1.085c.266 0 .478-.051.637-.154.159-.107.238-.292.238-.553 0-.261-.08-.441-.238-.539-.159-.103-.371-.154-.637-.154H6.35v1.4Zm6.875-.343c-.01-.15-.04-.287-.09-.413a.853.853 0 0 0-.218-.336.898.898 0 0 0-.357-.224 1.435 1.435 0 0 0-.518-.084h-.938v3.15h.973c.192 0 .357-.026.497-.077.14-.056.257-.13.35-.224a.893.893 0 0 0 .21-.336c.052-.13.082-.27.091-.42.019-.345.019-.69 0-1.036Z" fill="#6E7480"/></svg>