<svg width="24" height="24" fill="none" xmlns="http://www.w3.org/2000/svg"><path fill-rule="evenodd" clip-rule="evenodd" d="M7 3.75A1.25 1.25 0 0 0 5.75 5v5.436h-1.5V5A2.75 2.75 0 0 1 7 2.25h7c.203 0 .387.08.522.212l.008.008 5 5c.136.135.22.323.22.53v2.436h-1.5V8.75H15A1.75 1.75 0 0 1 13.25 7V3.75H7ZM14.75 7V4.81l2.44 2.44H15a.25.25 0 0 1-.25-.25Zm5 11.436V19A2.75 2.75 0 0 1 17 21.75H7A2.75 2.75 0 0 1 4.25 19v-.564h1.5V19A1.25 1.25 0 0 0 7 20.25h10A1.25 1.25 0 0 0 18.25 19v-.564h1.5ZM1 11.936a1 1 0 0 1 1-1h20a1 1 0 0 1 1 1v5a1 1 0 0 1-1 1H2a1 1 0 0 1-1-1v-5Zm6.776.106a2.478 2.478 0 0 0-.826-.126c-.261 0-.506.037-.735.112a1.84 1.84 0 0 0-.581.294 1.383 1.383 0 0 0-.385.455c-.093.177-.14.371-.14.581 0 .21.028.392.084.546.056.15.14.28.252.392.117.112.261.208.434.287.177.075.383.14.616.196.257.065.483.119.679.161.196.042.36.086.49.133a.784.784 0 0 1 .301.168c.065.065.098.15.098.252a.42.42 0 0 1-.091.273c-.06.07-.14.13-.238.182a1.353 1.353 0 0 1-.343.105c-.13.019-.266.028-.406.028-.177 0-.327-.014-.448-.042a1.246 1.246 0 0 1-.294-.119.651.651 0 0 1-.189-.161 1.353 1.353 0 0 1-.119-.182.317.317 0 0 0-.105-.126.328.328 0 0 0-.182-.042h-.49a.205.205 0 0 0-.14.056.15.15 0 0 0-.049.133c.014.205.077.392.189.56.112.168.259.313.441.434.187.117.399.208.637.273.238.06.488.091.749.091.313 0 .595-.037.847-.112a2.07 2.07 0 0 0 .637-.301c.173-.13.306-.285.399-.462a1.27 1.27 0 0 0 .14-.588 1.27 1.27 0 0 0-.098-.511c-.06-.15-.156-.28-.287-.392a1.539 1.539 0 0 0-.497-.294 4.163 4.163 0 0 0-.721-.217 28.567 28.567 0 0 1-.644-.147 2.659 2.659 0 0 1-.42-.133.596.596 0 0 1-.224-.175.51.51 0 0 1-.063-.266.42.42 0 0 1 .07-.238.569.569 0 0 1 .189-.175.919.919 0 0 1 .287-.112 1.44 1.44 0 0 1 .35-.042c.28 0 .49.044.63.133a.876.876 0 0 1 .322.301.58.58 0 0 0 .105.126.328.328 0 0 0 .182.042h.49a.196.196 0 0 0 .133-.049.16.16 0 0 0 .056-.14 1.02 1.02 0 0 0-.14-.427 1.301 1.301 0 0 0-.357-.42 2.043 2.043 0 0 0-.595-.315Zm6.121 0a.181.181 0 0 0-.133-.056h-.567a.182.182 0 0 0-.133.056.182.182 0 0 0-.056.133v1.799h-2.114v-1.799a.181.181 0 0 0-.056-.133.181.181 0 0 0-.133-.056h-.567a.182.182 0 0 0-.133.056.182.182 0 0 0-.056.133v4.522a.19.19 0 0 0 .056.14.196.196 0 0 0 .133.049h.567a.182.182 0 0 0 .133-.056.182.182 0 0 0 .056-.133v-1.848h2.114v1.848c0 .051.019.096.056.133a.182.182 0 0 0 .133.056h.567a.182.182 0 0 0 .133-.056.182.182 0 0 0 .056-.133v-4.522a.181.181 0 0 0-.056-.133Zm3.35-.056c.564 0 1.003.133 1.316.399.313.266.469.656.469 1.169s-.157.905-.47 1.176c-.312.27-.75.406-1.315.406h-1.12v1.561a.182.182 0 0 1-.056.133.182.182 0 0 1-.133.056h-.567a.182.182 0 0 1-.133-.056.182.182 0 0 1-.056-.133v-4.522a.18.18 0 0 1 .056-.133.181.181 0 0 1 .133-.056h1.876Zm-1.12 2.275h1.085c.266 0 .478-.051.637-.154.159-.107.238-.292.238-.553 0-.261-.08-.441-.238-.539-.159-.103-.371-.154-.637-.154h-1.085v1.4Z" fill="#6E7480"/></svg>