<svg width="24" height="24" fill="none" xmlns="http://www.w3.org/2000/svg"><path fill-rule="evenodd" clip-rule="evenodd" d="M7 3.75A1.25 1.25 0 0 0 5.75 5v5.436h-1.5V5A2.75 2.75 0 0 1 7 2.25h7c.203 0 .387.08.522.212l.008.008 5 5c.136.135.22.323.22.53v2.436h-1.5V8.75H15A1.75 1.75 0 0 1 13.25 7V3.75H7ZM14.75 7V4.81l2.44 2.44H15a.25.25 0 0 1-.25-.25Zm5 11.436V19A2.75 2.75 0 0 1 17 21.75H7A2.75 2.75 0 0 1 4.25 19v-.564h1.5V19A1.25 1.25 0 0 0 7 20.25h10A1.25 1.25 0 0 0 18.25 19v-.564h1.5ZM1 11.936a1 1 0 0 1 1-1h20a1 1 0 0 1 1 1v5a1 1 0 0 1-1 1H2a1 1 0 0 1-1-1v-5Zm1.351 1.673a1.299 1.299 0 0 0-.09.451l-.01.174v.389l.01.174c.005.165.034.318.086.459.055.138.134.256.236.356.102.099.23.176.384.231.155.056.337.083.547.083.21 0 .393-.027.55-.083.157-.058.288-.136.393-.236a.984.984 0 0 0 .236-.36c.052-.14.078-.293.078-.459v-.455a.108.108 0 0 0-.033-.078.108.108 0 0 0-.078-.033h-.952a.108.108 0 0 0-.079.033.108.108 0 0 0-.033.078v.294c0 .03.011.057.033.079a.107.107 0 0 0 .079.033h.505v.033c0 .118-.018.22-.054.302a.47.47 0 0 1-.145.194.563.563 0 0 1-.22.108 1.114 1.114 0 0 1-.28.033c-.207 0-.373-.051-.497-.153-.124-.105-.19-.272-.198-.5a6.387 6.387 0 0 1 0-.675.606.606 0 0 1 .198-.447c.124-.113.29-.17.497-.17a.84.84 0 0 1 .31.05c.083.03.149.066.198.108.053.038.09.077.112.116.025.036.04.059.046.07.008.017.02.033.037.05.02.013.044.02.074.02h.335c.03 0 .057-.01.079-.029a.095.095 0 0 0 .033-.082.793.793 0 0 0-.066-.232.716.716 0 0 0-.195-.269 1.094 1.094 0 0 0-.372-.223 1.572 1.572 0 0 0-.591-.096c-.205 0-.384.028-.538.083-.152.053-.28.128-.385.228a.951.951 0 0 0-.24.351Zm5.03 1.792a.107.107 0 0 0-.078-.033h-1.37v-.687H7.18a.11.11 0 0 0 .079-.033.107.107 0 0 0 .033-.079v-.294a.108.108 0 0 0-.033-.078.107.107 0 0 0-.08-.033H5.935v-.658H7.27a.11.11 0 0 0 .079-.033.107.107 0 0 0 .033-.079v-.293a.107.107 0 0 0-.033-.08.108.108 0 0 0-.08-.032H5.488a.108.108 0 0 0-.079.033.107.107 0 0 0-.033.079v2.672c0 .03.011.056.033.079a.108.108 0 0 0 .079.033h1.816c.03 0 .057-.011.079-.033a.108.108 0 0 0 .033-.079v-.294a.107.107 0 0 0-.033-.078Zm.507-1.332c.008-.155.037-.3.087-.435a.997.997 0 0 1 .227-.356c.1-.102.224-.182.372-.24.15-.06.326-.09.53-.09.201 0 .376.028.525.086.15.058.273.138.373.24.099.102.175.22.227.356.053.135.083.281.091.439.003.052.004.11.004.173a4.67 4.67 0 0 1 0 .393c0 .064-.001.122-.004.174-.008.155-.038.3-.09.439a.998.998 0 0 1-.224.355c-.1.1-.225.178-.377.236a1.447 1.447 0 0 1-.525.087 1.46 1.46 0 0 1-.53-.087 1.063 1.063 0 0 1-.372-.236c-.1-.102-.175-.22-.227-.355a1.53 1.53 0 0 1-.087-.439l-.009-.174v-.393l.009-.173Zm3.823-.563h.766v1.32c0 .19-.051.335-.153.434-.102.1-.248.149-.439.149a.818.818 0 0 1-.248-.033.579.579 0 0 1-.174-.095.494.494 0 0 1-.111-.141.598.598 0 0 1-.058-.161.086.086 0 0 0-.046-.058.124.124 0 0 0-.066-.02h-.335a.121.121 0 0 0-.083.032.089.089 0 0 0-.029.079c.008.127.036.245.083.356a.84.84 0 0 0 .207.29c.093.082.21.148.351.198.144.047.313.07.51.07.369 0 .653-.09.851-.269.199-.182.298-.45.298-.807V13.1a.108.108 0 0 0-.033-.078.108.108 0 0 0-.078-.033H11.71a.107.107 0 0 0-.079.033.107.107 0 0 0-.033.079v.293c0 .03.011.057.033.079a.107.107 0 0 0 .079.033Zm3.026-.559c.184 0 .347.025.488.075.14.05.258.112.351.186a.768.768 0 0 1 .211.248c.05.088.078.173.083.253a.095.095 0 0 1-.033.082.116.116 0 0 1-.079.03h-.29a.193.193 0 0 1-.107-.025.341.341 0 0 1-.062-.075.518.518 0 0 0-.19-.178c-.083-.052-.207-.078-.372-.078a.848.848 0 0 0-.207.024.544.544 0 0 0-.17.067.337.337 0 0 0-.111.103.248.248 0 0 0-.042.14.31.31 0 0 0 .037.158.353.353 0 0 0 .133.103c.063.028.146.054.248.079a16 16 0 0 0 .38.087c.166.036.308.078.427.128a.91.91 0 0 1 .293.174.6.6 0 0 1 .17.231.747.747 0 0 1 .058.302.75.75 0 0 1-.319.621 1.225 1.225 0 0 1-.376.178 1.76 1.76 0 0 1-.5.066c-.155 0-.303-.018-.443-.054a1.408 1.408 0 0 1-.377-.161.924.924 0 0 1-.26-.257.668.668 0 0 1-.112-.33.089.089 0 0 1 .029-.08.121.121 0 0 1 .083-.032h.29a.19.19 0 0 1 .107.025.188.188 0 0 1 .062.074.94.94 0 0 0 .07.108.383.383 0 0 0 .112.095.732.732 0 0 0 .174.07c.071.017.16.025.264.025a1.7 1.7 0 0 0 .24-.017.796.796 0 0 0 .203-.062.476.476 0 0 0 .14-.107.248.248 0 0 0 .055-.162c0-.06-.02-.11-.059-.149a.464.464 0 0 0-.177-.099 2.323 2.323 0 0 0-.29-.078 12.3 12.3 0 0 1-.401-.095 2.357 2.357 0 0 1-.364-.116.924.924 0 0 1-.257-.17.643.643 0 0 1-.149-.232.944.944 0 0 1-.05-.322c0-.124.028-.239.083-.344a.819.819 0 0 1 .228-.269c.097-.074.21-.132.343-.173.135-.044.28-.067.435-.067Zm1.76.687c-.05.135-.079.28-.087.435l-.009.173v.393l.009.174c.008.155.037.3.087.439.052.135.128.253.227.355.1.1.224.178.372.236.15.058.326.087.53.087.201 0 .377-.029.525-.087.152-.058.278-.136.377-.236.1-.102.174-.22.223-.355.053-.138.083-.284.091-.439.003-.052.005-.11.005-.174a4.569 4.569 0 0 0 0-.393c0-.063-.002-.121-.005-.173a1.41 1.41 0 0 0-.09-.439 1.047 1.047 0 0 0-.228-.356 1.033 1.033 0 0 0-.373-.24 1.447 1.447 0 0 0-.525-.087 1.4 1.4 0 0 0-.53.092 1.034 1.034 0 0 0-.372.24.975.975 0 0 0-.227.355Zm4.854 2.25c-.047 0-.083-.012-.108-.037a.752.752 0 0 1-.054-.057l-1.158-1.721v1.704a.11.11 0 0 1-.033.079.107.107 0 0 1-.079.033h-.335a.108.108 0 0 1-.079-.033.108.108 0 0 1-.033-.079v-2.672c0-.03.011-.057.033-.08a.108.108 0 0 1 .079-.032h.29c.047 0 .082.012.107.037a.795.795 0 0 1 .054.058l1.158 1.72V13.1c0-.03.011-.056.033-.078a.108.108 0 0 1 .079-.033h.335c.03 0 .057.01.079.033a.107.107 0 0 1 .033.079v2.672a.11.11 0 0 1-.033.079.108.108 0 0 1-.079.033h-.29ZM9.566 13.63c.119.108.184.26.195.46a6.755 6.755 0 0 1 0 .698c-.011.199-.076.352-.195.46a.654.654 0 0 1-.463.16.669.669 0 0 1-.467-.16c-.116-.108-.18-.261-.19-.46a6.65 6.65 0 0 1 0-.699c.01-.198.074-.351.19-.459a.659.659 0 0 1 .467-.165c.193 0 .347.055.463.165Zm8.717.46c-.011-.2-.076-.352-.195-.46a.644.644 0 0 0-.463-.165.659.659 0 0 0-.467.165c-.116.108-.18.26-.19.46a6.764 6.764 0 0 0 0 .698c.01.199.074.352.19.46a.669.669 0 0 0 .467.16.654.654 0 0 0 .463-.16c.119-.108.184-.261.195-.46a6.676 6.676 0 0 0 0-.699Z" fill="#6E7480"/></svg>