<svg width="24" height="24" fill="none" xmlns="http://www.w3.org/2000/svg"><path fill-rule="evenodd" clip-rule="evenodd" d="M12.674 2.416a.75.75 0 0 0-1.341 0l-4.625 9.249a.75.75 0 0 0 0 .67l4.625 9.25a.75.75 0 0 0 1.341 0l4.625-9.25a.75.75 0 0 0 0-.67l-4.625-9.25Zm-.67 17.157L8.217 12h7.573l-3.786 7.573Zm.83-8.472c.033.033.08.05.142.05h.38c.04 0 .075-.015.104-.044a.141.141 0 0 0 .044-.103V7.486a.141.141 0 0 0-.044-.103.141.141 0 0 0-.103-.044h-.441a.142.142 0 0 0-.104.044.141.141 0 0 0-.043.103V9.73l-1.525-2.264a1.016 1.016 0 0 0-.07-.077.196.196 0 0 0-.142-.049h-.381a.141.141 0 0 0-.104.044.141.141 0 0 0-.043.103v3.518c0 .04.014.074.043.103a.141.141 0 0 0 .104.043h.44c.04 0 .075-.014.104-.043a.142.142 0 0 0 .044-.103V8.76l1.524 2.265c.015.018.038.044.07.076Z" fill="#6E7480"/></svg>