<svg width="24" height="24" fill="none" xmlns="http://www.w3.org/2000/svg"><path fill-rule="evenodd" clip-rule="evenodd" d="M12.53 2.47a.75.75 0 0 0-1.06 0l-9 9A.75.75 0 0 0 3 12.75h1.25V19A2.75 2.75 0 0 0 7 21.75h10A2.75 2.75 0 0 0 19.75 19v-6.25H21a.75.75 0 0 0 .53-1.28l-9-9ZM18.25 12a.75.75 0 0 1 .75-.75h.19L12 4.06l-7.19 7.19H5a.75.75 0 0 1 .75.75v7A1.25 1.25 0 0 0 7 20.25h1.25V15A2.75 2.75 0 0 1 11 12.25h2A2.75 2.75 0 0 1 15.75 15v5.25H17A1.25 1.25 0 0 0 18.25 19v-7Zm-4 8.25h-4.5V15A1.25 1.25 0 0 1 11 13.75h2A1.25 1.25 0 0 1 14.25 15v5.25Z" fill="#6E7480"/></svg>