<svg width="24" height="24" fill="none" xmlns="http://www.w3.org/2000/svg"><path fill-rule="evenodd" clip-rule="evenodd" d="M12 3.25a.75.75 0 0 0 0 1.5h7A1.25 1.25 0 0 1 20.25 6a.75.75 0 0 0 1.5 0A2.75 2.75 0 0 0 19 3.25h-7ZM4.116 6.116A1.25 1.25 0 0 1 5 5.75h3.69l2.78 2.78c.14.141.331.22.53.22h7A1.25 1.25 0 0 1 20.25 10v8A1.25 1.25 0 0 1 19 19.25H5A1.25 1.25 0 0 1 3.75 18V7c0-.332.132-.65.366-.884ZM5 4.25A2.75 2.75 0 0 0 2.25 7v11A2.75 2.75 0 0 0 5 20.75h14A2.75 2.75 0 0 0 21.75 18v-8A2.75 2.75 0 0 0 19 7.25h-6.69L9.53 4.47A.75.75 0 0 0 9 4.25H5Z" fill="#6E7480"/></svg>