<svg width="24" height="24" fill="none" xmlns="http://www.w3.org/2000/svg"><path fill-rule="evenodd" clip-rule="evenodd" d="M13.022 2.293a3.25 3.25 0 1 1 .471 6.457H5a.75.75 0 1 1 0-1.5h8.514a1.75 1.75 0 1 0-1.638-2.268.75.75 0 1 1-1.432-.445 3.25 3.25 0 0 1 2.578-2.244Zm6.418 10.7a1.76 1.76 0 0 0-.926-.244H3a.75.75 0 0 1 0-1.5h15.493a3.25 3.25 0 1 1-3.05 4.213.75.75 0 1 1 1.433-.444 1.751 1.751 0 0 0 3.09.506 1.75 1.75 0 0 0-.526-2.53ZM9.514 16.75a1.75 1.75 0 1 1-1.638 2.268.75.75 0 0 0-1.432.445 3.25 3.25 0 1 0 3.05-4.213H4a.75.75 0 0 0 0 1.5h5.514Z" fill="#6E7480"/></svg>