<svg width="24" height="24" fill="none" xmlns="http://www.w3.org/2000/svg"><g clip-path="url(#general / road-sign__a)"><path fill-rule="evenodd" clip-rule="evenodd" d="M11.47 2.47a.75.75 0 0 1 1.06 0l9 9a.75.75 0 0 1 0 1.06l-8.78 8.78V25a.75.75 0 0 1-1.5 0v-3.69l-8.78-8.78a.75.75 0 0 1 0-1.06l9-9ZM12 19.94 19.94 12 12 4.06 4.06 12 12 19.94Zm.53-13.47a.75.75 0 0 0-1.06 0l-5 5a.75.75 0 0 0 0 1.06l5 5a.75.75 0 0 0 1.06 0l5-5a.75.75 0 0 0 0-1.06l-5-5Z" fill="#6E7480"/></g><defs><clipPath id="general / road-sign__a"><path fill="#fff" d="M0 0h24v24H0z"/></clipPath></defs></svg>