<svg width="24" height="24" fill="none" xmlns="http://www.w3.org/2000/svg"><path fill-rule="evenodd" clip-rule="evenodd" d="M6.17 6.864a.75.75 0 1 0-1.08-1.043A8.889 8.889 0 0 0 2.613 12a8.89 8.89 0 0 0 2.478 6.178.75.75 0 0 0 1.078-1.043A7.389 7.389 0 0 1 4.113 12c0-1.931.742-3.778 2.056-5.136Zm9.882.886a.75.75 0 0 0-.75.75v.874L13.42 8.4a.75.75 0 0 0-1.095.666v5.866a.75.75 0 0 0 1.094.666l1.883-.971v.873c0 .414.336.75.75.75h6.198v-1.5h-5.448v-5.5h5.448v-1.5h-6.198Zm-2.227 5.95v-3.4l1.338.692v2.02l-1.338.69ZM8.727 8.633a.75.75 0 0 1 .018 1.06A3.32 3.32 0 0 0 7.822 12c0 .87.335 1.699.923 2.307a.75.75 0 1 1-1.078 1.043A4.82 4.82 0 0 1 6.322 12a4.82 4.82 0 0 1 1.345-3.35.75.75 0 0 1 1.06-.018Z" fill="#6E7480"/></svg>