<svg width="24" height="24" fill="none" xmlns="http://www.w3.org/2000/svg"><path fill-rule="evenodd" clip-rule="evenodd" d="M2.25 4A.75.75 0 0 1 3 3.25h3a.75.75 0 0 1 0 1.5H3.75v14.5H6a.75.75 0 0 1 0 1.5H3a.75.75 0 0 1-.75-.75V4ZM12 16a4.001 4.001 0 0 0 3.93-3.253.762.762 0 0 0 .07.003h2a.75.75 0 0 0 0-1.5h-2a.762.762 0 0 0-.07.003 4.001 4.001 0 0 0-7.86 0A.762.762 0 0 0 8 11.25H6a.75.75 0 0 0 0 1.5h2a.762.762 0 0 0 .07-.003A4.001 4.001 0 0 0 12 16Zm6-12.75a.75.75 0 0 0 0 1.5h2.25v14.5H18a.75.75 0 0 0 0 1.5h3a.75.75 0 0 0 .75-.75V4a.75.75 0 0 0-.75-.75h-3Z" fill="#6E7480"/></svg>