<svg width="24" height="24" fill="none" xmlns="http://www.w3.org/2000/svg"><path fill-rule="evenodd" clip-rule="evenodd" d="M4.75 5c0-.69.56-1.25 1.25-1.25h12c.69 0 1.25.56 1.25 1.25v14c0 .69-.56 1.25-1.25 1.25H6c-.69 0-1.25-.56-1.25-1.25V5ZM6 2.25A2.75 2.75 0 0 0 3.25 5v14A2.75 2.75 0 0 0 6 21.75h12A2.75 2.75 0 0 0 20.75 19V5A2.75 2.75 0 0 0 18 2.25H6ZM8.256 6c-.476 0-.956.1-1.353.313-.355.19-.895.621-.895 1.354v.666c0 .733.54 1.164.895 1.354.397.212.877.313 1.353.313h7.488c.476 0 .956-.1 1.353-.313.355-.19.895-.621.895-1.354v-.666c0-.733-.54-1.164-.895-1.354C16.7 6.101 16.22 6 15.744 6H8.256ZM8 13.25a.75.75 0 0 1 .75.75v.01a.75.75 0 1 1-1.5 0V14a.75.75 0 0 1 .75-.75Zm4.75.75a.75.75 0 0 0-1.5 0v.01a.75.75 0 1 0 1.5 0V14Zm3.25-.75a.75.75 0 0 1 .75.75v.01a.75.75 0 1 1-1.5 0V14a.75.75 0 0 1 .75-.75ZM8.75 17a.75.75 0 0 0-1.5 0v.01a.75.75 0 1 0 1.5 0V17Zm3.25-.75a.75.75 0 0 1 .75.75v.01a.75.75 0 1 1-1.5 0V17a.75.75 0 0 1 .75-.75Zm4.75.75a.75.75 0 0 0-1.5 0v.01a.75.75 0 1 0 1.5 0V17Z" fill="#6E7480"/></svg>