<svg width="24" height="24" fill="none" xmlns="http://www.w3.org/2000/svg"><path fill-rule="evenodd" clip-rule="evenodd" d="M12.75 2a.75.75 0 0 0-1.5 0v4a.75.75 0 0 0 1.5 0V2ZM9 12a3 3 0 1 1 6 0 3 3 0 0 1-6 0Zm8.25 0a.75.75 0 0 1 .75-.75h4a.75.75 0 0 1 0 1.5h-4a.75.75 0 0 1-.75-.75Zm-4.5 6a.75.75 0 0 0-1.5 0v4a.75.75 0 0 0 1.5 0v-4Zm2.721-2.482a.75.75 0 0 1 1.06 0l1.628 1.627a.75.75 0 0 1-1.061 1.061L15.47 16.58a.75.75 0 0 1 0-1.06Zm-6.94 1.06a.75.75 0 0 0-1.06-1.06l-1.63 1.63a.75.75 0 1 0 1.061 1.06l1.63-1.63ZM1.25 12a.75.75 0 0 1 .75-.75h4a.75.75 0 0 1 0 1.5H2a.75.75 0 0 1-.75-.75Zm4.596-6.207a.75.75 0 0 1 1.06 0l1.626 1.625a.75.75 0 1 1-1.061 1.06L5.846 6.855a.75.75 0 0 1 0-1.06Zm12.312 1.06a.75.75 0 1 0-1.06-1.061L15.47 7.418a.75.75 0 0 0 1.06 1.06l1.627-1.626Z" fill="#6E7480"/></svg>