<svg width="24" height="24" fill="none" xmlns="http://www.w3.org/2000/svg"><path fill-rule="evenodd" clip-rule="evenodd" d="M4.25 2.25A1.75 1.75 0 0 0 2.5 4v8c0 .966.784 1.75 1.75 1.75h5.5A1.75 1.75 0 0 0 11.5 12V4a1.75 1.75 0 0 0-1.75-1.75h-5.5ZM4 4a.25.25 0 0 1 .25-.25h5.5A.25.25 0 0 1 10 4v8a.25.25 0 0 1-.25.25h-5.5A.25.25 0 0 1 4 12V4Zm10.25 6.25A1.75 1.75 0 0 0 12.5 12v8c0 .966.784 1.75 1.75 1.75h5.5A1.75 1.75 0 0 0 21.5 20v-8a1.75 1.75 0 0 0-1.75-1.75h-5.5ZM14 12a.25.25 0 0 1 .25-.25h5.5A.25.25 0 0 1 20 12v8a.25.25 0 0 1-.25.25h-5.5A.25.25 0 0 1 14 20v-8Zm-1.5-8c0-.966.784-1.75 1.75-1.75h5.5c.966 0 1.75.784 1.75 1.75v3a1.75 1.75 0 0 1-1.75 1.75h-5.5A1.75 1.75 0 0 1 12.5 7V4Zm1.75-.25A.25.25 0 0 0 14 4v3c0 .138.112.25.25.25h5.5A.25.25 0 0 0 20 7V4a.25.25 0 0 0-.25-.25h-5.5Zm-10 11.5A1.75 1.75 0 0 0 2.5 17v3c0 .966.784 1.75 1.75 1.75h5.5A1.75 1.75 0 0 0 11.5 20v-3a1.75 1.75 0 0 0-1.75-1.75h-5.5ZM4 17a.25.25 0 0 1 .25-.25h5.5A.25.25 0 0 1 10 17v3a.25.25 0 0 1-.25.25h-5.5A.25.25 0 0 1 4 20v-3Z" fill="#6E7480"/></svg>