<svg width="24" height="24" fill="none" xmlns="http://www.w3.org/2000/svg"><path fill-rule="evenodd" clip-rule="evenodd" d="M14.667 5.778a.892.892 0 0 1-.89-.89c0-.488.4-.888.89-.888H20v5.333c0 .49-.4.89-.889.89a.891.891 0 0 1-.889-.89V7.031l-8.115 8.116a.885.885 0 1 1-1.254-1.254l8.116-8.115h-2.302Zm-8 12.444h9.777c.49 0 .89-.4.89-.889V12.89c0-.489.4-.889.888-.889.49 0 .89.4.89.889v5.333c0 .978-.8 1.778-1.779 1.778H5.778A1.785 1.785 0 0 1 4 18.222V6.667c0-.978.791-1.778 1.778-1.778h5.333c.489 0 .889.4.889.889s-.4.889-.889.889H6.667c-.49 0-.89.4-.89.889v9.777c0 .49.4.89.89.89Z" fill="#6E7480"/></svg>