<svg width="24" height="24" fill="none" xmlns="http://www.w3.org/2000/svg"><path fill-rule="evenodd" clip-rule="evenodd" d="M11.728 3.316A3.25 3.25 0 0 0 8.814 6.87l.235 2.38H17A2.75 2.75 0 0 1 19.75 12v6A2.75 2.75 0 0 1 17 20.75H7A2.75 2.75 0 0 1 4.25 18v-6A2.75 2.75 0 0 1 7 9.25h.542l-.22-2.232a4.75 4.75 0 0 1 7.738-4.141c.53.435.851.98 1.037 1.393a4.483 4.483 0 0 1 .26.745l.003.016.001.006v.003l.001.001-.72.152.72-.151a.75.75 0 0 1-1.467.311v-.001l-.005-.02a2.982 2.982 0 0 0-.16-.445c-.13-.29-.331-.613-.621-.85a3.25 3.25 0 0 0-2.381-.721ZM7 10.75c-.69 0-1.25.56-1.25 1.25v6c0 .69.56 1.25 1.25 1.25h10c.69 0 1.25-.56 1.25-1.25v-6c0-.69-.56-1.25-1.25-1.25H7Zm5 6a1.75 1.75 0 1 0 0-3.5 1.75 1.75 0 0 0 0 3.5Z" fill="#6E7480"/></svg>