<svg width="24" height="24" fill="none" xmlns="http://www.w3.org/2000/svg"><path fill-rule="evenodd" clip-rule="evenodd" d="M8 3.25A2.75 2.75 0 0 0 5.25 6v3c0 .674-.18 1.286-.46 1.705-.279.419-.58.545-.79.545a.75.75 0 0 0 0 1.5c.21 0 .511.126.79.545.28.419.46 1.03.46 1.705v3A2.75 2.75 0 0 0 8 20.75a.75.75 0 0 0 0-1.5A1.25 1.25 0 0 1 6.75 18v-3c0-.917-.24-1.831-.712-2.537A3.212 3.212 0 0 0 5.665 12c.137-.14.262-.296.373-.463.471-.706.712-1.62.712-2.537V6A1.25 1.25 0 0 1 8 4.75a.75.75 0 0 0 0-1.5Zm8 0a.75.75 0 0 0 0 1.5A1.25 1.25 0 0 1 17.25 6v3c0 .917.24 1.831.712 2.537.11.167.236.323.373.463-.137.14-.262.296-.373.463-.471.706-.712 1.62-.712 2.537v3A1.25 1.25 0 0 1 16 19.25a.75.75 0 0 0 0 1.5A2.75 2.75 0 0 0 18.75 18v-3c0-.674.18-1.286.46-1.705.279-.419.58-.545.79-.545a.75.75 0 0 0 0-1.5c-.21 0-.511-.126-.79-.545-.28-.419-.46-1.03-.46-1.705V6A2.75 2.75 0 0 0 16 3.25Z" fill="#6E7480"/></svg>