<svg width="24" height="24" fill="none" xmlns="http://www.w3.org/2000/svg"><path fill-rule="evenodd" clip-rule="evenodd" d="M21.5 12a9.5 9.5 0 1 1-19 0 9.5 9.5 0 0 1 19 0Zm1.5 0c0 6.075-4.925 11-11 11S1 18.075 1 12 5.925 1 12 1s11 4.925 11 11Zm-5.6-3.41c-.469-.593-1.12-.89-1.951-.89-.832 0-1.48.293-1.945.879-.563.71-.844 1.875-.844 3.492 0 1.649.256 2.795.767 3.44.512.64 1.186.96 2.022.96.832 0 1.48-.293 1.945-.878.563-.711.844-1.88.844-3.504 0-1.63-.28-2.795-.838-3.498Zm-2.484.669a.815.815 0 0 1 .533-.194c.199 0 .375.065.527.194.156.125.285.377.387.755.101.376.152 1.067.152 2.075 0 1.008-.056 1.722-.17 2.144-.086.328-.207.557-.363.686a.83.83 0 0 1-.533.187.83.83 0 0 1-.533-.187c-.153-.125-.28-.375-.381-.75-.102-.38-.153-1.072-.153-2.08s.057-1.725.17-2.15c.086-.329.207-.555.364-.68Zm-7.513 4.687-1.641.17c.098.719.397 1.291.897 1.717.5.426 1.146.638 1.939.638.992 0 1.768-.378 2.326-1.136.41-.555.615-1.186.615-1.893 0-.848-.253-1.537-.761-2.068a2.472 2.472 0 0 0-1.858-.797 2.49 2.49 0 0 0-1.125.275l.258-1.459h3.105v-1.54H6.806l-.844 4.47 1.336.193c.375-.418.799-.627 1.272-.627.379 0 .685.133.92.399.238.262.357.656.357 1.184 0 .562-.12.984-.357 1.265a1.134 1.134 0 0 1-1.67.094c-.23-.219-.37-.514-.416-.885Z" fill="#6E7480"/></svg>