<svg width="24" height="24" fill="none" xmlns="http://www.w3.org/2000/svg"><path fill-rule="evenodd" clip-rule="evenodd" d="M6.353 6.4a.75.75 0 0 1 .75-.75h13.422a.75.75 0 0 1 .75.75v8.255a.75.75 0 0 1-.75.75h-5.81a19.773 19.773 0 0 0-.601 1.908c-.165.643-.255 1.166-.255 1.469 0 .344.087.814.424 1.192.32.36.983.764 2.4.764a.75.75 0 0 1 0 1.5c-1.71 0-2.835-.498-3.52-1.266-.668-.75-.804-1.632-.804-2.19 0-.504.133-1.183.303-1.843.13-.505.292-1.037.462-1.534H7.103a.75.75 0 0 1-.75-.75v-1.268l-2.543 1.27a.75.75 0 0 1-1.085-.67V7.068A.75.75 0 0 1 3.81 6.4l2.543 1.27V6.4Zm1.5.75v6.755h11.922V7.15H7.853ZM4.225 8.283v4.49l1.958-.978V9.264l-1.958-.98Z" fill="#6E7480"/></svg>