<svg width="24" height="24" fill="none" xmlns="http://www.w3.org/2000/svg"><path fill-rule="evenodd" clip-rule="evenodd" d="M3.75 3a.75.75 0 0 0-1.5 0v18c0 .414.336.75.75.75h18a.75.75 0 0 0 0-1.5H3.75V3Zm7.015 1.2h-1.58a.677.677 0 0 0-.662.536L5.815 17.38a.678.678 0 0 0 .662.82h2.708c.32 0 .595-.224.662-.536l1.482-6.92 1.482 6.92a.677.677 0 0 0 .662.536h4.289a.678.678 0 0 0 .662-.536L21.132 5.02a.678.678 0 0 0-.662-.819h-2.708a.677.677 0 0 0-.663.535l-1.482 6.92-1.482-6.92a.677.677 0 0 0-.662-.535h-2.708Zm4.16 10.689-1.999-9.334h-.485l-.42 1.957 2 9.334h.485l.42-1.957Z" fill="#6E7480"/></svg>