<svg width="24" height="24" fill="none" xmlns="http://www.w3.org/2000/svg"><path fill-rule="evenodd" clip-rule="evenodd" d="M8.75 3a.75.75 0 0 0-1.5 0v1.25H6A2.75 2.75 0 0 0 3.25 7v12A2.75 2.75 0 0 0 6 21.75h12A2.75 2.75 0 0 0 20.75 19V7A2.75 2.75 0 0 0 18 4.25h-1.25V3a.75.75 0 0 0-1.5 0v1.25h-6.5V3ZM6 5.75h1.25V7a.75.75 0 0 0 1.5 0V5.75h6.5V7a.75.75 0 0 0 1.5 0V5.75H18c.69 0 1.25.56 1.25 1.25v3.25H4.75V7c0-.69.56-1.25 1.25-1.25Zm-1.25 6h14.5V19c0 .69-.56 1.25-1.25 1.25H6c-.69 0-1.25-.56-1.25-1.25v-7.25ZM7.25 15a.75.75 0 0 1 .75-.75h2a.75.75 0 0 1 .75.75v2a.75.75 0 0 1-.75.75H8a.75.75 0 0 1-.75-.75v-2Z" fill="#6E7480"/></svg>