<svg width="24" height="24" fill="none" xmlns="http://www.w3.org/2000/svg"><path fill-rule="evenodd" clip-rule="evenodd" d="M7.23 19.02A6.759 6.759 0 0 0 12 21a6.759 6.759 0 0 0 6.75-6.75 7.547 7.547 0 0 0-1.143-3.755l-4.972-7.917a.78.78 0 0 0-1.27 0L6.37 10.533a7.488 7.488 0 0 0-1.12 3.717 6.758 6.758 0 0 0 1.98 4.77Zm.434-7.728L12 4.386l4.314 6.868a6.05 6.05 0 0 1 .936 2.996 5.25 5.25 0 1 1-10.5 0c.04-1.049.355-2.07.914-2.958ZM12 17.37c0 .343.289.62.624.549a3.95 3.95 0 0 0 3.045-3.044c.071-.336-.206-.625-.55-.625H14.8c-.311 0-.563.242-.658.539a2.473 2.473 0 0 1-1.603 1.603c-.297.095-.539.347-.539.658v.32Z" fill="#6E7480"/></svg>