<svg width="24" height="24" fill="none" xmlns="http://www.w3.org/2000/svg"><path fill-rule="evenodd" clip-rule="evenodd" d="M14.387 4.964a3.287 3.287 0 0 1 4.649 4.649l-.79.79-.004.004-.004.004-9.369 9.368a.75.75 0 0 1-.53.22H4.751a.75.75 0 0 1-.75-.75V15.66a.75.75 0 0 1 .22-.53L14.387 4.963Zm3.324 3.852.264-.264a1.787 1.787 0 0 0-2.527-2.528l-.264.264 2.527 2.528Zm-3.588-1.467 2.528 2.527-8.054 8.054-2.528-2.527 8.054-8.054ZM5.501 15.97l.004-.004-.004.026v-.022Zm2.527 2.53h-.021l.026-.005-.005.005Z" fill="#6E7480"/></svg>