<svg width="24" height="24" fill="none" xmlns="http://www.w3.org/2000/svg"><path fill-rule="evenodd" clip-rule="evenodd" d="M16.5 3.215a4.286 4.286 0 0 0-3.03 1.255l-.996.996a.75.75 0 1 0 1.06 1.06l.997-.995a2.786 2.786 0 1 1 3.939 3.94l-4 3.999-.005.005a2.752 2.752 0 0 1-3.03.611c-.104-.043-.357-.213-.681-.475a9.45 9.45 0 0 1-.72-.637.75.75 0 1 0-1.07 1.05c.188.193.516.487.848.755.31.25.716.553 1.042.69a4.25 4.25 0 0 0 4.68-.94l3.997-3.998a4.285 4.285 0 0 0-3.03-7.316Zm-5 4.985a4.25 4.25 0 0 0-3.033 1.273L4.47 13.47a4.285 4.285 0 1 0 6.06 6.06l1-.998a.75.75 0 1 0-1.062-1.06l-.998.998a2.785 2.785 0 0 1-3.94-3.94l4-4 .006-.005a2.752 2.752 0 0 1 3.03-.61c.104.043.356.212.678.472.3.24.58.494.716.634a.75.75 0 1 0 1.071-1.05 10.743 10.743 0 0 0-.846-.753c-.309-.249-.713-.55-1.038-.686A4.25 4.25 0 0 0 11.5 8.2Z" fill="#6E7480"/></svg>