<svg width="24" height="24" fill="none" xmlns="http://www.w3.org/2000/svg"><path fill-rule="evenodd" clip-rule="evenodd" d="M9.481 5.448a2.224 2.224 0 1 0 0-4.448 2.224 2.224 0 0 0 0 4.448Zm0 .842a1 1 0 0 1 1 1v1.396h2.858a1 1 0 1 1 0 2h-2.858v1.171l4.577.654a1 1 0 0 1 .795.639l2.086 5.563h1.136a1 1 0 1 1 0 2h-1.83a1 1 0 0 1-.936-.65l-2.12-5.656-4.85-.692a1 1 0 0 1-.858-.99V7.29a1 1 0 0 1 1-1Zm-2 5.136a.192.192 0 0 0-.282-.173 6.25 6.25 0 1 0 8.068 9.123.197.197 0 0 0 .023-.184l-.479-1.275c-.065-.174-.318-.177-.402-.012a4.75 4.75 0 1 1-7.015-6.007.214.214 0 0 0 .087-.173v-1.3Z" fill="#6E7480"/></svg>