<svg width="24" height="24" fill="none" xmlns="http://www.w3.org/2000/svg"><path fill-rule="evenodd" clip-rule="evenodd" d="M2.088 6.765A.754.754 0 0 0 2 7.132v10.736a.745.745 0 0 0 .347.645.747.747 0 0 0 .804.001 6.104 6.104 0 0 1 3.152-.882c1.104 0 2.19.303 3.152.882a.746.746 0 0 0 .803 0 6.17 6.17 0 0 1 1.6-.68v-1.54c-.427.09-.845.216-1.252.378V7.557a6.087 6.087 0 0 1 2.803-.687c.972 0 1.931.235 2.803.687V12.5h1.5V7.133a.755.755 0 0 0-.37-.661A7.604 7.604 0 0 0 13.41 5.37a7.59 7.59 0 0 0-3.553.886 7.59 7.59 0 0 0-3.553-.886A7.604 7.604 0 0 0 2.33 6.497a.746.746 0 0 0-.24.268Zm7.018.792v9.115a7.564 7.564 0 0 0-5.606 0V7.557a6.087 6.087 0 0 1 2.803-.687c.972 0 1.931.235 2.803.687Zm5.644 9.324a.75.75 0 0 0 0 1.5h5.629L18.9 19.93a.75.75 0 0 0 1.086 1.035l2.686-2.817a.75.75 0 0 0 0-1.035l-2.686-2.817a.75.75 0 0 0-1.086 1.036l1.478 1.549H14.75Z" fill="#6E7480"/></svg>