<svg width="24" height="24" fill="none" xmlns="http://www.w3.org/2000/svg"><path fill-rule="evenodd" clip-rule="evenodd" d="M10.559 2.507a1.65 1.65 0 0 0-.647-.052.748.748 0 0 0-.082.014 9.75 9.75 0 1 0 11.7 11.7.75.75 0 0 0 .02-.17 1.75 1.75 0 0 0-1.75-1.75H13A1.25 1.25 0 0 1 11.75 11V4a1.65 1.65 0 0 0-1.19-1.492Zm-4.21 3.48a8.25 8.25 0 0 1 3.763-2.043.15.15 0 0 1 .138.111V11A2.75 2.75 0 0 0 13 13.75h6.8a.25.25 0 0 1 .243.192A8.25 8.25 0 1 1 6.349 5.987Zm8.073-3.304a1 1 0 0 1 .91-.127 10 10 0 0 1 6.11 6.111A1 1 0 0 1 20.5 10H16a2 2 0 0 1-2-2V3.5a1 1 0 0 1 .422-.817Z" fill="#6E7480"/></svg>