<svg width="24" height="24" fill="none" xmlns="http://www.w3.org/2000/svg"><path fill-rule="evenodd" clip-rule="evenodd" d="M17.531 2.47a.75.75 0 0 0-1.06 0l-2.495 2.494a1.218 1.218 0 0 0-.006.006l-.006.006-2.988 2.988-.006.006-.006.006-2.988 2.988-.006.006-.006.006-2.988 2.988-.006.006a1.218 1.218 0 0 0-.006.006L2.47 16.47a.75.75 0 0 0 0 1.061l4 4a.75.75 0 0 0 1.06 0l14.001-14a.75.75 0 0 0 0-1.061l-4-4ZM5.501 15.56 4.061 17 7 19.94 19.94 7 17 4.06 15.56 5.5l.97.969a.75.75 0 1 1-1.06 1.06l-.97-.97-1.94 1.94.97.97a.75.75 0 0 1-1.06 1.06l-.97-.969-1.94 1.94.97.97a.75.75 0 1 1-1.061 1.06l-.97-.97-1.94 1.94.97.97a.75.75 0 0 1-1.06 1.06l-.97-.97Z" fill="#6E7480"/></svg>