<svg width="24" height="24" fill="none" xmlns="http://www.w3.org/2000/svg"><path fill-rule="evenodd" clip-rule="evenodd" d="M4.571 4.25a.75.75 0 0 0-.248.042 1.893 1.893 0 0 0-.946 2.84c.02.03.043.06.068.087l5.522 6.074v4.277a.75.75 0 0 0 .3.6l4.57 3.43a.75.75 0 0 0 1.2-.6v-7.712l5.518-6.07a.75.75 0 0 0 .068-.086 1.893 1.893 0 0 0-.946-2.84.75.75 0 0 0-.249-.042H4.571Zm8.966 8.799a.748.748 0 0 1 .194-.553l5.667-6.234a.394.394 0 0 0-.132-.512H4.734a.393.393 0 0 0-.132.512l5.633 6.196a.748.748 0 0 1 .232.542v4.195l3.07 2.305v-6.451Z" fill="#6E7480"/></svg>