<svg width="24" height="24" fill="none" xmlns="http://www.w3.org/2000/svg"><path fill-rule="evenodd" clip-rule="evenodd" d="M7 3.75A1.25 1.25 0 0 0 5.75 5v14A1.25 1.25 0 0 0 7 20.25h10A1.25 1.25 0 0 0 18.25 19V8.707a.749.749 0 0 1-.25.043h-3A1.75 1.75 0 0 1 13.25 7V4c0-.088.015-.172.043-.25H7Zm7.75 1.06V7a.25.25 0 0 0 .25.25h2.19l-2.44-2.44ZM5.055 3.056A2.75 2.75 0 0 1 7 2.25h7a.75.75 0 0 1 .53.22l5 5c.141.14.22.331.22.53v11A2.75 2.75 0 0 1 17 21.75H7A2.75 2.75 0 0 1 4.25 19V5c0-.73.29-1.429.805-1.945ZM7.25 6A.75.75 0 0 1 8 5.25h2a.75.75 0 0 1 0 1.5H8A.75.75 0 0 1 7.25 6ZM8 8.25a.75.75 0 0 0 0 1.5h4.5a.75.75 0 0 0 0-1.5H8ZM7.25 12a.75.75 0 0 1 .75-.75h8a.75.75 0 0 1 0 1.5H8a.75.75 0 0 1-.75-.75ZM8 14.25a.75.75 0 0 0 0 1.5h8a.75.75 0 0 0 0-1.5H8ZM7.25 18a.75.75 0 0 1 .75-.75h8a.75.75 0 0 1 0 1.5H8a.75.75 0 0 1-.75-.75Z" fill="#6E7480"/></svg>