<svg width="24" height="24" fill="none" xmlns="http://www.w3.org/2000/svg"><path fill-rule="evenodd" clip-rule="evenodd" d="M6 2.75A2.75 2.75 0 0 0 3.25 5.5v9.2c0 .73.29 1.429.805 1.945a.75.75 0 0 0 1.061-1.061 1.25 1.25 0 0 1-.366-.884V5.5A1.25 1.25 0 0 1 6 4.25h8c.332 0 .65.132.884.366a.75.75 0 1 0 1.06-1.06A2.75 2.75 0 0 0 14 2.75H6ZM8.75 9.5c0-.69.56-1.25 1.25-1.25h8c.69 0 1.25.56 1.25 1.25v9.2c0 .69-.56 1.25-1.25 1.25h-8c-.69 0-1.25-.56-1.25-1.25V9.5ZM10 6.75A2.75 2.75 0 0 0 7.25 9.5v9.2A2.75 2.75 0 0 0 10 21.45h8a2.75 2.75 0 0 0 2.75-2.75V9.5A2.75 2.75 0 0 0 18 6.75h-8Zm4 4.1a.75.75 0 0 1 .75.75v1.75h1.75a.75.75 0 0 1 0 1.5h-1.75v1.75a.75.75 0 0 1-1.5 0v-1.75H11.5a.75.75 0 0 1 0-1.5h1.75V11.6a.75.75 0 0 1 .75-.75Z" fill="#6E7480"/></svg>