<svg width="24" height="24" fill="none" xmlns="http://www.w3.org/2000/svg"><path fill-rule="evenodd" clip-rule="evenodd" d="M8 2.75a.75.75 0 0 0-.75.75v17c0 .414.336.75.75.75h8a.75.75 0 0 0 .75-.75v-17a.75.75 0 0 0-.75-.75H8Zm.75 17V4.25h6.5v15.5h-6.5Zm9.15-14.5a.75.75 0 0 0-.75.75v2a.75.75 0 0 0 1.336.469l1.6-2A.75.75 0 0 0 19.5 5.25h-1.6ZM17.15 11a.75.75 0 0 1 .75-.75h1.6a.75.75 0 0 1 .586 1.219l-1.6 2A.75.75 0 0 1 17.15 13v-2Zm.75 4.25a.75.75 0 0 0-.75.75v2a.75.75 0 0 0 1.336.468l1.6-2a.75.75 0 0 0-.586-1.218h-1.6ZM6.85 6a.75.75 0 0 0-.75-.75H4.5a.75.75 0 0 0-.586 1.219l1.6 2A.75.75 0 0 0 6.85 8V6Zm-.75 4.25a.75.75 0 0 1 .75.75v2a.75.75 0 0 1-1.336.469l-1.6-2A.75.75 0 0 1 4.5 10.25h1.6ZM6.85 16a.75.75 0 0 0-.75-.75H4.5a.75.75 0 0 0-.586 1.218l1.6 2A.75.75 0 0 0 6.85 18v-2ZM12 8.75a1.75 1.75 0 1 0 0-3.5 1.75 1.75 0 0 0 0 3.5ZM13.75 12a1.75 1.75 0 1 1-3.5 0 1.75 1.75 0 0 1 3.5 0ZM12 18.75a1.75 1.75 0 1 0 0-3.5 1.75 1.75 0 0 0 0 3.5Z" fill="#6E7480"/></svg>