<svg width="24" height="24" fill="none" xmlns="http://www.w3.org/2000/svg"><path fill-rule="evenodd" clip-rule="evenodd" d="M4.667 4.25a.417.417 0 0 0-.417.417v4.666c0 .23.187.417.417.417h4.666c.23 0 .417-.187.417-.417V4.667a.417.417 0 0 0-.417-.417H4.667Zm-1.917.417c0-1.059.858-1.917 1.917-1.917h4.666c1.059 0 1.917.858 1.917 1.917v4.666a1.917 1.917 0 0 1-1.917 1.917H4.667A1.917 1.917 0 0 1 2.75 9.333V4.667Zm1.917 9.583a.417.417 0 0 0-.417.417v4.666c0 .23.187.417.417.417h4.666c.23 0 .417-.186.417-.417v-4.666a.417.417 0 0 0-.417-.417H4.667Zm-1.917.417c0-1.059.858-1.917 1.917-1.917h4.666c1.059 0 1.917.858 1.917 1.917v4.666a1.917 1.917 0 0 1-1.917 1.917H4.667a1.917 1.917 0 0 1-1.917-1.917v-4.666Zm11.5 0c0-.23.187-.417.417-.417h4.666c.23 0 .417.187.417.417v4.666c0 .23-.186.417-.417.417h-4.666a.417.417 0 0 1-.417-.417v-4.666Zm.417-1.917a1.917 1.917 0 0 0-1.917 1.917v4.666c0 1.059.858 1.917 1.917 1.917h4.666a1.917 1.917 0 0 0 1.917-1.917v-4.666a1.917 1.917 0 0 0-1.917-1.917h-4.666ZM12.75 7a.75.75 0 0 1 .75-.75h2.75V3.5a.75.75 0 0 1 1.5 0v2.75h2.75a.75.75 0 0 1 0 1.5h-2.75v2.75a.75.75 0 0 1-1.5 0V7.75H13.5a.75.75 0 0 1-.75-.75Z" fill="#6E7480"/></svg>