<svg width="24" height="24" fill="none" xmlns="http://www.w3.org/2000/svg"><mask id="general / traffic-greenwave__a" fill="#fff"><path fill-rule="evenodd" clip-rule="evenodd" d="M8.941 1.27H2.407a.61.61 0 0 0-.611.62v13.894a.61.61 0 0 0 .61.61h6.535a.61.61 0 0 0 .621-.61V1.891a.62.62 0 0 0-.62-.621Zm-.61 13.904H3.017V2.5h5.314v12.673Z"/><path d="M5.684 6.186a1.435 1.435 0 1 0 0-2.87 1.435 1.435 0 0 0 0 2.87Zm0 4.092a1.435 1.435 0 1 0 0-2.87 1.435 1.435 0 0 0 0 2.87Zm0 4.082a1.435 1.435 0 1 0 0-2.871 1.435 1.435 0 0 0 0 2.87Z"/><path fill-rule="evenodd" clip-rule="evenodd" d="M21.593 7.611h-6.535a.61.61 0 0 0-.62.61v13.904a.61.61 0 0 0 .62.611h6.535a.61.61 0 0 0 .61-.61V8.221a.61.61 0 0 0-.61-.611Zm-.61 13.894h-5.314V8.832h5.313v12.672Z"/><path d="M18.326 12.527a1.435 1.435 0 1 0 0-2.87 1.435 1.435 0 0 0 0 2.87Zm0 4.082a1.435 1.435 0 1 0 0-2.87 1.435 1.435 0 0 0 0 2.87Zm0 4.091a1.435 1.435 0 1 0 0-2.87 1.435 1.435 0 0 0 0 2.87Z"/><path fill-rule="evenodd" clip-rule="evenodd" d="M13.124.66a.538.538 0 0 1 0 .763l-1.536 1.536a.54.54 0 1 1-.764-.763L12.351.66a.55.55 0 0 1 .773 0ZM11.2 4.201a.55.55 0 0 0 0 1.09h2.892a.55.55 0 1 0 0-1.09H11.2Zm.388 2.331a.544.544 0 0 0-.774.763l1.537 1.537a.54.54 0 1 0 .763-.763l-1.526-1.537Zm-.723 16.815a.55.55 0 0 1 0-.774l1.537-1.527a.56.56 0 0 1 .773 0 .538.538 0 0 1 0 .764l-1.547 1.527a.54.54 0 0 1-.763.01Zm1.893-3.542a.54.54 0 0 0 0-1.08h-2.85a.54.54 0 0 0-.54.54.53.53 0 0 0 .54.54h2.85Zm-.336-2.301a.543.543 0 1 0 .774-.763l-1.527-1.547a.55.55 0 0 0-.89.175.54.54 0 0 0 .117.588l1.526 1.547Z"/></mask><path fill-rule="evenodd" clip-rule="evenodd" d="M8.941 1.27H2.407a.61.61 0 0 0-.611.62v13.894a.61.61 0 0 0 .61.61h6.535a.61.61 0 0 0 .621-.61V1.891a.62.62 0 0 0-.62-.621Zm-.61 13.904H3.017V2.5h5.314v12.673Z" fill="#6E7480"/><path d="M5.684 6.186a1.435 1.435 0 1 0 0-2.87 1.435 1.435 0 0 0 0 2.87Zm0 4.092a1.435 1.435 0 1 0 0-2.87 1.435 1.435 0 0 0 0 2.87Zm0 4.082a1.435 1.435 0 1 0 0-2.871 1.435 1.435 0 0 0 0 2.87Z" fill="#6E7480"/><path fill-rule="evenodd" clip-rule="evenodd" d="M21.593 7.611h-6.535a.61.61 0 0 0-.62.61v13.904a.61.61 0 0 0 .62.611h6.535a.61.61 0 0 0 .61-.61V8.221a.61.61 0 0 0-.61-.611Zm-.61 13.894h-5.314V8.832h5.313v12.672Z" fill="#6E7480"/><path d="M18.326 12.527a1.435 1.435 0 1 0 0-2.87 1.435 1.435 0 0 0 0 2.87Zm0 4.082a1.435 1.435 0 1 0 0-2.87 1.435 1.435 0 0 0 0 2.87Zm0 4.091a1.435 1.435 0 1 0 0-2.87 1.435 1.435 0 0 0 0 2.87Z" fill="#6E7480"/><path fill-rule="evenodd" clip-rule="evenodd" d="M13.124.66a.538.538 0 0 1 0 .763l-1.536 1.536a.54.54 0 1 1-.764-.763L12.351.66a.55.55 0 0 1 .773 0ZM11.2 4.201a.55.55 0 0 0 0 1.09h2.892a.55.55 0 1 0 0-1.09H11.2Zm.388 2.331a.544.544 0 0 0-.774.763l1.537 1.537a.54.54 0 1 0 .763-.763l-1.526-1.537Zm-.723 16.815a.55.55 0 0 1 0-.774l1.537-1.527a.56.56 0 0 1 .773 0 .538.538 0 0 1 0 .764l-1.547 1.527a.54.54 0 0 1-.763.01Zm1.893-3.542a.54.54 0 0 0 0-1.08h-2.85a.54.54 0 0 0-.54.54.53.53 0 0 0 .54.54h2.85Zm-.336-2.301a.543.543 0 1 0 .774-.763l-1.527-1.547a.55.55 0 0 0-.89.175.54.54 0 0 0 .117.588l1.526 1.547Z" fill="#6E7480"/><path clip-rule="evenodd" d="M8.941 1.27H2.407a.61.61 0 0 0-.611.62v13.894a.61.61 0 0 0 .61.61h6.535a.61.61 0 0 0 .621-.61V1.891a.62.62 0 0 0-.62-.621Zm-.61 13.904H3.017V2.5h5.314v12.673Z" stroke="#6E7480" stroke-width="2" mask="url(#general / traffic-greenwave__a)"/><path d="M5.684 6.186a1.435 1.435 0 1 0 0-2.87 1.435 1.435 0 0 0 0 2.87Zm0 4.092a1.435 1.435 0 1 0 0-2.87 1.435 1.435 0 0 0 0 2.87Zm0 4.082a1.435 1.435 0 1 0 0-2.871 1.435 1.435 0 0 0 0 2.87Z" stroke="#6E7480" stroke-width="2" mask="url(#general / traffic-greenwave__a)"/><path clip-rule="evenodd" d="M21.593 7.611h-6.535a.61.61 0 0 0-.62.61v13.904a.61.61 0 0 0 .62.611h6.535a.61.61 0 0 0 .61-.61V8.221a.61.61 0 0 0-.61-.611Zm-.61 13.894h-5.314V8.832h5.313v12.672Z" stroke="#6E7480" stroke-width="2" mask="url(#general / traffic-greenwave__a)"/><path d="M18.326 12.527a1.435 1.435 0 1 0 0-2.87 1.435 1.435 0 0 0 0 2.87Zm0 4.082a1.435 1.435 0 1 0 0-2.87 1.435 1.435 0 0 0 0 2.87Zm0 4.091a1.435 1.435 0 1 0 0-2.87 1.435 1.435 0 0 0 0 2.87Z" stroke="#6E7480" stroke-width="2" mask="url(#general / traffic-greenwave__a)"/><path clip-rule="evenodd" d="M13.124.66a.538.538 0 0 1 0 .763l-1.536 1.536a.54.54 0 1 1-.764-.763L12.351.66a.55.55 0 0 1 .773 0ZM11.2 4.201a.55.55 0 0 0 0 1.09h2.892a.55.55 0 1 0 0-1.09H11.2Zm.388 2.331a.544.544 0 0 0-.774.763l1.537 1.537a.54.54 0 1 0 .763-.763l-1.526-1.537Zm-.723 16.815a.55.55 0 0 1 0-.774l1.537-1.527a.56.56 0 0 1 .773 0 .538.538 0 0 1 0 .764l-1.547 1.527a.54.54 0 0 1-.763.01Zm1.893-3.542a.54.54 0 0 0 0-1.08h-2.85a.54.54 0 0 0-.54.54.53.53 0 0 0 .54.54h2.85Zm-.336-2.301a.543.543 0 1 0 .774-.763l-1.527-1.547a.55.55 0 0 0-.89.175.54.54 0 0 0 .117.588l1.526 1.547Z" stroke="#6E7480" stroke-width="2" mask="url(#general / traffic-greenwave__a)"/></svg>