<svg width="24" height="24" fill="none" xmlns="http://www.w3.org/2000/svg"><path fill-rule="evenodd" clip-rule="evenodd" d="M12.125 7.876a1.688 1.688 0 1 0 0-3.376 1.688 1.688 0 0 0 0 3.376Zm2.07-.726a.75.75 0 0 0-.706.496l-1.692 4.717a.747.747 0 0 0 .018.55l-4.157 2.39a.752.752 0 0 0-.155.118L6.034 13.1a.75.75 0 0 0-1.223-.063l-4 5.085a.75.75 0 0 0 .59 1.213h7.215a.75.75 0 0 0 .634-1.15l-.964-1.525a.757.757 0 0 0 .12-.056l4.659-2.679a.75.75 0 0 0 .18-1.155l1.257-3.502 1.783 1.783-2.62 2.62a.75.75 0 0 0-.22.53v3.24a.75.75 0 0 0 1.5 0v-2.93l1.65-1.65v1.34c0 .199.08.39.22.53l3.24 3.24a.75.75 0 0 0 1.06-1.06l-3.02-3.02v-2.84a.75.75 0 0 0-.22-.53l-1.869-1.87h2.739l.177.177-.526.302a.75.75 0 0 0 .748 1.3l3.13-1.8a.75.75 0 1 0-.747-1.3l-1.258.723-.683-.683a.75.75 0 0 0-.53-.22h-4.86ZM2.945 17.834h4.31l-1.921-3.036-2.39 3.036Z" fill="#6E7480"/></svg>