<svg width="24" height="24" fill="none" xmlns="http://www.w3.org/2000/svg"><path fill-rule="evenodd" clip-rule="evenodd" d="M11.763 3.95a.271.271 0 0 1 .474 0l8.478 15.258c.1.181-.03.403-.238.403H3.523a.271.271 0 0 1-.237-.403L11.763 3.95Zm1.786-.73c-.675-1.214-2.422-1.214-3.097 0L1.974 18.48a1.771 1.771 0 0 0 1.549 2.631h16.954c1.35 0 2.205-1.45 1.549-2.631L13.549 3.22Zm2.313 13.908c-.275-.366-.62-.826-1.341-1.122-.37-.15-1.516-.506-2.519-.506-1.003 0-1.718.18-2.518.506-.723.297-1.068.757-1.344 1.124-.244.325-.433.576-.78.576H5.13v.794h13.74v-.794h-2.225c-.35 0-.54-.252-.784-.578Z" fill="#6E7480"/></svg>