<svg width="24" height="24" fill="none" xmlns="http://www.w3.org/2000/svg"><path fill-rule="evenodd" clip-rule="evenodd" d="M5.75 7a3.25 3.25 0 1 1 6.5 0 3.25 3.25 0 0 1-6.5 0ZM9 2.25a4.75 4.75 0 1 0 0 9.5 4.75 4.75 0 0 0 0-9.5ZM4.702 16.702A3.25 3.25 0 0 1 7 15.75h4A3.25 3.25 0 0 1 14.25 19v1.4a.75.75 0 0 0 1.5 0V19A4.75 4.75 0 0 0 11 14.25H7A4.75 4.75 0 0 0 2.25 19v1.4a.75.75 0 0 0 1.5 0V19c0-.862.342-1.689.952-2.298ZM15.05 4.4a.75.75 0 0 1 .75-.75 3.75 3.75 0 1 1 0 7.5.75.75 0 0 1 0-1.5 2.25 2.25 0 1 0 0-4.5.75.75 0 0 1-.75-.75Zm1.75 9.85a.75.75 0 0 0 0 1.5h.364a2.886 2.886 0 0 1 2.886 2.886v1.273a.75.75 0 0 0 1.5 0v-1.273a4.386 4.386 0 0 0-4.386-4.386H16.8Z" fill="#6E7480"/></svg>