<svg width="24" height="24" fill="none" xmlns="http://www.w3.org/2000/svg"><path fill-rule="evenodd" clip-rule="evenodd" d="M1.5 5.697a.75.75 0 0 0-.75.75v11.105c0 .414.336.75.75.75h1.958a.75.75 0 0 0 .677-.427h15.73a.75.75 0 0 0 .677.427H22.5a.75.75 0 0 0 .75-.75V6.447a.75.75 0 0 0-.75-.75h-1.958a.75.75 0 0 0-.677.427H4.135a.75.75 0 0 0-.677-.427H1.5Zm18.292 10.678H4.208v-8.75h15.584v8.75Zm-17.084.427V7.197H2.25v9.605h.458Zm18.584 0V7.197h.458v9.605h-.458ZM6.77 9.436a.75.75 0 0 0-1.5 0v2.99a.75.75 0 0 0 1.5 0v-2.99Zm2.99 0a.75.75 0 1 0-1.5 0v5.126a.75.75 0 0 0 1.5 0V9.436Zm2.99 0a.75.75 0 0 0-1.5 0v5.126a.75.75 0 0 0 1.5 0V9.436Zm2.99 0a.75.75 0 1 0-1.5 0v5.126a.75.75 0 0 0 1.5 0V9.436Zm2.989 0a.75.75 0 0 0-1.5 0v.428a.75.75 0 0 0 1.5 0v-.428Zm0 2.136a.75.75 0 0 0-1.5 0v2.99a.75.75 0 0 0 1.5 0v-2.99ZM6.77 14.135a.75.75 0 0 0-1.5 0v.427a.75.75 0 0 0 1.5 0v-.427Z" fill="#6E7480"/></svg>