<svg width="24" height="24" fill="none" xmlns="http://www.w3.org/2000/svg"><path fill-rule="evenodd" clip-rule="evenodd" d="M10 3.95a.25.25 0 0 0-.25.25v1.25h4.5V4.2a.25.25 0 0 0-.25-.25h-4Zm5.75 1.5V4.2A1.75 1.75 0 0 0 14 2.45h-4A1.75 1.75 0 0 0 8.25 4.2v1.25H4a.75.75 0 1 0 0 1.5h.31l.94 11.284A2.75 2.75 0 0 0 8 20.95h8a2.75 2.75 0 0 0 2.75-2.716l.94-11.284H20a.75.75 0 0 0 0-1.5h-4.25ZM15 6.95H5.815l.932 11.188c.002.02.003.041.003.062A1.25 1.25 0 0 0 8 19.45h8a1.25 1.25 0 0 0 1.25-1.25c0-.02 0-.041.003-.062l.932-11.188H15Zm-5 2.5a.75.75 0 0 1 .75.75v6a.75.75 0 0 1-1.5 0v-6a.75.75 0 0 1 .75-.75Zm4.75.75a.75.75 0 0 0-1.5 0v6a.75.75 0 0 0 1.5 0v-6Z" fill="#6E7480"/></svg>