<svg width="24" height="24" fill="none" xmlns="http://www.w3.org/2000/svg"><path fill-rule="evenodd" clip-rule="evenodd" d="M12.092 2.506a.506.506 0 1 1-1.013-.002.506.506 0 0 1 1.013.002ZM10.755 4.85a.506.506 0 1 1-1.012-.002.506.506 0 0 1 1.012.002Zm-4.607.137a.506.506 0 1 1-1.013 0 .506.506 0 0 1 1.013 0ZM4.166 7.15a.506.506 0 1 0 .001-1.012.506.506 0 0 0-.001 1.012Zm2.765 0a.506.506 0 1 1-1.013 0 .506.506 0 0 1 1.013 0ZM3.659 8.437a.506.506 0 1 1-1.013-.001.506.506 0 0 1 1.013 0Zm-.6 2.023a.506.506 0 1 1-1.012-.001.506.506 0 0 1 1.012 0Zm-.552 2.712a.506.506 0 1 0 .001-1.012.506.506 0 0 0-.001 1.012Zm.875 1.563a.506.506 0 1 1-1.013 0 .506.506 0 0 1 1.013 0Zm7.788 4.598a.506.506 0 1 1-1.012 0 .506.506 0 0 1 1.012 0Zm.138 2.115a.506.506 0 1 1-1.012 0 .506.506 0 0 1 1.012 0Zm4.056 0a.506.506 0 1 0 .001-1.012.506.506 0 0 0 0 1.012ZM4.627 11.655a.506.506 0 1 0 .001-1.012.506.506 0 0 0-.001 1.012Zm.506-2.023a.506.506 0 1 0 .001-1.012.506.506 0 0 0 0 1.012ZM4.72 14a.506.506 0 1 0 .001-1.013A.506.506 0 0 0 4.72 14Zm2.672 3.356a.506.506 0 1 1-1.012 0 .506.506 0 0 1 1.012 0Zm-2.488 1.517a.506.506 0 1 0 .001-1.012.506.506 0 0 0 0 1.012Zm1.06-3.218a.506.506 0 1 1-1.012-.001.506.506 0 0 1 1.012.001Zm-2.258 1.563a.506.506 0 1 0 .001-1.012.506.506 0 0 0 0 1.012Zm3.456 2.667a.506.506 0 1 1-1.012-.001.506.506 0 0 1 1.012.001Zm5.807-.046a.506.506 0 1 0 0-1.013.506.506 0 0 0 0 1.013ZM13.152 22a.506.506 0 1 0 .001-1.013.506.506 0 0 0 0 1.013Zm-4.055-1.104a.506.506 0 1 1-1.013 0 .506.506 0 0 1 1.013 0Zm8.294-3.172a.506.506 0 1 0 .001-1.013.506.506 0 0 0 0 1.013Zm1.66-2.207a.506.506 0 1 1-1.013-.001.506.506 0 0 1 1.013.001Zm2.442-2.436a.506.506 0 1 0 .001-1.013.506.506 0 0 0 0 1.013Zm.184 1.563a.506.506 0 1 1-1.013-.001.506.506 0 0 1 1.013 0Zm-1.29 2.39a.506.506 0 1 0 .001-1.012.506.506 0 0 0 0 1.013Zm-.691 1.242a.506.506 0 1 1-1.013-.001.506.506 0 0 1 1.013 0Zm-2.35 2.115a.506.506 0 1 0 0-1.013.506.506 0 0 0 0 1.013Zm-.738-13.747a.506.506 0 1 0 .001-1.013.506.506 0 0 0 0 1.013ZM13.89 3.24a.506.506 0 1 0 .002-1.012.506.506 0 0 0-.002 1.012Zm2.673.184a.506.506 0 1 1-1.013 0 .506.506 0 0 1 1.013 0Zm1.336 4.69a.506.506 0 1 0 .002-1.013.506.506 0 0 0-.002 1.013Zm.645-3.448a.506.506 0 1 1-1.012-.002.506.506 0 0 1 1.012.002Zm1.152 2.207a.506.506 0 1 0 .001-1.013.506.506 0 0 0 0 1.013Zm1.521 1.333a.506.506 0 1 1-1.013-.001.506.506 0 0 1 1.013 0ZM18.912 9.77a.506.506 0 1 0 .002-1.012.506.506 0 0 0-.002 1.012Zm.968 1.471a.506.506 0 1 1-1.012 0 .506.506 0 0 1 1.012 0Zm1.474-.505a.506.506 0 1 0 .002-1.013.506.506 0 0 0-.002 1.013Zm-1.658 2.804a.506.506 0 1 1-1.013 0 .506.506 0 0 1 1.013 0ZM8.129 6.184A.506.506 0 1 0 8.13 5.17a.506.506 0 0 0 0 1.013Zm1.659-3.356a.506.506 0 1 1-1.013-.002.506.506 0 0 1 1.013.002ZM7.345 4.16a.506.506 0 1 0 .002-1.013.506.506 0 0 0-.002 1.013Zm4.931.041a1.653 1.653 0 0 1 2.08.214 1.644 1.644 0 0 1-.544 2.684 1.654 1.654 0 0 1-2.249-1.209 1.644 1.644 0 0 1 .713-1.689Zm-1.01 3.682a.728.728 0 0 1 .163-.042c.271-.005.557.029.857.065.158.019.321.038.489.053a.71.71 0 0 1 .375.119c.11.077.193.187.239.313l.927 2.62 1.925.886a.663.663 0 0 1 .402.899.66.66 0 0 1-.583.388.652.652 0 0 1-.352-.093l-2.17-.989a.658.658 0 0 1-.348-.37l-.348-.947-.47 2.305 1.023 1.647.491.659a.619.619 0 0 1 .082.144l1.31 3.294a.664.664 0 0 1-1.089.711.655.655 0 0 1-.14-.217l-1.248-3.108-2.273-2.285a1.49 1.49 0 0 1-.45-1.442c.13-.396.397-1.646.594-2.635 0 0 .018-.12.04-.247l-1.494.762-1.208 1.832a.661.661 0 0 1-1.204-.24.67.67 0 0 1 .098-.5l1.31-1.977a.65.65 0 0 1 .267-.226l2.62-1.318a.63.63 0 0 1 .164-.061Zm-1.823 8.295.473-2.243c.064.126.19.253.259.322l.007.007 1.044 1.05c-.608 1.501-1.48 2.674-2.437 3.963l-.144.195a.655.655 0 0 1-.922.144.666.666 0 0 1-.143-.927l1.863-2.51Z" fill="#6E7480"/></svg>