<svg width="24" height="24" fill="none" xmlns="http://www.w3.org/2000/svg"><path fill-rule="evenodd" clip-rule="evenodd" d="M13.032 3.418c1.339.068 2.663-.443 3.691-1.452l.002-.001a.75.75 0 0 1 1.051 0c1.029 1.01 2.353 1.52 3.692 1.453a.75.75 0 0 1 .763.557c.25.945.327 1.936.225 2.913a7.934 7.934 0 0 1-.82 2.787 7.264 7.264 0 0 1-1.75 2.232 6.537 6.537 0 0 1-2.429 1.314.748.748 0 0 1-.414 0 6.537 6.537 0 0 1-2.428-1.314 7.264 7.264 0 0 1-1.752-2.232 7.934 7.934 0 0 1-.82-2.787 8.119 8.119 0 0 1 .226-2.913.75.75 0 0 1 .763-.557Zm.565 1.497A6.39 6.39 0 0 0 17.25 3.5a6.39 6.39 0 0 0 3.653 1.414c.103.597.125 1.21.062 1.818a6.439 6.439 0 0 1-.664 2.26 5.767 5.767 0 0 1-1.388 1.772 5.067 5.067 0 0 1-1.663.95 5.067 5.067 0 0 1-1.663-.95 5.767 5.767 0 0 1-1.388-1.773 6.439 6.439 0 0 1-.663-2.259 6.636 6.636 0 0 1 .061-1.818Z" fill="#6E7480"/><path d="M6.033 17.68a1.08 1.08 0 1 0 0-2.161 1.08 1.08 0 0 0 0 2.161Zm8.715-1.08a1.08 1.08 0 1 1-2.161 0 1.08 1.08 0 0 1 2.161 0Z" fill="#6E7480"/><path fill-rule="evenodd" clip-rule="evenodd" d="M6.175 8.5h5.232c.16.517.362 1.02.602 1.5H6.76l-.85 3.4h8.84c.063 0 .127.002.19.006a8.04 8.04 0 0 0 2.194 1.06 3.2 3.2 0 0 1 .816 2.134v2.45a.75.75 0 0 1-.75.75h-.475v1.7a.75.75 0 0 1-1.5 0v-1.7H4.475v1.7a.75.75 0 0 1-1.5 0v-1.7H2.5a.75.75 0 0 1-.75-.75V16.6a3.2 3.2 0 0 1 .631-1.908l-.661-.662a.75.75 0 1 1 1.06-1.06l.759.758c.256-.126.53-.218.811-.271l1.097-4.389a.75.75 0 0 1 .728-.568Zm-1.237 6.4a.78.78 0 0 0 .027 0h9.785a1.7 1.7 0 0 1 1.7 1.7v1.7H3.25v-1.7a1.7 1.7 0 0 1 1.688-1.7Z" fill="#6E7480"/></svg>