<svg width="24" height="24" fill="none" xmlns="http://www.w3.org/2000/svg"><path fill-rule="evenodd" clip-rule="evenodd" d="M5 3.75a.75.75 0 0 0-.624.334l-2 3a.75.75 0 0 0-.126.416v10A2.75 2.75 0 0 0 5 20.25h14a2.75 2.75 0 0 0 2.75-2.75v-10a.75.75 0 0 0-.126-.416l-2-3A.75.75 0 0 0 19 3.75H5Zm-.599 3 1-1.5H18.6l1 1.5H4.4Zm-.651 1.5h16.5v9.25A1.25 1.25 0 0 1 19 18.75H5a1.25 1.25 0 0 1-1.25-1.25V8.25Zm8.969 2.25a.75.75 0 0 0-1.5 0v4.44l-1.47-1.47a.75.75 0 0 0-1.06 1.06l2.75 2.75a.75.75 0 0 0 1.06 0l2.813-2.812a.75.75 0 1 0-1.061-1.06l-1.532 1.531V10.5Z" fill="#6E7480"/></svg>