<svg width="24" height="24" fill="none" xmlns="http://www.w3.org/2000/svg"><path fill-rule="evenodd" clip-rule="evenodd" d="M15 2.25A2.75 2.75 0 0 0 12.25 5v.946l-.847-.887a2.585 2.585 0 0 0-1.87-.809c-.736 0-1.45.368-1.92.86L5.007 7.842a2.767 2.767 0 0 0-.757 1.91c0 .709.269 1.396.757 1.908l.563.59H5A2.75 2.75 0 0 0 2.25 15v4A2.75 2.75 0 0 0 5 21.75h12A4.75 4.75 0 0 0 21.75 17V5A2.75 2.75 0 0 0 19 2.25h-4ZM7.613 5.11 8.7 6.145c.235-.246.574-.395.834-.395.287 0 .57.12.785.344l1.877 1.968a.787.787 0 0 0 .055.052v8.966l-6.157-6.455a1.267 1.267 0 0 1-.343-.874c0-.334.127-.648.342-.874l2.606-2.731L7.613 5.11ZM5 13.75h2l6.202 6.5H5A1.25 1.25 0 0 1 3.75 19v-4A1.25 1.25 0 0 1 5 13.75Zm14.298 5.548A3.25 3.25 0 0 1 13.75 17V5A1.25 1.25 0 0 1 15 3.75h4A1.25 1.25 0 0 1 20.25 5v12a3.25 3.25 0 0 1-.952 2.298ZM18 17a1 1 0 1 0-2 0v.01a1 1 0 1 0 2 0V17Z" fill="#6E7480"/></svg>