<svg width="24" height="24" fill="none" xmlns="http://www.w3.org/2000/svg"><path fill-rule="evenodd" clip-rule="evenodd" d="M17.711 5.388a.9.9 0 1 1 1.8 0 .9.9 0 0 1-1.8 0Zm.9-2.4a2.4 2.4 0 1 0 0 4.8 2.4 2.4 0 0 0 0-4.8ZM4.488 18.611a.9.9 0 1 1 1.8 0 .9.9 0 0 1-1.8 0Zm.9-2.4a2.4 2.4 0 1 0 0 4.8 2.4 2.4 0 0 0 0-4.8Zm13.223 1.5a.9.9 0 1 0 0 1.8.9.9 0 0 0 0-1.8Zm-2.4.9a2.4 2.4 0 1 1 4.8 0 2.4 2.4 0 0 1-4.8 0ZM4.488 5.388a.9.9 0 1 1 1.8 0 .9.9 0 0 1-1.8 0Zm.9-2.4a2.4 2.4 0 1 0 0 4.8 2.4 2.4 0 0 0 0-4.8Zm0 5.462a.75.75 0 0 1 .75.75v5.6a.75.75 0 1 1-1.5 0V9.2a.75.75 0 0 1 .75-.75ZM9.2 4.638a.75.75 0 1 0 0 1.5h5.6a.75.75 0 1 0 0-1.5H9.2Zm-.75 13.973a.75.75 0 0 1 .75-.75h5.6a.75.75 0 1 1 0 1.5H9.2a.75.75 0 0 1-.75-.75ZM19.36 9.2a.75.75 0 1 0-1.5 0v5.6a.75.75 0 1 0 1.5 0V9.2Z" fill="#6E7480"/></svg>