<svg width="24" height="24" fill="none" xmlns="http://www.w3.org/2000/svg"><path fill-rule="evenodd" clip-rule="evenodd" d="M14.654 2.569C9.374 1.156 3.944 4.193 2.548 9.394 1.143 14.63 4.407 19.62 9.572 21.337a.71.71 0 0 0 .043.013c.13.035.258.071.385.107h.001c.837.24 1.621.463 3.03.203 1.877-.346 3.014-1.605 3.342-3.074a4.268 4.268 0 0 0-1.34-4.101c-.498-.441-.657-.818-.685-1.064a.67.67 0 0 1 .218-.587c.345-.325 1.21-.544 2.24.134 1.316.868 2.572 1.107 3.57.594.987-.507 1.402-1.591 1.402-2.645 0-3.836-3.176-7.292-7.124-8.348ZM3.997 9.782C5.17 5.41 9.756 2.81 14.265 4.018c3.45.923 6.013 3.892 6.013 6.9 0 .723-.277 1.151-.588 1.31-.302.156-.95.219-2.058-.512-1.466-.966-3.129-.885-4.095.028a2.169 2.169 0 0 0-.68 1.847c.082.715.493 1.407 1.18 2.017a2.77 2.77 0 0 1 .872 2.652c-.198.886-.87 1.69-2.15 1.925-1.053.195-1.538.058-2.33-.166-.125-.035-.259-.073-.404-.112-4.536-1.518-7.19-5.795-6.028-10.125Zm7.19 9.232a1.376 1.376 0 1 0-.001-2.752 1.376 1.376 0 0 0 .002 2.752Zm-3.433-7.7A1.377 1.377 0 1 1 5 11.311a1.377 1.377 0 0 1 2.753.001Zm1.235-2.85a1.376 1.376 0 1 0 0-2.752 1.376 1.376 0 0 0 0 2.751Zm6.268-2.212a1.375 1.375 0 1 1-2.751 0 1.375 1.375 0 0 1 2.75 0Zm2.249 4.38a1.376 1.376 0 1 0-.002-2.752 1.376 1.376 0 0 0 .002 2.752Z" fill="#6E7480"/></svg>