<svg width="24" height="24" fill="none" xmlns="http://www.w3.org/2000/svg"><path fill-rule="evenodd" clip-rule="evenodd" d="M15.886 4.85h.99c1.589 0 3.037.884 4.058 2.313 1.018 1.426 1.567 3.32 1.567 5.263V17.3a.75.75 0 0 1-.75.75h-.9a3 3 0 1 0-6 0H9.15a3 3 0 1 0-6 0h-.901a.75.75 0 0 1-.75-.75V6.575A1.725 1.725 0 0 1 3.224 4.85h12.662ZM8.91 6.35H3.224A.225.225 0 0 0 3 6.575v3.15h5.91V6.35Zm1.5 0v3.375h5.608l-.724-3.375H10.41Zm10.56 5.326h-3L16.828 6.35h.048c.997 0 2.03.554 2.837 1.685.688.964 1.137 2.247 1.256 3.64ZM6.15 20.3a2.25 2.25 0 1 0 0-4.5 2.25 2.25 0 0 0 0 4.5Zm13.951-2.25a2.25 2.25 0 1 1-4.5 0 2.25 2.25 0 0 1 4.5 0Z" fill="#6E7480"/></svg>