<svg width="24" height="24" fill="none" xmlns="http://www.w3.org/2000/svg"><path fill-rule="evenodd" clip-rule="evenodd" d="M8.5 1.5A.5.5 0 0 0 8 2v1a.5.5 0 0 0 .5.5h1A.5.5 0 0 0 10 3V2a.5.5 0 0 0-.5-.5h-1ZM3 8.75h12.386l1.242 6.19a.75.75 0 0 0 .735.602h3.887v2.708h-.895a2.701 2.701 0 0 0-5.01 0h-.595V13a.75.75 0 0 0-.75-.75H9a.75.75 0 0 0-.75.75v4.564a2.701 2.701 0 0 0-4.605.687H2.75V8.916c0-.022.009-.058.05-.095A.299.299 0 0 1 3 8.75Zm10.25 5v4.5h-3.5v-4.5h3.5Zm.75 6H8.805a2.701 2.701 0 0 1-5.311 0H2a.75.75 0 0 1-.75-.75V8.917c0-.464.202-.894.536-1.201.332-.305.77-.466 1.214-.466h14c1.594 0 3.072.814 4.127 2.169 1.052 1.35 1.623 3.15 1.623 4.998V19a.75.75 0 0 1-.75.75h-1.493a2.701 2.701 0 0 1-5.312 0H14Zm5.944-9.41c.757.972 1.226 2.288 1.297 3.702h-3.264L16.916 8.75H17c1.058 0 2.124.539 2.944 1.59ZM6.149 18.06a1.2 1.2 0 1 0 0 2.401 1.2 1.2 0 0 0 0-2.4Zm10.501 1.2a1.2 1.2 0 1 1 2.401 0 1.2 1.2 0 0 1-2.4 0ZM12 2a.5.5 0 0 1 .5-.5h1a.5.5 0 0 1 .5.5v1a.5.5 0 0 1-.5.5h-1A.5.5 0 0 1 12 3V2ZM6.5 3.5A.5.5 0 0 0 6 4v1a.5.5 0 0 0 .5.5h1A.5.5 0 0 0 8 5V4a.5.5 0 0 0-.5-.5h-1ZM10 4a.5.5 0 0 1 .5-.5h1a.5.5 0 0 1 .5.5v1a.5.5 0 0 1-.5.5h-1A.5.5 0 0 1 10 5V4Zm4.5-.5a.5.5 0 0 0-.5.5v1a.5.5 0 0 0 .5.5h1A.5.5 0 0 0 16 5V4a.5.5 0 0 0-.5-.5h-1Z" fill="#6E7480"/></svg>