<svg width="24" height="24" fill="none" xmlns="http://www.w3.org/2000/svg"><path fill-rule="evenodd" clip-rule="evenodd" d="M3.342 5a.75.75 0 0 0-.75.75v6.252a4.252 4.252 0 1 0 6.184 5.66h4.305a2.699 2.699 0 1 0 4.964-2.035v-.008h2.265l1.64 1.64a.75.75 0 1 0 1.061-1.06l-1.64-1.641v-2.096a.75.75 0 0 0-1.5 0v1.657h-1.826V11.33a1.68 1.68 0 0 0-1.68-1.68h-5.073L9.628 5.473A.75.75 0 0 0 8.93 5H3.342Zm13.203 9.359v-3.028a.18.18 0 0 0-.18-.18H7.98a.75.75 0 0 1-.697-.473L5.624 6.5H4.091v4.754a4.252 4.252 0 0 1 5.286 4.91h3.703a2.699 2.699 0 0 1 3.464-1.805ZM8.49 9.651 7.237 6.5h1.185l1.255 3.151H8.49Zm-3.288 2.956a2.752 2.752 0 1 0 0 5.504 2.752 2.752 0 0 0 0-5.504Zm9.273 4.306a1.198 1.198 0 1 1 2.396 0 1.198 1.198 0 0 1-2.396 0Zm-9.273-2.31a.75.75 0 0 1 .75.75v.01a.75.75 0 0 1-1.5 0v-.01a.75.75 0 0 1 .75-.75Z" fill="#6E7480"/></svg>