<svg width="24" height="24" fill="none" xmlns="http://www.w3.org/2000/svg"><path fill-rule="evenodd" clip-rule="evenodd" d="M8 3.25a.75.75 0 0 0 0 1.5h.25v1.5H7a.75.75 0 0 0-.75.75v4c0 .414.336.75.75.75h9.5a.75.75 0 0 0 .636-1.148l-2.5-4A.75.75 0 0 0 14 6.25H9.75V4A.75.75 0 0 0 9 3.25H8Zm1 4.5H7.75v2.5h3.5v-2.5H9Zm6.147 2.5H12.75v-2.5h.834l1.563 2.5ZM3 12.25a.75.75 0 0 0-.75.75v4.5c0 .267.14.501.35.634.233-.243.563-.39.926-.383a1.15 1.15 0 0 0 .959-.48 3.65 3.65 0 0 1 3.015-1.52 3.651 3.651 0 0 1 3.015 1.52 1.147 1.147 0 0 0 .959.48h.052a1.15 1.15 0 0 0 .959-.48 3.651 3.651 0 0 1 3.015-1.52 3.651 3.651 0 0 1 3.015 1.52 1.147 1.147 0 0 0 .959.48h.052a1.15 1.15 0 0 0 .959-.48v-.001l2.17-3.906A.75.75 0 0 0 22 12.25H3Zm3.712 5.674a1.65 1.65 0 0 1 .804-.174 1.65 1.65 0 0 1 1.375.688A3.15 3.15 0 0 0 11.5 19.75a3.151 3.151 0 0 0 2.61-1.313 1.65 1.65 0 0 1 1.374-.688h.032a1.65 1.65 0 0 1 1.375.688A3.15 3.15 0 0 0 19.5 19.75a3.151 3.151 0 0 0 2.61-1.313.75.75 0 0 0-1.22-.875 1.65 1.65 0 0 1-1.406.688 1.651 1.651 0 0 1-1.375-.688A3.15 3.15 0 0 0 15.5 16.25a3.149 3.149 0 0 0-2.61 1.313 1.65 1.65 0 0 1-1.374.688h-.032a1.651 1.651 0 0 1-1.375-.688A3.15 3.15 0 0 0 7.5 16.25a3.149 3.149 0 0 0-2.61 1.313 1.65 1.65 0 0 1-1.374.688.75.75 0 1 0-.032 1.5 3.15 3.15 0 0 0 2.625-1.313 1.65 1.65 0 0 1 .603-.514Z" fill="#6E7480"/></svg>