<svg width="24" height="24" fill="none" xmlns="http://www.w3.org/2000/svg"><path fill-rule="evenodd" clip-rule="evenodd" d="M7.288 2.47a.75.75 0 0 0-1.06 1.06l2.827 2.83a.75.75 0 0 0 1.06-1.06L7.287 2.47Zm2.268 0a.75.75 0 0 1 1.06 0l2.829 2.828a.75.75 0 0 1-1.06 1.06L9.554 3.53a.75.75 0 0 1 0-1.06Zm6.36 4.83H3.225A1.725 1.725 0 0 0 1.5 9.025v9.727c0 .414.336.75.75.75h.9a3 3 0 0 1 6 0h5.702a3 3 0 0 1 6 0h.9a.75.75 0 0 0 .75-.75v-3.876c0-1.942-.549-3.837-1.567-5.263-1.02-1.429-2.47-2.313-4.058-2.313h-.96ZM3.225 8.8H6.3v3.376H3v-3.15a.225.225 0 0 1 .225-.226ZM7.8 12.176V8.8h3.3v3.376H7.8Zm4.8 0h3.418L15.294 8.8H12.6v3.376Zm5.37 1.95h3c-.12-1.393-.569-2.677-1.257-3.64-.808-1.132-1.84-1.686-2.837-1.686h-.048l1.142 5.326ZM6.15 21.752a2.25 2.25 0 1 0 0-4.5 2.25 2.25 0 0 0 0 4.5Zm13.951-2.25a2.25 2.25 0 1 1-4.5 0 2.25 2.25 0 0 1 4.5 0Z" fill="#6E7480"/></svg>