<svg width="24" height="24" fill="none" xmlns="http://www.w3.org/2000/svg"><path fill-rule="evenodd" clip-rule="evenodd" d="M12.417 5.262a.75.75 0 0 1 .75-.75H19a.75.75 0 0 1 .589.285l3.5 4.433a.75.75 0 0 1 .161.465v7a.75.75 0 0 1-.75.75h-2.358a2.702 2.702 0 0 1-5.189 0H8.475a2.702 2.702 0 0 1-5.188 0H1.5a.75.75 0 0 1-.75-.75v-3.917a.75.75 0 0 1 .75-.75h10.917V5.262Zm2.533 10.683a2.702 2.702 0 0 1 5.195 0 .8.8 0 0 1 .022 0h1.583v-4.1H18.3a.75.75 0 0 1-.738-.617l-.94-5.216h-2.705v9.933h1.033Zm-6.45 0h-.022a2.702 2.702 0 0 0-5.194 0H2.25v-2.417h10.167v2.417H8.5Zm9.647-9.933.78 4.333h2.823v-.39l-3.113-3.943h-.49ZM5.881 15.489a1.201 1.201 0 1 0 0 2.402 1.201 1.201 0 0 0 0-2.402Zm10.465 1.2a1.201 1.201 0 1 1 2.403 0 1.201 1.201 0 0 1-2.403 0Z" fill="#6E7480"/></svg>