<svg width="24" height="24" fill="none" xmlns="http://www.w3.org/2000/svg"><path fill-rule="evenodd" clip-rule="evenodd" d="M9.556 2.47a.75.75 0 0 1 1.06 0l2.829 2.828a.75.75 0 1 1-1.061 1.06L9.556 3.53a.75.75 0 0 1 0-1.06ZM2.8 8.82a.299.299 0 0 1 .2-.07h3.25v2.976h-3.5v-2.81c0-.021.009-.057.05-.095Zm4.95 2.905h4V8.75h-4v2.976Zm5.5-2.976v2.976h2.733l-.597-2.976H13.25Zm-10.5 4.476h13.534l.344 1.713a.75.75 0 0 0 .735.603h3.887v2.708h-.894a2.701 2.701 0 0 0-5.01 0H8.654a2.701 2.701 0 0 0-5.01 0H2.75v-5.024Zm18.49.816c-.07-1.414-.54-2.73-1.296-3.702-.82-1.052-1.886-1.59-2.944-1.59h-.084l1.062 5.292h3.263ZM22 19.75h-1.493a2.701 2.701 0 0 1-5.312 0h-6.39a2.701 2.701 0 0 1-5.311 0H2a.75.75 0 0 1-.75-.75V8.917c0-.464.202-.895.536-1.201.332-.305.77-.466 1.214-.466h14c1.594 0 3.072.814 4.127 2.168 1.052 1.35 1.623 3.15 1.623 4.999V19a.75.75 0 0 1-.75.75Zm-17.05-.49a1.2 1.2 0 1 1 2.4 0 1.2 1.2 0 0 1-2.4 0Zm12.901-1.2a1.2 1.2 0 1 0 0 2.4 1.2 1.2 0 0 0 0-2.4ZM7.288 2.47a.75.75 0 0 0-1.06 1.06l2.827 2.83a.75.75 0 0 0 1.06-1.06L7.287 2.47Z" fill="#6E7480"/></svg>