<svg width="24" height="24" fill="none" xmlns="http://www.w3.org/2000/svg"><path fill-rule="evenodd" clip-rule="evenodd" d="M2.842 4.774a1 1 0 0 0-1.342.94V8.5a1 1 0 0 0 1 1H3a.5.5 0 0 1 0 1H2a.5.5 0 0 0 0 1h1a1.5 1.5 0 0 0 0-3h-.5V6.184l6.606 6.166H1.733a.733.733 0 0 0-.733.733v3.15c0 .404.328.733.733.733h1.282v-.059a3.002 3.002 0 1 1 6.002.059h5.702v-.059a3.002 3.002 0 1 1 6.002.059h1.546a.733.733 0 0 0 .733-.734v-6.164a.733.733 0 0 0-.158-.454L19.42 5.279a.733.733 0 0 0-.576-.28h-5.703a.733.733 0 0 0-.734.734v2.52l-9.565-3.48Zm9.565 4.542-8.331-3.03L10.197 12h2.21V9.316Zm5.115-2.85.762 4.238h3.25v-.381l-3.045-3.856h-.967Zm.198 12.639a2.251 2.251 0 1 0 0-4.503 2.251 2.251 0 0 0 0 4.503Zm-9.452-2.251a2.251 2.251 0 1 1-4.503 0 2.251 2.251 0 0 1 4.503 0Z" fill="#6E7480"/></svg>