<svg width="24" height="24" fill="none" xmlns="http://www.w3.org/2000/svg"><path fill-rule="evenodd" clip-rule="evenodd" d="M4.304 5.721A.75.75 0 0 1 5 5.25h9a.75.75 0 0 1 .586.281l3.774 4.719H19A2.75 2.75 0 0 1 21.75 13v4a.75.75 0 0 1-.75.75h-1.354a2.751 2.751 0 0 1-5.293 0H9.646a2.751 2.751 0 0 1-5.292 0H3a.75.75 0 0 1-.75-.75v-6a.75.75 0 0 1 .054-.278l2-5Zm10.05 10.529a2.751 2.751 0 0 1 5.293 0h.603V13A1.25 1.25 0 0 0 19 11.75H3.75v4.5h.604a2.751 2.751 0 0 1 5.292 0h4.707Zm-10.246-6h7.142v-3.5H5.508l-1.4 3.5Zm8.642-3.5v3.5h3.69l-2.8-3.5h-.89Zm-5.75 9a1.25 1.25 0 1 0 0 2.5 1.25 1.25 0 0 0 0-2.5ZM15.75 17a1.25 1.25 0 1 1 2.5 0 1.25 1.25 0 0 1-2.5 0Z" fill="#6E7480"/></svg>